%
M48
M72
T01C0.0118
T02C0.0161
T03C0.0240
T04C0.0319
T05C0.0402
T06C0.0472
T07C0.1102
T08C0.1575
%
T01
X31283Y35915
X28883Y35915
X28333Y34715
X28283Y33615
X28633Y33615
X28983Y33615
X29583Y33365
X30083Y34165
X31283Y34015
X28933Y32665
X28233Y31665
X27633Y32015
X26483Y31515
X24883Y31165
X24483Y31165
X23633Y30665
X23183Y30315
X22033Y30365
X21433Y31015
X21333Y32115
X22033Y33215
X22883Y33815
X23783Y33815
X24833Y33265
X25483Y33265
X26483Y33615
X25533Y34965
X26183Y35915
X22183Y34615
X20733Y34815
X2633Y5365
X2133Y5565
X833Y5565
X533Y5165
X1183Y7715
X3233Y9215
X3933Y10715
X4383Y10715
X6083Y9115
X5933Y7365
X7183Y6265
X10433Y6215
X11983Y8065
X10683Y8715
X8983Y8665
X11683Y10615
X12183Y10615
X12183Y11015
X12283Y12815
X11883Y12815
X11483Y12815
X11083Y12865
X10683Y13465
X10683Y13815
X10683Y14165
X10683Y14515
X10183Y14515
X10183Y14165
X10183Y13815
X10183Y13465
X9683Y13465
X9683Y13815
X9683Y14165
X9683Y14515
X8533Y14515
X8533Y14165
X8533Y13815
X8533Y13465
X8683Y12815
X8683Y12365
X8683Y11865
X8683Y11265
X8133Y12815
X7633Y12815
X7283Y12815
X6883Y12815
X6433Y12815
X6083Y13465
X6083Y13815
X6083Y14165
X5683Y14165
X5683Y13815
X5683Y13465
X5283Y13465
X5283Y13815
X12183Y14815
X12533Y14815
X12533Y15365
X18683Y12615
X19783Y11715
X21383Y12065
X21583Y11515
X22033Y12665
X21433Y13315
X21333Y14415
X22033Y15515
X22883Y16115
X23783Y16115
X24833Y15565
X25483Y15565
X26483Y15915
X25533Y17265
X26183Y18215
X28333Y17015
X28283Y15915
X28633Y15915
X28983Y15915
X29583Y15665
X28933Y14965
X28233Y13965
X27633Y14315
X26483Y13815
X24883Y13465
X24483Y13465
X23633Y12965
X23183Y12615
X24633Y11965
X23983Y11315
X24283Y11065
X24183Y10415
X24533Y10065
X24683Y9665
X24283Y9215
X24483Y8865
X25083Y8915
X25583Y9115
X26033Y8865
X26433Y8865
X27083Y8865
X28033Y8015
X28233Y8615
X28933Y8315
X29233Y8615
X28733Y9215
X29533Y10165
X30383Y10065
X30683Y9365
X30033Y9215
X30033Y8315
X28683Y6515
X28683Y6215
X28683Y5715
X28683Y5265
X28683Y4765
X28483Y4065
X28933Y3115
X31233Y3115
X30283Y5015
X30283Y5815
X33283Y5215
X48933Y3115
X46633Y3115
X46183Y4065
X46383Y4765
X46383Y5265
X46383Y5715
X46383Y6215
X46383Y6515
X47983Y5815
X47983Y5015
X50983Y5215
X47733Y8315
X46933Y8615
X46633Y8315
X45933Y8615
X45733Y8015
X44693Y7775
X44783Y8865
X44133Y8865
X43733Y8865
X43283Y9115
X42783Y8915
X42183Y8865
X41983Y9215
X42383Y9665
X42233Y10065
X41883Y10415
X42783Y10215
X41983Y11065
X41683Y11315
X42333Y11965
X43633Y12265
X44033Y12315
X44683Y12365
X44983Y12115
X44683Y11815
X45133Y11115
X46383Y10315
X47233Y10165
X48083Y10065
X48383Y9365
X47733Y9215
X46433Y9215
X45083Y9915
X48066Y11215
X45783Y12515
X47283Y13665
X47833Y14065
X46633Y14965
X47283Y15665
X46683Y15915
X46333Y15915
X45983Y15915
X46033Y17015
X46583Y18215
X47783Y16465
X48983Y16315
X48983Y18215
X44183Y15915
X43183Y15565
X42533Y15565
X41483Y16115
X40583Y16115
X39733Y15515
X39033Y14415
X39133Y13315
X39733Y12665
X39083Y12065
X39283Y11515
X37483Y11715
X36383Y12615
X40883Y12615
X41333Y12965
X42183Y13465
X42583Y13465
X44183Y13815
X45333Y14315
X45933Y13965
X43233Y17265
X43883Y18215
X39883Y16915
X38433Y17115
X31283Y16315
X30083Y16465
X28883Y18215
X31283Y18215
X31233Y20815
X28933Y20815
X28483Y21765
X28683Y22465
X28683Y22965
X28683Y23415
X28683Y23915
X28683Y24215
X30283Y23515
X30283Y22715
X33283Y22915
X30033Y26015
X29233Y26315
X28933Y26015
X28233Y26315
X28033Y25715
X26993Y25475
X27083Y26565
X26433Y26565
X26033Y26565
X25583Y26815
X25083Y26615
X24483Y26565
X24283Y26915
X24683Y27365
X24533Y27765
X24183Y28115
X24283Y28765
X23983Y29015
X24633Y29665
X25933Y29965
X26333Y30015
X26983Y30065
X27283Y29815
X26983Y29515
X27433Y28815
X28683Y28015
X29533Y27865
X30383Y27765
X30683Y27065
X30033Y26915
X28733Y26915
X27383Y27615
X25083Y27915
X22533Y27015
X21733Y26715
X21733Y26265
X22633Y26265
X21433Y25465
X21483Y25015
X20883Y24415
X21333Y24315
X22383Y24265
X22733Y24965
X23933Y24965
X24883Y23865
X25133Y22765
X25283Y21165
X23283Y21365
X22433Y21365
X22433Y21815
X21933Y22065
X21483Y22015
X21383Y21315
X20983Y21265
X20233Y20965
X21033Y22765
X21433Y22815
X22433Y22815
X23133Y22815
X22383Y23415
X19883Y24515
X20683Y26265
X21183Y27015
X21583Y29215
X21383Y29765
X19783Y29415
X18683Y30315
X13933Y26415
X11983Y25765
X10683Y26415
X8983Y26365
X6083Y26815
X4383Y28415
X3933Y28415
X3233Y26915
X1183Y25415
X833Y23265
X533Y22865
X2133Y23265
X2633Y23065
X5933Y25065
X7183Y23965
X10433Y23915
X11683Y28315
X12183Y28315
X12183Y28715
X12283Y30515
X11883Y30515
X11483Y30515
X11083Y30565
X10683Y31165
X10683Y31515
X10683Y31865
X10683Y32215
X10183Y32215
X10183Y31865
X10183Y31515
X10183Y31165
X9683Y31165
X9683Y31515
X9683Y31865
X9683Y32215
X8533Y32215
X8533Y31865
X8533Y31515
X8533Y31165
X8683Y30515
X8683Y30065
X8683Y29565
X8683Y28965
X8133Y30515
X7633Y30515
X7283Y30515
X6883Y30515
X6433Y30515
X6083Y31165
X6083Y31515
X6083Y31865
X5683Y31865
X5683Y31515
X5683Y31165
X5283Y31165
X5283Y31515
X12183Y32515
X12533Y32515
X12533Y33065
X30366Y28915
X28083Y30215
X29583Y31365
X30133Y31765
X20733Y17115
X22183Y16915
X25933Y12265
X26333Y12315
X26983Y12365
X27283Y12115
X26983Y11815
X27433Y11115
X28683Y10315
X27383Y9915
X25083Y10215
X22533Y9315
X21733Y9015
X21733Y8565
X22633Y8565
X21433Y7765
X21483Y7315
X20883Y6715
X21333Y6615
X22383Y6565
X22733Y7265
X23933Y7265
X24883Y6165
X25133Y5065
X25283Y3465
X23283Y3665
X22433Y3665
X22433Y4115
X21933Y4365
X21483Y4315
X21383Y3615
X20983Y3565
X20233Y3265
X21033Y5065
X21433Y5115
X22433Y5115
X23133Y5115
X22383Y5715
X19883Y6815
X20683Y8565
X21183Y9315
X26993Y7775
X30366Y11215
X28083Y12515
X29583Y13665
X30133Y14065
X38383Y8565
X38883Y9315
X39433Y9015
X39433Y8565
X39133Y7765
X39183Y7315
X38583Y6715
X39033Y6615
X40083Y6565
X40433Y7265
X41633Y7265
X42583Y6165
X42833Y5065
X42983Y3465
X40983Y3665
X40133Y3665
X40133Y4115
X39633Y4365
X39183Y4315
X39083Y3615
X38683Y3565
X37933Y3265
X38733Y5065
X39133Y5115
X40133Y5115
X40833Y5115
X40083Y5715
X37583Y6815
X40333Y8565
X40233Y9315
X13933Y8715
T02
X33283Y33915
X30733Y32415
X25933Y32615
X25283Y32265
X24283Y32915
X24283Y33815
X23283Y33815
X22033Y33815
X21683Y32615
X21983Y29765
X18733Y29415
X25133Y28315
X25733Y27715
X26333Y28315
X25733Y28965
X30733Y28465
X32933Y27315
X28233Y24315
X27083Y23215
X25233Y24015
X24483Y24015
X24233Y22765
X24783Y21615
X24333Y21115
X25633Y21615
X26233Y21565
X26583Y21565
X28483Y21415
X31833Y23315
X5833Y23515
X6433Y23515
X8383Y23565
X7683Y25965
X8333Y26315
X6083Y26315
X5360Y25991
X4483Y28965
X6533Y32265
X7033Y32265
X7533Y32265
X8583Y33665
X9583Y33665
X10583Y33665
X50983Y16215
X48433Y14715
X43633Y14915
X42983Y14565
X41983Y15215
X41983Y16115
X40983Y16115
X39733Y16115
X39383Y14915
X39683Y12065
X36433Y11715
X32933Y9615
X30733Y10765
X26333Y10615
X25733Y10015
X25133Y10615
X25733Y11265
X21983Y12065
X18733Y11715
X21683Y14915
X22033Y16115
X23283Y16115
X24283Y16115
X24283Y15215
X25283Y14565
X25933Y14915
X30733Y14715
X33283Y16215
X42833Y10615
X43433Y10015
X44033Y10615
X43433Y11265
X48433Y10765
X50633Y9615
X45933Y6615
X44783Y5515
X42933Y6315
X42183Y6315
X41933Y5065
X42483Y3915
X42033Y3415
X43333Y3915
X43933Y3865
X44283Y3865
X46183Y3715
X49533Y5615
X36033Y5415
X31833Y5615
X28233Y6615
X27083Y5515
X25233Y6315
X24483Y6315
X24233Y5065
X24783Y3915
X24333Y3415
X25633Y3915
X26233Y3865
X26583Y3865
X28483Y3715
X18333Y5415
X8383Y5865
X6433Y5815
X5833Y5815
X7683Y8265
X8333Y8615
X6083Y8615
X5360Y8291
X4483Y11265
X6533Y14565
X7033Y14565
X7533Y14565
X8583Y15965
X9583Y15965
X10583Y15965
X9183Y11215
X4233Y15265
X3533Y15515
X3183Y15765
X18333Y23115
X9183Y28915
X4233Y32965
X3533Y33215
X3183Y33465
T03
X5883Y6715
X25583Y5765
X29333Y7965
X43283Y5765
X47033Y7965
X25583Y23465
X29333Y25665
X5883Y24415
T04
X25733Y28315
X12333Y6865
X25733Y10615
X43433Y10615
X12333Y24565
T05
X38983Y34915
X38983Y33915
X39983Y33915
X39983Y34915
X40983Y34915
X40983Y33915
X41983Y33915
X41983Y34915
X42983Y34915
X42983Y33915
X43983Y33915
X43983Y34915
X44983Y34915
X45983Y34915
X45983Y33915
X44983Y33915
X44983Y32915
X45983Y32915
X45983Y31915
X44983Y31915
X43983Y31915
X42983Y31915
X41983Y31915
X40983Y31915
X39983Y31915
X38983Y31915
X37983Y31915
X36983Y31915
X36983Y32915
X37983Y32915
X38983Y32915
X39983Y32915
X40983Y32915
X41983Y32915
X42983Y32915
X43983Y32915
X43983Y30915
X42983Y30915
X41983Y30915
X40983Y30915
X39983Y30915
X38983Y30915
X37983Y30915
X36983Y30915
X36983Y29915
X36983Y28915
X37983Y28915
X38983Y28915
X38983Y29915
X37983Y29915
X39983Y29915
X39983Y28915
X40983Y28915
X40983Y29915
X41983Y29915
X41983Y28915
X42983Y28915
X42983Y29915
X43983Y29915
X43983Y28915
X44983Y28915
X45983Y28915
X45983Y29915
X44983Y29915
X44983Y30915
X45983Y30915
X46983Y30915
X47983Y30915
X48983Y30915
X49983Y30915
X49983Y29915
X48983Y29915
X47983Y29915
X46983Y29915
X46983Y28915
X47983Y28915
X48983Y28915
X49983Y28915
X49983Y27915
X48983Y27915
X47983Y27915
X46983Y27915
X45983Y27915
X44983Y27915
X43983Y27915
X42983Y27915
X41983Y27915
X40983Y27915
X39983Y27915
X38983Y27915
X37983Y27915
X36983Y27915
X36983Y26915
X37983Y26915
X38983Y26915
X39983Y26915
X40983Y26915
X41983Y26915
X42983Y26915
X43983Y26915
X44983Y26915
X45983Y26915
X46983Y26915
X47983Y26915
X48983Y26915
X49983Y26915
X49983Y25915
X48983Y25915
X47983Y25915
X46983Y25915
X45983Y25915
X44983Y25915
X43983Y25915
X42983Y25915
X41983Y25915
X40983Y25915
X39983Y25915
X38983Y25915
X37983Y25915
X36983Y25915
X36983Y24915
X37983Y24915
X38983Y24915
X39983Y24915
X40983Y24915
X41983Y24915
X42983Y24915
X43983Y24915
X44983Y24915
X45983Y24915
X46983Y24915
X47983Y24915
X48983Y24915
X49983Y24915
X49983Y23915
X48983Y23915
X47983Y23915
X46983Y23915
X45983Y23915
X44983Y23915
X43983Y23915
X42983Y23915
X41983Y23915
X40983Y23915
X39983Y23915
X38983Y23915
X37983Y23915
X36983Y23915
X38983Y22915
X39983Y22915
X40983Y22915
X41983Y22915
X42983Y22915
X43983Y22915
X44983Y22915
X45983Y22915
X46983Y22915
X47983Y22915
X47983Y21915
X46983Y21915
X45983Y21915
X44983Y21915
X43983Y21915
X42983Y21915
X41983Y21915
X40983Y21915
X39983Y21915
X38983Y21915
X1583Y23915
X2583Y23915
X3483Y23915
X4483Y23915
X4483Y24915
X3483Y24915
X2583Y24915
X1583Y24915
X1583Y25915
X2583Y25915
X3483Y25915
X4483Y25915
X2583Y26915
X1583Y26915
X1583Y27915
X2583Y27915
X2583Y28915
X1583Y28915
X1583Y29915
X2583Y29915
X2583Y30915
X1583Y30915
X1583Y31915
X1583Y32915
X2583Y32915
X2583Y31915
X3583Y34915
X4583Y34915
X5583Y34915
X6583Y34915
X7583Y34915
X8583Y34915
X9583Y34915
X10583Y34915
X11583Y34915
X12583Y34915
X13583Y32915
X14583Y32915
X15483Y32915
X15483Y31915
X14583Y31915
X13583Y31915
X13583Y30915
X14583Y30915
X15483Y30915
X15483Y29915
X14583Y29915
X13583Y29915
X13583Y28915
X14583Y28915
X15483Y28915
X15483Y27915
X14583Y27915
X13583Y27915
X13583Y26915
X14583Y26915
X15483Y26915
X15483Y25915
X14583Y25915
X13583Y25915
X13583Y24915
X14583Y24915
X15483Y24915
X14583Y23915
X13583Y23915
X12833Y21215
X11833Y21215
X11583Y17215
X10583Y17215
X9583Y17215
X8583Y17215
X7583Y17215
X6583Y17215
X5583Y17215
X4583Y17215
X3583Y17215
X2583Y15215
X1583Y15215
X1583Y14215
X2583Y14215
X2583Y13215
X1583Y13215
X1583Y12215
X2583Y12215
X2583Y11215
X1583Y11215
X1583Y10215
X1583Y9215
X2583Y9215
X2583Y10215
X2583Y8215
X3483Y8215
X3483Y7215
X2583Y7215
X1583Y7215
X1583Y8215
X1583Y6215
X2583Y6215
X3483Y6215
X4483Y6215
X4483Y7215
X4483Y8215
X11833Y3515
X12833Y3515
X13583Y6215
X14583Y6215
X14583Y7215
X13583Y7215
X13583Y8215
X14583Y8215
X15483Y8215
X15483Y7215
X15483Y9215
X14583Y9215
X13583Y9215
X13583Y10215
X14583Y10215
X15483Y10215
X15483Y11215
X14583Y11215
X13583Y11215
X13583Y12215
X14583Y12215
X15483Y12215
X15483Y13215
X14583Y13215
X13583Y13215
X13583Y14215
X14583Y14215
X15483Y14215
X15483Y15215
X14583Y15215
X13583Y15215
X12583Y17215
X48233Y3515
X47233Y3515
X48983Y6215
X49983Y6215
X49983Y7215
X48983Y7215
X48983Y8215
X49983Y8215
X49983Y9215
X48983Y9215
X48983Y10215
X49983Y10215
X49983Y11215
X48983Y11215
X48983Y12215
X48983Y13215
X49983Y13215
X49983Y12215
X49983Y14215
X48983Y14215
X48983Y15215
X49983Y15215
X37983Y15215
X36983Y15215
X36983Y14215
X37983Y14215
X37983Y13215
X36983Y13215
X36983Y12215
X37983Y12215
X37983Y11215
X36983Y11215
X36983Y10215
X35983Y10215
X35983Y9215
X36983Y9215
X37983Y9215
X37983Y10215
X37983Y8215
X36983Y8215
X35983Y8215
X35983Y7215
X36983Y7215
X37983Y7215
X37983Y6215
X36983Y6215
X35983Y6215
X32283Y6215
X31283Y6215
X31283Y7215
X31283Y8215
X32283Y8215
X32283Y7215
X32283Y9215
X31283Y9215
X31283Y10215
X32283Y10215
X32283Y11215
X31283Y11215
X31283Y12215
X31283Y13215
X32283Y13215
X32283Y12215
X32283Y14215
X31283Y14215
X31283Y15215
X32283Y15215
X30533Y21215
X29533Y21215
X31283Y23915
X32283Y23915
X32283Y24915
X31283Y24915
X31283Y25915
X32283Y25915
X32283Y26915
X31283Y26915
X31283Y27915
X32283Y27915
X32283Y28915
X31283Y28915
X31283Y29915
X32283Y29915
X32283Y30915
X31283Y30915
X31283Y31915
X31283Y32915
X32283Y32915
X32283Y31915
X20283Y31915
X19283Y31915
X19283Y32915
X20283Y32915
X20283Y30915
X19283Y30915
X19283Y29915
X19283Y28915
X20283Y28915
X20283Y29915
X20283Y27915
X19283Y27915
X18283Y27915
X18283Y26915
X19283Y26915
X20283Y26915
X20283Y25915
X19283Y25915
X18283Y25915
X18283Y24915
X19283Y24915
X20283Y24915
X20283Y23915
X19283Y23915
X18283Y23915
X19283Y15215
X19283Y14215
X20283Y14215
X20283Y15215
X20283Y13215
X19283Y13215
X19283Y12215
X20283Y12215
X20283Y11215
X19283Y11215
X19283Y10215
X18283Y10215
X18283Y9215
X19283Y9215
X20283Y9215
X20283Y10215
X20283Y8215
X19283Y8215
X18283Y8215
X18283Y7215
X19283Y7215
X20283Y7215
X20283Y6215
X19283Y6215
X18283Y6215
X29533Y3515
X30533Y3515
X46983Y31915
X46983Y32915
X47983Y32915
X47983Y31915
X48983Y31915
X48983Y32915
X49983Y32915
X49983Y31915
X47983Y33915
X46983Y33915
X46983Y34915
X47983Y34915
T06
X3383Y4215
X4383Y4215
X7783Y4215
X8783Y4215
X9783Y4215
X10783Y4215
X10783Y21915
X9783Y21915
X8783Y21915
X7783Y21915
X4383Y21915
X3383Y21915
T07
X32283Y21915
X49983Y21915
X36983Y34915
X32283Y34915
X19283Y34915
X1583Y21915
X14583Y17215
X32283Y4215
X1583Y4215
X14583Y4215
X19283Y4215
X49983Y4215
X36983Y4215
X36983Y17215
X32283Y17215
X36983Y21915
X49983Y17215
X49983Y34915
X1583Y34915
X14583Y34915
X14583Y21915
X19283Y21915
X19283Y17215
X1583Y17215
T08
X49364Y37645
X2203Y1489
X3699Y1489
X49364Y1489
X2203Y37645
X3699Y37645
M30
