G75*
%MOIN*%
%OFA0B0*%
%FSLAX24Y24*%
%IPPOS*%
%LPD*%
%AMOC8*
5,1,8,0,0,1.08239X$1,22.5*
%
%ADD10C,0.0010*%
%ADD11C,0.0000*%
%ADD12C,0.1655*%
%ADD13R,0.1181X0.1181*%
%ADD14R,0.0720X0.0720*%
%ADD15OC8,0.0720*%
%ADD16C,0.2180*%
%ADD17C,0.0820*%
%ADD18R,0.0395X0.0552*%
%ADD19R,0.0867X0.1064*%
%ADD20R,0.0394X0.0551*%
%ADD21C,0.0395*%
%ADD22C,0.0197*%
%ADD23C,0.0792*%
%ADD24C,0.0720*%
%ADD25C,0.0720*%
%ADD26C,0.0480*%
%ADD27C,0.0560*%
%ADD28C,0.0880*%
D10*
X000233Y000105D02*
X000233Y002865D01*
X035633Y002865D01*
X035633Y018565D01*
X035633Y020565D01*
X033633Y020565D01*
X033633Y018565D01*
X035633Y018565D01*
X051333Y018565D01*
X051333Y020565D01*
X051333Y036265D01*
X035633Y036265D01*
X035633Y020565D01*
X051333Y020565D01*
X051333Y018565D02*
X051333Y002865D01*
X051333Y000105D01*
X000233Y000105D01*
X000233Y002865D02*
X000233Y018565D01*
X015933Y018565D01*
X015933Y020565D01*
X000233Y020565D01*
X000233Y018565D01*
X000233Y020565D02*
X000233Y036265D01*
X000233Y039025D01*
X000233Y036265D02*
X000233Y036265D01*
X015933Y036265D01*
X035633Y036265D01*
X033633Y036265D02*
X033633Y020565D01*
X017933Y020565D01*
X017933Y018575D01*
X017933Y018565D02*
X015933Y018565D01*
X015933Y002865D01*
X000233Y002865D01*
X017933Y002865D02*
X017933Y018565D01*
X033633Y018565D01*
X033633Y002865D01*
X017933Y002865D01*
X035633Y002865D02*
X051333Y002865D01*
X017933Y020565D02*
X015933Y020565D01*
X015933Y036265D01*
X017933Y036265D02*
X033633Y036265D01*
X017933Y036265D02*
X017933Y020565D01*
X051333Y036265D02*
X051333Y039025D01*
D11*
X000233Y039025D01*
X001416Y037645D02*
X001418Y037701D01*
X001424Y037756D01*
X001434Y037810D01*
X001447Y037864D01*
X001465Y037917D01*
X001486Y037968D01*
X001510Y038018D01*
X001538Y038066D01*
X001570Y038112D01*
X001604Y038156D01*
X001642Y038197D01*
X001682Y038235D01*
X001725Y038270D01*
X001770Y038302D01*
X001818Y038331D01*
X001867Y038357D01*
X001918Y038379D01*
X001970Y038397D01*
X002024Y038411D01*
X002079Y038422D01*
X002134Y038429D01*
X002189Y038432D01*
X002245Y038431D01*
X002300Y038426D01*
X002355Y038417D01*
X002409Y038405D01*
X002462Y038388D01*
X002514Y038368D01*
X002564Y038344D01*
X002612Y038317D01*
X002659Y038287D01*
X002703Y038253D01*
X002745Y038216D01*
X002783Y038176D01*
X002820Y038134D01*
X002853Y038089D01*
X002882Y038043D01*
X002909Y037994D01*
X002931Y037943D01*
X002951Y037891D01*
X002966Y037837D01*
X002978Y037783D01*
X002986Y037728D01*
X002990Y037673D01*
X002990Y037617D01*
X002986Y037562D01*
X002978Y037507D01*
X002966Y037453D01*
X002951Y037399D01*
X002931Y037347D01*
X002909Y037296D01*
X002882Y037247D01*
X002853Y037201D01*
X002820Y037156D01*
X002783Y037114D01*
X002745Y037074D01*
X002703Y037037D01*
X002659Y037003D01*
X002612Y036973D01*
X002564Y036946D01*
X002514Y036922D01*
X002462Y036902D01*
X002409Y036885D01*
X002355Y036873D01*
X002300Y036864D01*
X002245Y036859D01*
X002189Y036858D01*
X002134Y036861D01*
X002079Y036868D01*
X002024Y036879D01*
X001970Y036893D01*
X001918Y036911D01*
X001867Y036933D01*
X001818Y036959D01*
X001770Y036988D01*
X001725Y037020D01*
X001682Y037055D01*
X001642Y037093D01*
X001604Y037134D01*
X001570Y037178D01*
X001538Y037224D01*
X001510Y037272D01*
X001486Y037322D01*
X001465Y037373D01*
X001447Y037426D01*
X001434Y037480D01*
X001424Y037534D01*
X001418Y037589D01*
X001416Y037645D01*
X002912Y037645D02*
X002914Y037701D01*
X002920Y037756D01*
X002930Y037810D01*
X002943Y037864D01*
X002961Y037917D01*
X002982Y037968D01*
X003006Y038018D01*
X003034Y038066D01*
X003066Y038112D01*
X003100Y038156D01*
X003138Y038197D01*
X003178Y038235D01*
X003221Y038270D01*
X003266Y038302D01*
X003314Y038331D01*
X003363Y038357D01*
X003414Y038379D01*
X003466Y038397D01*
X003520Y038411D01*
X003575Y038422D01*
X003630Y038429D01*
X003685Y038432D01*
X003741Y038431D01*
X003796Y038426D01*
X003851Y038417D01*
X003905Y038405D01*
X003958Y038388D01*
X004010Y038368D01*
X004060Y038344D01*
X004108Y038317D01*
X004155Y038287D01*
X004199Y038253D01*
X004241Y038216D01*
X004279Y038176D01*
X004316Y038134D01*
X004349Y038089D01*
X004378Y038043D01*
X004405Y037994D01*
X004427Y037943D01*
X004447Y037891D01*
X004462Y037837D01*
X004474Y037783D01*
X004482Y037728D01*
X004486Y037673D01*
X004486Y037617D01*
X004482Y037562D01*
X004474Y037507D01*
X004462Y037453D01*
X004447Y037399D01*
X004427Y037347D01*
X004405Y037296D01*
X004378Y037247D01*
X004349Y037201D01*
X004316Y037156D01*
X004279Y037114D01*
X004241Y037074D01*
X004199Y037037D01*
X004155Y037003D01*
X004108Y036973D01*
X004060Y036946D01*
X004010Y036922D01*
X003958Y036902D01*
X003905Y036885D01*
X003851Y036873D01*
X003796Y036864D01*
X003741Y036859D01*
X003685Y036858D01*
X003630Y036861D01*
X003575Y036868D01*
X003520Y036879D01*
X003466Y036893D01*
X003414Y036911D01*
X003363Y036933D01*
X003314Y036959D01*
X003266Y036988D01*
X003221Y037020D01*
X003178Y037055D01*
X003138Y037093D01*
X003100Y037134D01*
X003066Y037178D01*
X003034Y037224D01*
X003006Y037272D01*
X002982Y037322D01*
X002961Y037373D01*
X002943Y037426D01*
X002930Y037480D01*
X002920Y037534D01*
X002914Y037589D01*
X002912Y037645D01*
X048577Y037645D02*
X048579Y037701D01*
X048585Y037756D01*
X048595Y037810D01*
X048608Y037864D01*
X048626Y037917D01*
X048647Y037968D01*
X048671Y038018D01*
X048699Y038066D01*
X048731Y038112D01*
X048765Y038156D01*
X048803Y038197D01*
X048843Y038235D01*
X048886Y038270D01*
X048931Y038302D01*
X048979Y038331D01*
X049028Y038357D01*
X049079Y038379D01*
X049131Y038397D01*
X049185Y038411D01*
X049240Y038422D01*
X049295Y038429D01*
X049350Y038432D01*
X049406Y038431D01*
X049461Y038426D01*
X049516Y038417D01*
X049570Y038405D01*
X049623Y038388D01*
X049675Y038368D01*
X049725Y038344D01*
X049773Y038317D01*
X049820Y038287D01*
X049864Y038253D01*
X049906Y038216D01*
X049944Y038176D01*
X049981Y038134D01*
X050014Y038089D01*
X050043Y038043D01*
X050070Y037994D01*
X050092Y037943D01*
X050112Y037891D01*
X050127Y037837D01*
X050139Y037783D01*
X050147Y037728D01*
X050151Y037673D01*
X050151Y037617D01*
X050147Y037562D01*
X050139Y037507D01*
X050127Y037453D01*
X050112Y037399D01*
X050092Y037347D01*
X050070Y037296D01*
X050043Y037247D01*
X050014Y037201D01*
X049981Y037156D01*
X049944Y037114D01*
X049906Y037074D01*
X049864Y037037D01*
X049820Y037003D01*
X049773Y036973D01*
X049725Y036946D01*
X049675Y036922D01*
X049623Y036902D01*
X049570Y036885D01*
X049516Y036873D01*
X049461Y036864D01*
X049406Y036859D01*
X049350Y036858D01*
X049295Y036861D01*
X049240Y036868D01*
X049185Y036879D01*
X049131Y036893D01*
X049079Y036911D01*
X049028Y036933D01*
X048979Y036959D01*
X048931Y036988D01*
X048886Y037020D01*
X048843Y037055D01*
X048803Y037093D01*
X048765Y037134D01*
X048731Y037178D01*
X048699Y037224D01*
X048671Y037272D01*
X048647Y037322D01*
X048626Y037373D01*
X048608Y037426D01*
X048595Y037480D01*
X048585Y037534D01*
X048579Y037589D01*
X048577Y037645D01*
X048577Y001489D02*
X048579Y001545D01*
X048585Y001600D01*
X048595Y001654D01*
X048608Y001708D01*
X048626Y001761D01*
X048647Y001812D01*
X048671Y001862D01*
X048699Y001910D01*
X048731Y001956D01*
X048765Y002000D01*
X048803Y002041D01*
X048843Y002079D01*
X048886Y002114D01*
X048931Y002146D01*
X048979Y002175D01*
X049028Y002201D01*
X049079Y002223D01*
X049131Y002241D01*
X049185Y002255D01*
X049240Y002266D01*
X049295Y002273D01*
X049350Y002276D01*
X049406Y002275D01*
X049461Y002270D01*
X049516Y002261D01*
X049570Y002249D01*
X049623Y002232D01*
X049675Y002212D01*
X049725Y002188D01*
X049773Y002161D01*
X049820Y002131D01*
X049864Y002097D01*
X049906Y002060D01*
X049944Y002020D01*
X049981Y001978D01*
X050014Y001933D01*
X050043Y001887D01*
X050070Y001838D01*
X050092Y001787D01*
X050112Y001735D01*
X050127Y001681D01*
X050139Y001627D01*
X050147Y001572D01*
X050151Y001517D01*
X050151Y001461D01*
X050147Y001406D01*
X050139Y001351D01*
X050127Y001297D01*
X050112Y001243D01*
X050092Y001191D01*
X050070Y001140D01*
X050043Y001091D01*
X050014Y001045D01*
X049981Y001000D01*
X049944Y000958D01*
X049906Y000918D01*
X049864Y000881D01*
X049820Y000847D01*
X049773Y000817D01*
X049725Y000790D01*
X049675Y000766D01*
X049623Y000746D01*
X049570Y000729D01*
X049516Y000717D01*
X049461Y000708D01*
X049406Y000703D01*
X049350Y000702D01*
X049295Y000705D01*
X049240Y000712D01*
X049185Y000723D01*
X049131Y000737D01*
X049079Y000755D01*
X049028Y000777D01*
X048979Y000803D01*
X048931Y000832D01*
X048886Y000864D01*
X048843Y000899D01*
X048803Y000937D01*
X048765Y000978D01*
X048731Y001022D01*
X048699Y001068D01*
X048671Y001116D01*
X048647Y001166D01*
X048626Y001217D01*
X048608Y001270D01*
X048595Y001324D01*
X048585Y001378D01*
X048579Y001433D01*
X048577Y001489D01*
X002912Y001489D02*
X002914Y001545D01*
X002920Y001600D01*
X002930Y001654D01*
X002943Y001708D01*
X002961Y001761D01*
X002982Y001812D01*
X003006Y001862D01*
X003034Y001910D01*
X003066Y001956D01*
X003100Y002000D01*
X003138Y002041D01*
X003178Y002079D01*
X003221Y002114D01*
X003266Y002146D01*
X003314Y002175D01*
X003363Y002201D01*
X003414Y002223D01*
X003466Y002241D01*
X003520Y002255D01*
X003575Y002266D01*
X003630Y002273D01*
X003685Y002276D01*
X003741Y002275D01*
X003796Y002270D01*
X003851Y002261D01*
X003905Y002249D01*
X003958Y002232D01*
X004010Y002212D01*
X004060Y002188D01*
X004108Y002161D01*
X004155Y002131D01*
X004199Y002097D01*
X004241Y002060D01*
X004279Y002020D01*
X004316Y001978D01*
X004349Y001933D01*
X004378Y001887D01*
X004405Y001838D01*
X004427Y001787D01*
X004447Y001735D01*
X004462Y001681D01*
X004474Y001627D01*
X004482Y001572D01*
X004486Y001517D01*
X004486Y001461D01*
X004482Y001406D01*
X004474Y001351D01*
X004462Y001297D01*
X004447Y001243D01*
X004427Y001191D01*
X004405Y001140D01*
X004378Y001091D01*
X004349Y001045D01*
X004316Y001000D01*
X004279Y000958D01*
X004241Y000918D01*
X004199Y000881D01*
X004155Y000847D01*
X004108Y000817D01*
X004060Y000790D01*
X004010Y000766D01*
X003958Y000746D01*
X003905Y000729D01*
X003851Y000717D01*
X003796Y000708D01*
X003741Y000703D01*
X003685Y000702D01*
X003630Y000705D01*
X003575Y000712D01*
X003520Y000723D01*
X003466Y000737D01*
X003414Y000755D01*
X003363Y000777D01*
X003314Y000803D01*
X003266Y000832D01*
X003221Y000864D01*
X003178Y000899D01*
X003138Y000937D01*
X003100Y000978D01*
X003066Y001022D01*
X003034Y001068D01*
X003006Y001116D01*
X002982Y001166D01*
X002961Y001217D01*
X002943Y001270D01*
X002930Y001324D01*
X002920Y001378D01*
X002914Y001433D01*
X002912Y001489D01*
X001416Y001489D02*
X001418Y001545D01*
X001424Y001600D01*
X001434Y001654D01*
X001447Y001708D01*
X001465Y001761D01*
X001486Y001812D01*
X001510Y001862D01*
X001538Y001910D01*
X001570Y001956D01*
X001604Y002000D01*
X001642Y002041D01*
X001682Y002079D01*
X001725Y002114D01*
X001770Y002146D01*
X001818Y002175D01*
X001867Y002201D01*
X001918Y002223D01*
X001970Y002241D01*
X002024Y002255D01*
X002079Y002266D01*
X002134Y002273D01*
X002189Y002276D01*
X002245Y002275D01*
X002300Y002270D01*
X002355Y002261D01*
X002409Y002249D01*
X002462Y002232D01*
X002514Y002212D01*
X002564Y002188D01*
X002612Y002161D01*
X002659Y002131D01*
X002703Y002097D01*
X002745Y002060D01*
X002783Y002020D01*
X002820Y001978D01*
X002853Y001933D01*
X002882Y001887D01*
X002909Y001838D01*
X002931Y001787D01*
X002951Y001735D01*
X002966Y001681D01*
X002978Y001627D01*
X002986Y001572D01*
X002990Y001517D01*
X002990Y001461D01*
X002986Y001406D01*
X002978Y001351D01*
X002966Y001297D01*
X002951Y001243D01*
X002931Y001191D01*
X002909Y001140D01*
X002882Y001091D01*
X002853Y001045D01*
X002820Y001000D01*
X002783Y000958D01*
X002745Y000918D01*
X002703Y000881D01*
X002659Y000847D01*
X002612Y000817D01*
X002564Y000790D01*
X002514Y000766D01*
X002462Y000746D01*
X002409Y000729D01*
X002355Y000717D01*
X002300Y000708D01*
X002245Y000703D01*
X002189Y000702D01*
X002134Y000705D01*
X002079Y000712D01*
X002024Y000723D01*
X001970Y000737D01*
X001918Y000755D01*
X001867Y000777D01*
X001818Y000803D01*
X001770Y000832D01*
X001725Y000864D01*
X001682Y000899D01*
X001642Y000937D01*
X001604Y000978D01*
X001570Y001022D01*
X001538Y001068D01*
X001510Y001116D01*
X001486Y001166D01*
X001465Y001217D01*
X001447Y001270D01*
X001434Y001324D01*
X001424Y001378D01*
X001418Y001433D01*
X001416Y001489D01*
D12*
X002203Y001489D03*
X003699Y001489D03*
X049364Y001489D03*
X049364Y037645D03*
X003699Y037645D03*
X002203Y037645D03*
D13*
X045430Y037643D03*
X047398Y037643D03*
X008895Y001487D03*
X006926Y001487D03*
D14*
X018283Y010215D03*
X035983Y010215D03*
X018283Y027915D03*
D15*
X018283Y026915D03*
X019283Y026915D03*
X019283Y027915D03*
X020283Y027915D03*
X020283Y026915D03*
X020283Y025915D03*
X019283Y025915D03*
X018283Y025915D03*
X018283Y024915D03*
X019283Y024915D03*
X020283Y024915D03*
X020283Y023915D03*
X019283Y023915D03*
X018283Y023915D03*
X014583Y023915D03*
X013583Y023915D03*
X013583Y024915D03*
X014583Y024915D03*
X014583Y025915D03*
X013583Y025915D03*
X013583Y026915D03*
X014583Y026915D03*
X014583Y027915D03*
X013583Y027915D03*
X013583Y028915D03*
X014583Y028915D03*
X014583Y029915D03*
X013583Y029915D03*
X013583Y030915D03*
X014583Y030915D03*
X014583Y031915D03*
X013583Y031915D03*
X013583Y032915D03*
X014583Y032915D03*
X019283Y032915D03*
X019283Y031915D03*
X020283Y031915D03*
X020283Y032915D03*
X020283Y030915D03*
X019283Y030915D03*
X019283Y029915D03*
X019283Y028915D03*
X020283Y028915D03*
X020283Y029915D03*
X031283Y029915D03*
X031283Y028915D03*
X032283Y028915D03*
X032283Y029915D03*
X032283Y030915D03*
X031283Y030915D03*
X031283Y031915D03*
X031283Y032915D03*
X032283Y032915D03*
X032283Y031915D03*
X036983Y031915D03*
X036983Y032915D03*
X037983Y032915D03*
X037983Y031915D03*
X037983Y030915D03*
X036983Y030915D03*
X036983Y029915D03*
X036983Y028915D03*
X037983Y028915D03*
X037983Y029915D03*
X037983Y027915D03*
X036983Y027915D03*
X036983Y026915D03*
X037983Y026915D03*
X037983Y025915D03*
X036983Y025915D03*
X036983Y024915D03*
X037983Y024915D03*
X037983Y023915D03*
X036983Y023915D03*
X032283Y023915D03*
X031283Y023915D03*
X031283Y024915D03*
X031283Y025915D03*
X032283Y025915D03*
X032283Y024915D03*
X032283Y026915D03*
X031283Y026915D03*
X031283Y027915D03*
X032283Y027915D03*
X048983Y027915D03*
X048983Y026915D03*
X049983Y026915D03*
X049983Y027915D03*
X049983Y028915D03*
X048983Y028915D03*
X048983Y029915D03*
X049983Y029915D03*
X049983Y030915D03*
X048983Y030915D03*
X048983Y031915D03*
X048983Y032915D03*
X049983Y032915D03*
X049983Y031915D03*
X049983Y025915D03*
X048983Y025915D03*
X048983Y024915D03*
X049983Y024915D03*
X049983Y023915D03*
X048983Y023915D03*
X048983Y015215D03*
X048983Y014215D03*
X049983Y014215D03*
X049983Y015215D03*
X049983Y013215D03*
X048983Y013215D03*
X048983Y012215D03*
X049983Y012215D03*
X049983Y011215D03*
X048983Y011215D03*
X048983Y010215D03*
X048983Y009215D03*
X049983Y009215D03*
X049983Y010215D03*
X049983Y008215D03*
X048983Y008215D03*
X048983Y007215D03*
X049983Y007215D03*
X049983Y006215D03*
X048983Y006215D03*
X037983Y006215D03*
X036983Y006215D03*
X035983Y006215D03*
X035983Y007215D03*
X035983Y008215D03*
X036983Y008215D03*
X036983Y007215D03*
X037983Y007215D03*
X037983Y008215D03*
X037983Y009215D03*
X036983Y009215D03*
X035983Y009215D03*
X036983Y010215D03*
X037983Y010215D03*
X037983Y011215D03*
X036983Y011215D03*
X036983Y012215D03*
X036983Y013215D03*
X037983Y013215D03*
X037983Y012215D03*
X037983Y014215D03*
X036983Y014215D03*
X036983Y015215D03*
X037983Y015215D03*
X032283Y015215D03*
X031283Y015215D03*
X031283Y014215D03*
X032283Y014215D03*
X032283Y013215D03*
X031283Y013215D03*
X031283Y012215D03*
X032283Y012215D03*
X032283Y011215D03*
X031283Y011215D03*
X031283Y010215D03*
X031283Y009215D03*
X032283Y009215D03*
X032283Y010215D03*
X032283Y008215D03*
X031283Y008215D03*
X031283Y007215D03*
X032283Y007215D03*
X032283Y006215D03*
X031283Y006215D03*
X020283Y006215D03*
X019283Y006215D03*
X018283Y006215D03*
X018283Y007215D03*
X018283Y008215D03*
X019283Y008215D03*
X019283Y007215D03*
X020283Y007215D03*
X020283Y008215D03*
X020283Y009215D03*
X019283Y009215D03*
X018283Y009215D03*
X019283Y010215D03*
X020283Y010215D03*
X020283Y011215D03*
X019283Y011215D03*
X019283Y012215D03*
X019283Y013215D03*
X020283Y013215D03*
X020283Y012215D03*
X020283Y014215D03*
X019283Y014215D03*
X019283Y015215D03*
X020283Y015215D03*
X014583Y015215D03*
X013583Y015215D03*
X013583Y014215D03*
X014583Y014215D03*
X014583Y013215D03*
X013583Y013215D03*
X013583Y012215D03*
X014583Y012215D03*
X014583Y011215D03*
X013583Y011215D03*
X013583Y010215D03*
X014583Y010215D03*
X014583Y009215D03*
X013583Y009215D03*
X013583Y008215D03*
X014583Y008215D03*
X014583Y007215D03*
X013583Y007215D03*
X013583Y006215D03*
X014583Y006215D03*
X004483Y006215D03*
X003483Y006215D03*
X002583Y006215D03*
X001583Y006215D03*
X001583Y007215D03*
X001583Y008215D03*
X002583Y008215D03*
X002583Y007215D03*
X003483Y007215D03*
X004483Y007215D03*
X004483Y008215D03*
X002583Y009215D03*
X001583Y009215D03*
X001583Y010215D03*
X002583Y010215D03*
X002583Y011215D03*
X001583Y011215D03*
X001583Y012215D03*
X001583Y013215D03*
X002583Y013215D03*
X002583Y012215D03*
X002583Y014215D03*
X001583Y014215D03*
X001583Y015215D03*
X002583Y015215D03*
X002583Y023915D03*
X003483Y023915D03*
X004483Y023915D03*
X004483Y024915D03*
X003483Y024915D03*
X002583Y024915D03*
X001583Y024915D03*
X001583Y025915D03*
X002583Y025915D03*
X002583Y026915D03*
X001583Y026915D03*
X001583Y027915D03*
X002583Y027915D03*
X002583Y028915D03*
X001583Y028915D03*
X001583Y029915D03*
X002583Y029915D03*
X002583Y030915D03*
X001583Y030915D03*
X001583Y031915D03*
X001583Y032915D03*
X002583Y032915D03*
X002583Y031915D03*
X004483Y025915D03*
X001583Y023915D03*
D16*
X001583Y021915D03*
X001583Y017215D03*
X014583Y017215D03*
X019283Y017215D03*
X019283Y021915D03*
X014583Y021915D03*
X014583Y034915D03*
X019283Y034915D03*
X032283Y034915D03*
X036983Y034915D03*
X049983Y034915D03*
X049983Y021915D03*
X049983Y017215D03*
X036983Y017215D03*
X032283Y017215D03*
X032283Y021915D03*
X036983Y021915D03*
X036983Y004215D03*
X032283Y004215D03*
X019283Y004215D03*
X014583Y004215D03*
X001583Y004215D03*
X001583Y034915D03*
X049983Y004215D03*
D17*
X048233Y003515D03*
X047233Y003515D03*
X030533Y003515D03*
X029533Y003515D03*
X015483Y007215D03*
X015483Y008215D03*
X015483Y009215D03*
X015483Y010215D03*
X015483Y011215D03*
X015483Y012215D03*
X015483Y013215D03*
X015483Y014215D03*
X015483Y015215D03*
X012833Y021215D03*
X011833Y021215D03*
X015483Y024915D03*
X015483Y025915D03*
X015483Y026915D03*
X015483Y027915D03*
X015483Y028915D03*
X015483Y029915D03*
X015483Y030915D03*
X015483Y031915D03*
X015483Y032915D03*
X029533Y021215D03*
X030533Y021215D03*
X012833Y003515D03*
X011833Y003515D03*
D18*
X025693Y004635D03*
X026874Y004635D03*
X026943Y014985D03*
X028124Y014985D03*
X026874Y022335D03*
X025693Y022335D03*
X026943Y032685D03*
X028124Y032685D03*
X044643Y014985D03*
X045824Y014985D03*
X044574Y004635D03*
X043393Y004635D03*
D19*
X043983Y005757D03*
X045233Y016107D03*
X027533Y016107D03*
X026283Y023457D03*
X027533Y033807D03*
X026283Y005757D03*
D20*
X026283Y004635D03*
X027533Y014985D03*
X026283Y022335D03*
X027533Y032685D03*
X045233Y014985D03*
X043983Y004635D03*
D21*
X040533Y005115D02*
X040533Y005115D01*
X040473Y005115D01*
X040473Y005115D01*
X040533Y005115D01*
X040103Y004735D02*
X040103Y004735D01*
X040163Y004735D01*
X040163Y004735D01*
X040103Y004735D01*
X039733Y005115D02*
X039733Y005115D01*
X039793Y005115D01*
X039793Y005115D01*
X039733Y005115D01*
X040053Y006185D02*
X040053Y006185D01*
X040113Y006185D01*
X040113Y006185D01*
X040053Y006185D01*
X039683Y006565D02*
X039683Y006565D01*
X039743Y006565D01*
X039743Y006565D01*
X039683Y006565D01*
X040483Y006565D02*
X040483Y006565D01*
X040423Y006565D01*
X040423Y006565D01*
X040483Y006565D01*
X039403Y008185D02*
X039403Y008185D01*
X039463Y008185D01*
X039463Y008185D01*
X039403Y008185D01*
X039033Y008565D02*
X039033Y008565D01*
X039093Y008565D01*
X039093Y008565D01*
X039033Y008565D01*
X039833Y008565D02*
X039833Y008565D01*
X039773Y008565D01*
X039773Y008565D01*
X039833Y008565D01*
X039733Y003665D02*
X039733Y003665D01*
X039793Y003665D01*
X039793Y003665D01*
X039733Y003665D01*
X040103Y003285D02*
X040103Y003285D01*
X040163Y003285D01*
X040163Y003285D01*
X040103Y003285D01*
X040533Y003665D02*
X040533Y003665D01*
X040473Y003665D01*
X040473Y003665D01*
X040533Y003665D01*
X038733Y014806D02*
X038733Y014806D01*
X038733Y014886D01*
X038733Y014886D01*
X038733Y014806D01*
X038733Y015544D02*
X038733Y015544D01*
X038733Y015624D01*
X038733Y015624D01*
X038733Y015544D01*
X036133Y015544D02*
X036133Y015544D01*
X036133Y015624D01*
X036133Y015624D01*
X036133Y015544D01*
X036133Y014806D02*
X036133Y014806D01*
X036133Y014886D01*
X036133Y014886D01*
X036133Y014806D01*
X022833Y021365D02*
X022833Y021365D01*
X022773Y021365D01*
X022773Y021365D01*
X022833Y021365D01*
X022403Y020985D02*
X022403Y020985D01*
X022463Y020985D01*
X022463Y020985D01*
X022403Y020985D01*
X022033Y021365D02*
X022033Y021365D01*
X022093Y021365D01*
X022093Y021365D01*
X022033Y021365D01*
X022403Y022435D02*
X022403Y022435D01*
X022463Y022435D01*
X022463Y022435D01*
X022403Y022435D01*
X022033Y022815D02*
X022033Y022815D01*
X022093Y022815D01*
X022093Y022815D01*
X022033Y022815D01*
X022833Y022815D02*
X022833Y022815D01*
X022773Y022815D01*
X022773Y022815D01*
X022833Y022815D01*
X022353Y023885D02*
X022353Y023885D01*
X022413Y023885D01*
X022413Y023885D01*
X022353Y023885D01*
X021983Y024265D02*
X021983Y024265D01*
X022043Y024265D01*
X022043Y024265D01*
X021983Y024265D01*
X022783Y024265D02*
X022783Y024265D01*
X022723Y024265D01*
X022723Y024265D01*
X022783Y024265D01*
X021703Y025885D02*
X021703Y025885D01*
X021763Y025885D01*
X021763Y025885D01*
X021703Y025885D01*
X021333Y026265D02*
X021333Y026265D01*
X021393Y026265D01*
X021393Y026265D01*
X021333Y026265D01*
X022133Y026265D02*
X022133Y026265D01*
X022073Y026265D01*
X022073Y026265D01*
X022133Y026265D01*
X021033Y032506D02*
X021033Y032506D01*
X021033Y032586D01*
X021033Y032586D01*
X021033Y032506D01*
X021033Y033244D02*
X021033Y033244D01*
X021033Y033324D01*
X021033Y033324D01*
X021033Y033244D01*
X018433Y033244D02*
X018433Y033244D01*
X018433Y033324D01*
X018433Y033324D01*
X018433Y033244D01*
X018433Y032506D02*
X018433Y032506D01*
X018433Y032586D01*
X018433Y032586D01*
X018433Y032506D01*
X018433Y015544D02*
X018433Y015544D01*
X018433Y015624D01*
X018433Y015624D01*
X018433Y015544D01*
X018433Y014806D02*
X018433Y014806D01*
X018433Y014886D01*
X018433Y014886D01*
X018433Y014806D01*
X021033Y014806D02*
X021033Y014806D01*
X021033Y014886D01*
X021033Y014886D01*
X021033Y014806D01*
X021033Y015544D02*
X021033Y015544D01*
X021033Y015624D01*
X021033Y015624D01*
X021033Y015544D01*
X021333Y008565D02*
X021333Y008565D01*
X021393Y008565D01*
X021393Y008565D01*
X021333Y008565D01*
X021703Y008185D02*
X021703Y008185D01*
X021763Y008185D01*
X021763Y008185D01*
X021703Y008185D01*
X022133Y008565D02*
X022133Y008565D01*
X022073Y008565D01*
X022073Y008565D01*
X022133Y008565D01*
X021983Y006565D02*
X021983Y006565D01*
X022043Y006565D01*
X022043Y006565D01*
X021983Y006565D01*
X022353Y006185D02*
X022353Y006185D01*
X022413Y006185D01*
X022413Y006185D01*
X022353Y006185D01*
X022783Y006565D02*
X022783Y006565D01*
X022723Y006565D01*
X022723Y006565D01*
X022783Y006565D01*
X022833Y005115D02*
X022833Y005115D01*
X022773Y005115D01*
X022773Y005115D01*
X022833Y005115D01*
X022403Y004735D02*
X022403Y004735D01*
X022463Y004735D01*
X022463Y004735D01*
X022403Y004735D01*
X022033Y005115D02*
X022033Y005115D01*
X022093Y005115D01*
X022093Y005115D01*
X022033Y005115D01*
X022033Y003665D02*
X022033Y003665D01*
X022093Y003665D01*
X022093Y003665D01*
X022033Y003665D01*
X022403Y003285D02*
X022403Y003285D01*
X022463Y003285D01*
X022463Y003285D01*
X022403Y003285D01*
X022833Y003665D02*
X022833Y003665D01*
X022773Y003665D01*
X022773Y003665D01*
X022833Y003665D01*
D22*
X022532Y003804D02*
X022532Y003526D01*
X022334Y003526D01*
X022334Y003804D01*
X022532Y003804D01*
X022532Y003722D02*
X022334Y003722D01*
X022532Y004976D02*
X022532Y005254D01*
X022532Y004976D02*
X022334Y004976D01*
X022334Y005254D01*
X022532Y005254D01*
X022532Y005172D02*
X022334Y005172D01*
X022482Y006426D02*
X022482Y006704D01*
X022482Y006426D02*
X022284Y006426D01*
X022284Y006704D01*
X022482Y006704D01*
X022482Y006622D02*
X022284Y006622D01*
X021832Y008426D02*
X021832Y008704D01*
X021832Y008426D02*
X021634Y008426D01*
X021634Y008704D01*
X021832Y008704D01*
X021832Y008622D02*
X021634Y008622D01*
X021172Y015116D02*
X020894Y015116D01*
X020894Y015314D01*
X021172Y015314D01*
X021172Y015116D01*
X021172Y015312D02*
X020894Y015312D01*
X018572Y015116D02*
X018294Y015116D01*
X018294Y015314D01*
X018572Y015314D01*
X018572Y015116D01*
X018572Y015312D02*
X018294Y015312D01*
X022532Y021226D02*
X022532Y021504D01*
X022532Y021226D02*
X022334Y021226D01*
X022334Y021504D01*
X022532Y021504D01*
X022532Y021422D02*
X022334Y021422D01*
X022532Y022676D02*
X022532Y022954D01*
X022532Y022676D02*
X022334Y022676D01*
X022334Y022954D01*
X022532Y022954D01*
X022532Y022872D02*
X022334Y022872D01*
X022482Y024126D02*
X022482Y024404D01*
X022482Y024126D02*
X022284Y024126D01*
X022284Y024404D01*
X022482Y024404D01*
X022482Y024322D02*
X022284Y024322D01*
X021832Y026126D02*
X021832Y026404D01*
X021832Y026126D02*
X021634Y026126D01*
X021634Y026404D01*
X021832Y026404D01*
X021832Y026322D02*
X021634Y026322D01*
X021172Y032816D02*
X020894Y032816D01*
X020894Y033014D01*
X021172Y033014D01*
X021172Y032816D01*
X021172Y033012D02*
X020894Y033012D01*
X018572Y032816D02*
X018294Y032816D01*
X018294Y033014D01*
X018572Y033014D01*
X018572Y032816D01*
X018572Y033012D02*
X018294Y033012D01*
X035994Y015116D02*
X036272Y015116D01*
X035994Y015116D02*
X035994Y015314D01*
X036272Y015314D01*
X036272Y015116D01*
X036272Y015312D02*
X035994Y015312D01*
X038594Y015116D02*
X038872Y015116D01*
X038594Y015116D02*
X038594Y015314D01*
X038872Y015314D01*
X038872Y015116D01*
X038872Y015312D02*
X038594Y015312D01*
X039532Y008704D02*
X039532Y008426D01*
X039334Y008426D01*
X039334Y008704D01*
X039532Y008704D01*
X039532Y008622D02*
X039334Y008622D01*
X040182Y006704D02*
X040182Y006426D01*
X039984Y006426D01*
X039984Y006704D01*
X040182Y006704D01*
X040182Y006622D02*
X039984Y006622D01*
X040232Y005254D02*
X040232Y004976D01*
X040034Y004976D01*
X040034Y005254D01*
X040232Y005254D01*
X040232Y005172D02*
X040034Y005172D01*
X040232Y003804D02*
X040232Y003526D01*
X040034Y003526D01*
X040034Y003804D01*
X040232Y003804D01*
X040232Y003722D02*
X040034Y003722D01*
D23*
X010783Y003859D02*
X010783Y004571D01*
X009783Y004571D02*
X009783Y003859D01*
X008783Y003859D02*
X008783Y004571D01*
X007783Y004571D02*
X007783Y003859D01*
X004383Y003859D02*
X004383Y004571D01*
X003383Y004571D02*
X003383Y003859D01*
X003383Y021559D02*
X003383Y022271D01*
X004383Y022271D02*
X004383Y021559D01*
X007783Y021559D02*
X007783Y022271D01*
X008783Y022271D02*
X008783Y021559D01*
X009783Y021559D02*
X009783Y022271D01*
X010783Y022271D02*
X010783Y021559D01*
D24*
X003483Y025915D03*
X003483Y008215D03*
D25*
X003583Y016895D02*
X003583Y017535D01*
X004583Y017535D02*
X004583Y016895D01*
X005583Y016895D02*
X005583Y017535D01*
X006583Y017535D02*
X006583Y016895D01*
X007583Y016895D02*
X007583Y017535D01*
X008583Y017535D02*
X008583Y016895D01*
X009583Y016895D02*
X009583Y017535D01*
X010583Y017535D02*
X010583Y016895D01*
X011583Y016895D02*
X011583Y017535D01*
X012583Y017535D02*
X012583Y016895D01*
X012583Y034595D02*
X012583Y035235D01*
X011583Y035235D02*
X011583Y034595D01*
X010583Y034595D02*
X010583Y035235D01*
X009583Y035235D02*
X009583Y034595D01*
X008583Y034595D02*
X008583Y035235D01*
X007583Y035235D02*
X007583Y034595D01*
X006583Y034595D02*
X006583Y035235D01*
X005583Y035235D02*
X005583Y034595D01*
X004583Y034595D02*
X004583Y035235D01*
X003583Y035235D02*
X003583Y034595D01*
D26*
X005883Y024415D03*
X025583Y023465D03*
X029333Y025665D03*
X029333Y007965D03*
X025583Y005765D03*
X043283Y005765D03*
X047033Y007965D03*
X005883Y006715D03*
D27*
X012333Y006865D03*
X025733Y010615D03*
X043433Y010615D03*
X025733Y028315D03*
X012333Y024565D03*
D28*
X038983Y024915D03*
X038983Y025915D03*
X039983Y025915D03*
X039983Y024915D03*
X040983Y024915D03*
X040983Y025915D03*
X041983Y025915D03*
X041983Y024915D03*
X042983Y024915D03*
X042983Y025915D03*
X043983Y025915D03*
X043983Y024915D03*
X044983Y024915D03*
X045983Y024915D03*
X045983Y025915D03*
X044983Y025915D03*
X044983Y026915D03*
X045983Y026915D03*
X045983Y027915D03*
X044983Y027915D03*
X043983Y027915D03*
X042983Y027915D03*
X041983Y027915D03*
X040983Y027915D03*
X039983Y027915D03*
X038983Y027915D03*
X038983Y026915D03*
X039983Y026915D03*
X040983Y026915D03*
X041983Y026915D03*
X042983Y026915D03*
X043983Y026915D03*
X043983Y028915D03*
X042983Y028915D03*
X041983Y028915D03*
X040983Y028915D03*
X039983Y028915D03*
X038983Y028915D03*
X038983Y029915D03*
X039983Y029915D03*
X040983Y029915D03*
X041983Y029915D03*
X042983Y029915D03*
X043983Y029915D03*
X044983Y029915D03*
X045983Y029915D03*
X045983Y028915D03*
X044983Y028915D03*
X046983Y028915D03*
X046983Y029915D03*
X047983Y029915D03*
X047983Y028915D03*
X047983Y027915D03*
X046983Y027915D03*
X046983Y026915D03*
X047983Y026915D03*
X047983Y025915D03*
X046983Y025915D03*
X046983Y024915D03*
X047983Y024915D03*
X047983Y023915D03*
X046983Y023915D03*
X045983Y023915D03*
X044983Y023915D03*
X043983Y023915D03*
X042983Y023915D03*
X041983Y023915D03*
X040983Y023915D03*
X039983Y023915D03*
X038983Y023915D03*
X038983Y022915D03*
X039983Y022915D03*
X040983Y022915D03*
X041983Y022915D03*
X042983Y022915D03*
X043983Y022915D03*
X044983Y022915D03*
X045983Y022915D03*
X046983Y022915D03*
X047983Y022915D03*
X047983Y021915D03*
X046983Y021915D03*
X045983Y021915D03*
X044983Y021915D03*
X043983Y021915D03*
X042983Y021915D03*
X041983Y021915D03*
X040983Y021915D03*
X039983Y021915D03*
X038983Y021915D03*
X038983Y030915D03*
X039983Y030915D03*
X040983Y030915D03*
X041983Y030915D03*
X042983Y030915D03*
X043983Y030915D03*
X044983Y030915D03*
X045983Y030915D03*
X046983Y030915D03*
X047983Y030915D03*
X047983Y031915D03*
X046983Y031915D03*
X045983Y031915D03*
X044983Y031915D03*
X043983Y031915D03*
X042983Y031915D03*
X041983Y031915D03*
X040983Y031915D03*
X039983Y031915D03*
X038983Y031915D03*
X038983Y032915D03*
X039983Y032915D03*
X040983Y032915D03*
X041983Y032915D03*
X042983Y032915D03*
X043983Y032915D03*
X044983Y032915D03*
X045983Y032915D03*
X046983Y032915D03*
X047983Y032915D03*
X047983Y033915D03*
X046983Y033915D03*
X045983Y033915D03*
X044983Y033915D03*
X043983Y033915D03*
X042983Y033915D03*
X041983Y033915D03*
X040983Y033915D03*
X039983Y033915D03*
X038983Y033915D03*
X038983Y034915D03*
X039983Y034915D03*
X040983Y034915D03*
X041983Y034915D03*
X042983Y034915D03*
X043983Y034915D03*
X044983Y034915D03*
X045983Y034915D03*
X046983Y034915D03*
X047983Y034915D03*
M02*
