G75*
%MOIN*%
%OFA0B0*%
%FSLAX24Y24*%
%IPPOS*%
%LPD*%
%AMOC8*
5,1,8,0,0,1.08239X$1,22.5*
%
%ADD10C,0.0010*%
%ADD11C,0.0000*%
%ADD12R,0.0591X0.0197*%
%ADD13R,0.0197X0.0591*%
%ADD14R,0.0394X0.0433*%
%ADD15R,0.0433X0.0394*%
%ADD16R,0.0512X0.0591*%
%ADD17R,0.0236X0.0866*%
%ADD18R,0.0709X0.0630*%
%ADD19R,0.0315X0.0472*%
%ADD20R,0.0472X0.0472*%
%ADD21R,0.0630X0.0460*%
%ADD22R,0.0240X0.0390*%
%ADD23R,0.0593X0.0316*%
%ADD24R,0.1029X0.1378*%
%ADD25R,0.0630X0.0709*%
%ADD26R,0.0472X0.0787*%
%ADD27R,0.0551X0.0472*%
%ADD28R,0.0520X0.0220*%
%ADD29R,0.0669X0.0709*%
%ADD30R,0.0256X0.0689*%
%ADD31R,0.1260X0.0906*%
%ADD32R,0.0630X0.0512*%
%ADD33R,0.0866X0.0236*%
%ADD34R,0.1063X0.0630*%
%ADD35R,0.1102X0.0394*%
%ADD36R,0.0512X0.0630*%
D10*
X000233Y000105D02*
X000233Y002865D01*
X035633Y002865D01*
X035633Y018565D01*
X035633Y020565D01*
X035633Y036265D01*
X051333Y036265D01*
X051333Y020565D01*
X035633Y020565D01*
X033633Y020565D01*
X033633Y018565D01*
X035633Y018565D01*
X051333Y018565D01*
X051333Y020565D01*
X051333Y018565D02*
X051333Y002865D01*
X051333Y000105D01*
X000233Y000105D01*
X000233Y002865D02*
X000233Y018565D01*
X015933Y018565D01*
X015933Y020565D01*
X000233Y020565D01*
X000233Y018565D01*
X000233Y020565D02*
X000233Y036265D01*
X000233Y039025D01*
X000233Y036265D02*
X000233Y036265D01*
X015933Y036265D01*
X035633Y036265D01*
X033633Y036265D02*
X033633Y020565D01*
X017933Y020565D01*
X017933Y018575D01*
X017933Y018565D02*
X015933Y018565D01*
X015933Y002865D01*
X000233Y002865D01*
X017933Y002865D02*
X017933Y018565D01*
X033633Y018565D01*
X033633Y002865D01*
X017933Y002865D01*
X035633Y002865D02*
X051333Y002865D01*
X017933Y020565D02*
X015933Y020565D01*
X015933Y036265D01*
X017933Y036265D02*
X033633Y036265D01*
X017933Y036265D02*
X017933Y020565D01*
X051333Y036265D02*
X051333Y039025D01*
D11*
X000233Y039025D01*
X001416Y037645D02*
X001418Y037701D01*
X001424Y037756D01*
X001434Y037810D01*
X001447Y037864D01*
X001465Y037917D01*
X001486Y037968D01*
X001510Y038018D01*
X001538Y038066D01*
X001570Y038112D01*
X001604Y038156D01*
X001642Y038197D01*
X001682Y038235D01*
X001725Y038270D01*
X001770Y038302D01*
X001818Y038331D01*
X001867Y038357D01*
X001918Y038379D01*
X001970Y038397D01*
X002024Y038411D01*
X002079Y038422D01*
X002134Y038429D01*
X002189Y038432D01*
X002245Y038431D01*
X002300Y038426D01*
X002355Y038417D01*
X002409Y038405D01*
X002462Y038388D01*
X002514Y038368D01*
X002564Y038344D01*
X002612Y038317D01*
X002659Y038287D01*
X002703Y038253D01*
X002745Y038216D01*
X002783Y038176D01*
X002820Y038134D01*
X002853Y038089D01*
X002882Y038043D01*
X002909Y037994D01*
X002931Y037943D01*
X002951Y037891D01*
X002966Y037837D01*
X002978Y037783D01*
X002986Y037728D01*
X002990Y037673D01*
X002990Y037617D01*
X002986Y037562D01*
X002978Y037507D01*
X002966Y037453D01*
X002951Y037399D01*
X002931Y037347D01*
X002909Y037296D01*
X002882Y037247D01*
X002853Y037201D01*
X002820Y037156D01*
X002783Y037114D01*
X002745Y037074D01*
X002703Y037037D01*
X002659Y037003D01*
X002612Y036973D01*
X002564Y036946D01*
X002514Y036922D01*
X002462Y036902D01*
X002409Y036885D01*
X002355Y036873D01*
X002300Y036864D01*
X002245Y036859D01*
X002189Y036858D01*
X002134Y036861D01*
X002079Y036868D01*
X002024Y036879D01*
X001970Y036893D01*
X001918Y036911D01*
X001867Y036933D01*
X001818Y036959D01*
X001770Y036988D01*
X001725Y037020D01*
X001682Y037055D01*
X001642Y037093D01*
X001604Y037134D01*
X001570Y037178D01*
X001538Y037224D01*
X001510Y037272D01*
X001486Y037322D01*
X001465Y037373D01*
X001447Y037426D01*
X001434Y037480D01*
X001424Y037534D01*
X001418Y037589D01*
X001416Y037645D01*
X002912Y037645D02*
X002914Y037701D01*
X002920Y037756D01*
X002930Y037810D01*
X002943Y037864D01*
X002961Y037917D01*
X002982Y037968D01*
X003006Y038018D01*
X003034Y038066D01*
X003066Y038112D01*
X003100Y038156D01*
X003138Y038197D01*
X003178Y038235D01*
X003221Y038270D01*
X003266Y038302D01*
X003314Y038331D01*
X003363Y038357D01*
X003414Y038379D01*
X003466Y038397D01*
X003520Y038411D01*
X003575Y038422D01*
X003630Y038429D01*
X003685Y038432D01*
X003741Y038431D01*
X003796Y038426D01*
X003851Y038417D01*
X003905Y038405D01*
X003958Y038388D01*
X004010Y038368D01*
X004060Y038344D01*
X004108Y038317D01*
X004155Y038287D01*
X004199Y038253D01*
X004241Y038216D01*
X004279Y038176D01*
X004316Y038134D01*
X004349Y038089D01*
X004378Y038043D01*
X004405Y037994D01*
X004427Y037943D01*
X004447Y037891D01*
X004462Y037837D01*
X004474Y037783D01*
X004482Y037728D01*
X004486Y037673D01*
X004486Y037617D01*
X004482Y037562D01*
X004474Y037507D01*
X004462Y037453D01*
X004447Y037399D01*
X004427Y037347D01*
X004405Y037296D01*
X004378Y037247D01*
X004349Y037201D01*
X004316Y037156D01*
X004279Y037114D01*
X004241Y037074D01*
X004199Y037037D01*
X004155Y037003D01*
X004108Y036973D01*
X004060Y036946D01*
X004010Y036922D01*
X003958Y036902D01*
X003905Y036885D01*
X003851Y036873D01*
X003796Y036864D01*
X003741Y036859D01*
X003685Y036858D01*
X003630Y036861D01*
X003575Y036868D01*
X003520Y036879D01*
X003466Y036893D01*
X003414Y036911D01*
X003363Y036933D01*
X003314Y036959D01*
X003266Y036988D01*
X003221Y037020D01*
X003178Y037055D01*
X003138Y037093D01*
X003100Y037134D01*
X003066Y037178D01*
X003034Y037224D01*
X003006Y037272D01*
X002982Y037322D01*
X002961Y037373D01*
X002943Y037426D01*
X002930Y037480D01*
X002920Y037534D01*
X002914Y037589D01*
X002912Y037645D01*
X048577Y037645D02*
X048579Y037701D01*
X048585Y037756D01*
X048595Y037810D01*
X048608Y037864D01*
X048626Y037917D01*
X048647Y037968D01*
X048671Y038018D01*
X048699Y038066D01*
X048731Y038112D01*
X048765Y038156D01*
X048803Y038197D01*
X048843Y038235D01*
X048886Y038270D01*
X048931Y038302D01*
X048979Y038331D01*
X049028Y038357D01*
X049079Y038379D01*
X049131Y038397D01*
X049185Y038411D01*
X049240Y038422D01*
X049295Y038429D01*
X049350Y038432D01*
X049406Y038431D01*
X049461Y038426D01*
X049516Y038417D01*
X049570Y038405D01*
X049623Y038388D01*
X049675Y038368D01*
X049725Y038344D01*
X049773Y038317D01*
X049820Y038287D01*
X049864Y038253D01*
X049906Y038216D01*
X049944Y038176D01*
X049981Y038134D01*
X050014Y038089D01*
X050043Y038043D01*
X050070Y037994D01*
X050092Y037943D01*
X050112Y037891D01*
X050127Y037837D01*
X050139Y037783D01*
X050147Y037728D01*
X050151Y037673D01*
X050151Y037617D01*
X050147Y037562D01*
X050139Y037507D01*
X050127Y037453D01*
X050112Y037399D01*
X050092Y037347D01*
X050070Y037296D01*
X050043Y037247D01*
X050014Y037201D01*
X049981Y037156D01*
X049944Y037114D01*
X049906Y037074D01*
X049864Y037037D01*
X049820Y037003D01*
X049773Y036973D01*
X049725Y036946D01*
X049675Y036922D01*
X049623Y036902D01*
X049570Y036885D01*
X049516Y036873D01*
X049461Y036864D01*
X049406Y036859D01*
X049350Y036858D01*
X049295Y036861D01*
X049240Y036868D01*
X049185Y036879D01*
X049131Y036893D01*
X049079Y036911D01*
X049028Y036933D01*
X048979Y036959D01*
X048931Y036988D01*
X048886Y037020D01*
X048843Y037055D01*
X048803Y037093D01*
X048765Y037134D01*
X048731Y037178D01*
X048699Y037224D01*
X048671Y037272D01*
X048647Y037322D01*
X048626Y037373D01*
X048608Y037426D01*
X048595Y037480D01*
X048585Y037534D01*
X048579Y037589D01*
X048577Y037645D01*
X048577Y001489D02*
X048579Y001545D01*
X048585Y001600D01*
X048595Y001654D01*
X048608Y001708D01*
X048626Y001761D01*
X048647Y001812D01*
X048671Y001862D01*
X048699Y001910D01*
X048731Y001956D01*
X048765Y002000D01*
X048803Y002041D01*
X048843Y002079D01*
X048886Y002114D01*
X048931Y002146D01*
X048979Y002175D01*
X049028Y002201D01*
X049079Y002223D01*
X049131Y002241D01*
X049185Y002255D01*
X049240Y002266D01*
X049295Y002273D01*
X049350Y002276D01*
X049406Y002275D01*
X049461Y002270D01*
X049516Y002261D01*
X049570Y002249D01*
X049623Y002232D01*
X049675Y002212D01*
X049725Y002188D01*
X049773Y002161D01*
X049820Y002131D01*
X049864Y002097D01*
X049906Y002060D01*
X049944Y002020D01*
X049981Y001978D01*
X050014Y001933D01*
X050043Y001887D01*
X050070Y001838D01*
X050092Y001787D01*
X050112Y001735D01*
X050127Y001681D01*
X050139Y001627D01*
X050147Y001572D01*
X050151Y001517D01*
X050151Y001461D01*
X050147Y001406D01*
X050139Y001351D01*
X050127Y001297D01*
X050112Y001243D01*
X050092Y001191D01*
X050070Y001140D01*
X050043Y001091D01*
X050014Y001045D01*
X049981Y001000D01*
X049944Y000958D01*
X049906Y000918D01*
X049864Y000881D01*
X049820Y000847D01*
X049773Y000817D01*
X049725Y000790D01*
X049675Y000766D01*
X049623Y000746D01*
X049570Y000729D01*
X049516Y000717D01*
X049461Y000708D01*
X049406Y000703D01*
X049350Y000702D01*
X049295Y000705D01*
X049240Y000712D01*
X049185Y000723D01*
X049131Y000737D01*
X049079Y000755D01*
X049028Y000777D01*
X048979Y000803D01*
X048931Y000832D01*
X048886Y000864D01*
X048843Y000899D01*
X048803Y000937D01*
X048765Y000978D01*
X048731Y001022D01*
X048699Y001068D01*
X048671Y001116D01*
X048647Y001166D01*
X048626Y001217D01*
X048608Y001270D01*
X048595Y001324D01*
X048585Y001378D01*
X048579Y001433D01*
X048577Y001489D01*
X002912Y001489D02*
X002914Y001545D01*
X002920Y001600D01*
X002930Y001654D01*
X002943Y001708D01*
X002961Y001761D01*
X002982Y001812D01*
X003006Y001862D01*
X003034Y001910D01*
X003066Y001956D01*
X003100Y002000D01*
X003138Y002041D01*
X003178Y002079D01*
X003221Y002114D01*
X003266Y002146D01*
X003314Y002175D01*
X003363Y002201D01*
X003414Y002223D01*
X003466Y002241D01*
X003520Y002255D01*
X003575Y002266D01*
X003630Y002273D01*
X003685Y002276D01*
X003741Y002275D01*
X003796Y002270D01*
X003851Y002261D01*
X003905Y002249D01*
X003958Y002232D01*
X004010Y002212D01*
X004060Y002188D01*
X004108Y002161D01*
X004155Y002131D01*
X004199Y002097D01*
X004241Y002060D01*
X004279Y002020D01*
X004316Y001978D01*
X004349Y001933D01*
X004378Y001887D01*
X004405Y001838D01*
X004427Y001787D01*
X004447Y001735D01*
X004462Y001681D01*
X004474Y001627D01*
X004482Y001572D01*
X004486Y001517D01*
X004486Y001461D01*
X004482Y001406D01*
X004474Y001351D01*
X004462Y001297D01*
X004447Y001243D01*
X004427Y001191D01*
X004405Y001140D01*
X004378Y001091D01*
X004349Y001045D01*
X004316Y001000D01*
X004279Y000958D01*
X004241Y000918D01*
X004199Y000881D01*
X004155Y000847D01*
X004108Y000817D01*
X004060Y000790D01*
X004010Y000766D01*
X003958Y000746D01*
X003905Y000729D01*
X003851Y000717D01*
X003796Y000708D01*
X003741Y000703D01*
X003685Y000702D01*
X003630Y000705D01*
X003575Y000712D01*
X003520Y000723D01*
X003466Y000737D01*
X003414Y000755D01*
X003363Y000777D01*
X003314Y000803D01*
X003266Y000832D01*
X003221Y000864D01*
X003178Y000899D01*
X003138Y000937D01*
X003100Y000978D01*
X003066Y001022D01*
X003034Y001068D01*
X003006Y001116D01*
X002982Y001166D01*
X002961Y001217D01*
X002943Y001270D01*
X002930Y001324D01*
X002920Y001378D01*
X002914Y001433D01*
X002912Y001489D01*
X001416Y001489D02*
X001418Y001545D01*
X001424Y001600D01*
X001434Y001654D01*
X001447Y001708D01*
X001465Y001761D01*
X001486Y001812D01*
X001510Y001862D01*
X001538Y001910D01*
X001570Y001956D01*
X001604Y002000D01*
X001642Y002041D01*
X001682Y002079D01*
X001725Y002114D01*
X001770Y002146D01*
X001818Y002175D01*
X001867Y002201D01*
X001918Y002223D01*
X001970Y002241D01*
X002024Y002255D01*
X002079Y002266D01*
X002134Y002273D01*
X002189Y002276D01*
X002245Y002275D01*
X002300Y002270D01*
X002355Y002261D01*
X002409Y002249D01*
X002462Y002232D01*
X002514Y002212D01*
X002564Y002188D01*
X002612Y002161D01*
X002659Y002131D01*
X002703Y002097D01*
X002745Y002060D01*
X002783Y002020D01*
X002820Y001978D01*
X002853Y001933D01*
X002882Y001887D01*
X002909Y001838D01*
X002931Y001787D01*
X002951Y001735D01*
X002966Y001681D01*
X002978Y001627D01*
X002986Y001572D01*
X002990Y001517D01*
X002990Y001461D01*
X002986Y001406D01*
X002978Y001351D01*
X002966Y001297D01*
X002951Y001243D01*
X002931Y001191D01*
X002909Y001140D01*
X002882Y001091D01*
X002853Y001045D01*
X002820Y001000D01*
X002783Y000958D01*
X002745Y000918D01*
X002703Y000881D01*
X002659Y000847D01*
X002612Y000817D01*
X002564Y000790D01*
X002514Y000766D01*
X002462Y000746D01*
X002409Y000729D01*
X002355Y000717D01*
X002300Y000708D01*
X002245Y000703D01*
X002189Y000702D01*
X002134Y000705D01*
X002079Y000712D01*
X002024Y000723D01*
X001970Y000737D01*
X001918Y000755D01*
X001867Y000777D01*
X001818Y000803D01*
X001770Y000832D01*
X001725Y000864D01*
X001682Y000899D01*
X001642Y000937D01*
X001604Y000978D01*
X001570Y001022D01*
X001538Y001068D01*
X001510Y001116D01*
X001486Y001166D01*
X001465Y001217D01*
X001447Y001270D01*
X001434Y001324D01*
X001424Y001378D01*
X001418Y001433D01*
X001416Y001489D01*
D12*
X023450Y009040D03*
X023450Y009355D03*
X023450Y009670D03*
X023450Y009985D03*
X023450Y010300D03*
X023450Y010615D03*
X023450Y010930D03*
X023450Y011245D03*
X023450Y011560D03*
X023450Y011875D03*
X023450Y012190D03*
X028017Y012190D03*
X028017Y011875D03*
X028017Y011560D03*
X028017Y011245D03*
X028017Y010930D03*
X028017Y010615D03*
X028017Y010300D03*
X028017Y009985D03*
X028017Y009670D03*
X028017Y009355D03*
X028017Y009040D03*
X041150Y009040D03*
X041150Y009355D03*
X041150Y009670D03*
X041150Y009985D03*
X041150Y010300D03*
X041150Y010615D03*
X041150Y010930D03*
X041150Y011245D03*
X041150Y011560D03*
X041150Y011875D03*
X041150Y012190D03*
X045717Y012190D03*
X045717Y011875D03*
X045717Y011560D03*
X045717Y011245D03*
X045717Y010930D03*
X045717Y010615D03*
X045717Y010300D03*
X045717Y009985D03*
X045717Y009670D03*
X045717Y009355D03*
X045717Y009040D03*
X028017Y026740D03*
X028017Y027055D03*
X028017Y027370D03*
X028017Y027685D03*
X028017Y028000D03*
X028017Y028315D03*
X028017Y028630D03*
X028017Y028945D03*
X028017Y029260D03*
X028017Y029575D03*
X028017Y029890D03*
X023450Y029890D03*
X023450Y029575D03*
X023450Y029260D03*
X023450Y028945D03*
X023450Y028630D03*
X023450Y028315D03*
X023450Y028000D03*
X023450Y027685D03*
X023450Y027370D03*
X023450Y027055D03*
X023450Y026740D03*
D13*
X024159Y026032D03*
X024473Y026032D03*
X024788Y026032D03*
X025103Y026032D03*
X025418Y026032D03*
X025733Y026032D03*
X026048Y026032D03*
X026363Y026032D03*
X026678Y026032D03*
X026993Y026032D03*
X027308Y026032D03*
X027308Y030598D03*
X026993Y030598D03*
X026678Y030598D03*
X026363Y030598D03*
X026048Y030598D03*
X025733Y030598D03*
X025418Y030598D03*
X025103Y030598D03*
X024788Y030598D03*
X024473Y030598D03*
X024159Y030598D03*
X024159Y012898D03*
X024473Y012898D03*
X024788Y012898D03*
X025103Y012898D03*
X025418Y012898D03*
X025733Y012898D03*
X026048Y012898D03*
X026363Y012898D03*
X026678Y012898D03*
X026993Y012898D03*
X027308Y012898D03*
X027308Y008332D03*
X026993Y008332D03*
X026678Y008332D03*
X026363Y008332D03*
X026048Y008332D03*
X025733Y008332D03*
X025418Y008332D03*
X025103Y008332D03*
X024788Y008332D03*
X024473Y008332D03*
X024159Y008332D03*
X041859Y008332D03*
X042173Y008332D03*
X042488Y008332D03*
X042803Y008332D03*
X043118Y008332D03*
X043433Y008332D03*
X043748Y008332D03*
X044063Y008332D03*
X044378Y008332D03*
X044693Y008332D03*
X045008Y008332D03*
X045008Y012898D03*
X044693Y012898D03*
X044378Y012898D03*
X044063Y012898D03*
X043748Y012898D03*
X043433Y012898D03*
X043118Y012898D03*
X042803Y012898D03*
X042488Y012898D03*
X042173Y012898D03*
X041859Y012898D03*
D14*
X044699Y014765D03*
X045368Y014765D03*
X046333Y012600D03*
X046333Y011930D03*
X047633Y011200D03*
X047633Y010530D03*
X047618Y007465D03*
X046949Y007465D03*
X048183Y006950D03*
X048183Y006280D03*
X048349Y005415D03*
X049018Y005415D03*
X045668Y003715D03*
X044999Y003715D03*
X044368Y003365D03*
X043699Y003365D03*
X041483Y003430D03*
X041483Y004100D03*
X041483Y004780D03*
X041483Y005450D03*
X041233Y006230D03*
X041233Y006900D03*
X038933Y009930D03*
X038933Y010600D03*
X039218Y015965D03*
X038549Y015965D03*
X039849Y017715D03*
X040518Y017715D03*
X042599Y017715D03*
X043268Y017715D03*
X045349Y017715D03*
X046018Y017715D03*
X031318Y023115D03*
X030649Y023115D03*
X030483Y023980D03*
X030483Y024650D03*
X029918Y025165D03*
X029249Y025165D03*
X029933Y028230D03*
X029933Y028900D03*
X028633Y029630D03*
X028633Y030300D03*
X027668Y032465D03*
X026999Y032465D03*
X027649Y035415D03*
X028318Y035415D03*
X025568Y035415D03*
X024899Y035415D03*
X022818Y035415D03*
X022149Y035415D03*
X021518Y033665D03*
X020849Y033665D03*
X021233Y028300D03*
X021233Y027630D03*
X023533Y024600D03*
X023533Y023930D03*
X023783Y023150D03*
X023783Y022480D03*
X023783Y021800D03*
X023783Y021130D03*
X025999Y021065D03*
X026668Y021065D03*
X027299Y021415D03*
X027968Y021415D03*
X027649Y017715D03*
X028318Y017715D03*
X025568Y017715D03*
X024899Y017715D03*
X022818Y017715D03*
X022149Y017715D03*
X021518Y015965D03*
X020849Y015965D03*
X026999Y014765D03*
X027668Y014765D03*
X028633Y012600D03*
X028633Y011930D03*
X029933Y011200D03*
X029933Y010530D03*
X029918Y007465D03*
X030483Y006950D03*
X030483Y006280D03*
X030649Y005415D03*
X031318Y005415D03*
X029249Y007465D03*
X027968Y003715D03*
X027299Y003715D03*
X026668Y003365D03*
X025999Y003365D03*
X023783Y003430D03*
X023783Y004100D03*
X023783Y004780D03*
X023783Y005450D03*
X023533Y006230D03*
X023533Y006900D03*
X021233Y009930D03*
X021233Y010600D03*
X008968Y009665D03*
X008968Y009065D03*
X008299Y009065D03*
X008299Y009665D03*
X004368Y009665D03*
X004368Y009065D03*
X003699Y009065D03*
X003699Y009665D03*
X003699Y026765D03*
X003699Y027365D03*
X004368Y027365D03*
X004368Y026765D03*
X008299Y026765D03*
X008968Y026765D03*
X008968Y027365D03*
X008299Y027365D03*
D15*
X008299Y027915D03*
X008968Y027915D03*
X004368Y027915D03*
X003699Y027915D03*
X005183Y023050D03*
X005783Y023050D03*
X006383Y023050D03*
X006983Y023050D03*
X006983Y022380D03*
X006383Y022380D03*
X005783Y022380D03*
X005183Y022380D03*
X021033Y022400D03*
X021033Y021730D03*
X021033Y023230D03*
X021033Y023900D03*
X021949Y025465D03*
X022618Y025465D03*
X025249Y025115D03*
X025918Y025115D03*
X026683Y024900D03*
X026683Y024230D03*
X026399Y023715D03*
X027068Y023715D03*
X029299Y024515D03*
X029968Y024515D03*
X029968Y030865D03*
X029299Y030865D03*
X029583Y032230D03*
X029583Y032900D03*
X027668Y033015D03*
X026999Y033015D03*
X025483Y033730D03*
X024833Y033730D03*
X024833Y034400D03*
X025483Y034400D03*
X025249Y031665D03*
X025918Y031665D03*
X030533Y034730D03*
X030533Y035400D03*
X030533Y017700D03*
X030533Y017030D03*
X029583Y015200D03*
X029583Y014530D03*
X029299Y013165D03*
X029968Y013165D03*
X027668Y015315D03*
X026999Y015315D03*
X025483Y016030D03*
X024833Y016030D03*
X024833Y016700D03*
X025483Y016700D03*
X025249Y013965D03*
X025918Y013965D03*
X022618Y007765D03*
X021949Y007765D03*
X021033Y006200D03*
X021033Y005530D03*
X021033Y004700D03*
X021033Y004030D03*
X025249Y007415D03*
X025918Y007415D03*
X026683Y007200D03*
X026683Y006530D03*
X026399Y006015D03*
X027068Y006015D03*
X029299Y006815D03*
X029968Y006815D03*
X038733Y006200D03*
X038733Y005530D03*
X038733Y004700D03*
X038733Y004030D03*
X042949Y007415D03*
X043618Y007415D03*
X044383Y007200D03*
X044383Y006530D03*
X044099Y006015D03*
X044768Y006015D03*
X046999Y006815D03*
X047668Y006815D03*
X040318Y007765D03*
X039649Y007765D03*
X046999Y013165D03*
X047668Y013165D03*
X047283Y014530D03*
X047283Y015200D03*
X045368Y015315D03*
X044699Y015315D03*
X043183Y016030D03*
X042533Y016030D03*
X042533Y016700D03*
X043183Y016700D03*
X042949Y013965D03*
X043618Y013965D03*
X048233Y017030D03*
X048233Y017700D03*
X008968Y010215D03*
X008299Y010215D03*
X004368Y010215D03*
X003699Y010215D03*
X005183Y005350D03*
X005783Y005350D03*
X006383Y005350D03*
X006983Y005350D03*
X006983Y004680D03*
X006383Y004680D03*
X005783Y004680D03*
X005183Y004680D03*
D16*
X026959Y015915D03*
X027707Y015915D03*
X028209Y014565D03*
X028957Y014565D03*
X044659Y015915D03*
X045407Y015915D03*
X045909Y014565D03*
X046657Y014565D03*
X028957Y032265D03*
X028209Y032265D03*
X027707Y033615D03*
X026959Y033615D03*
D17*
X024283Y034576D03*
X023783Y034576D03*
X023283Y034576D03*
X022783Y034576D03*
X022783Y031954D03*
X023283Y031954D03*
X023783Y031954D03*
X024283Y031954D03*
X024283Y016876D03*
X023783Y016876D03*
X023283Y016876D03*
X022783Y016876D03*
X022783Y014254D03*
X023283Y014254D03*
X023783Y014254D03*
X024283Y014254D03*
X040483Y014254D03*
X040983Y014254D03*
X041483Y014254D03*
X041983Y014254D03*
X041983Y016876D03*
X041483Y016876D03*
X040983Y016876D03*
X040483Y016876D03*
D18*
X040083Y011016D03*
X040083Y009914D03*
X042483Y005616D03*
X042483Y004514D03*
X024783Y004514D03*
X024783Y005616D03*
X022383Y009914D03*
X022383Y011016D03*
X024783Y022214D03*
X024783Y023316D03*
X022383Y027614D03*
X022383Y028716D03*
D19*
X025229Y024515D03*
X025938Y024515D03*
X026979Y016915D03*
X027688Y016915D03*
X025938Y006815D03*
X025229Y006815D03*
X042929Y006815D03*
X043638Y006815D03*
X044679Y016915D03*
X045388Y016915D03*
X027688Y034615D03*
X026979Y034615D03*
D20*
X026997Y035415D03*
X026170Y035415D03*
X024297Y035415D03*
X023470Y035415D03*
X021547Y035415D03*
X020720Y035415D03*
X020770Y034265D03*
X021597Y034265D03*
X028920Y035415D03*
X029747Y035415D03*
X006983Y021728D03*
X006383Y021728D03*
X005783Y021728D03*
X005183Y021728D03*
X005183Y020902D03*
X005783Y020902D03*
X006383Y020902D03*
X006983Y020902D03*
X020720Y017715D03*
X021547Y017715D03*
X021597Y016565D03*
X020770Y016565D03*
X023470Y017715D03*
X024297Y017715D03*
X026170Y017715D03*
X026997Y017715D03*
X028920Y017715D03*
X029747Y017715D03*
X038420Y017715D03*
X039247Y017715D03*
X039297Y016565D03*
X038470Y016565D03*
X041170Y017715D03*
X041997Y017715D03*
X043870Y017715D03*
X044697Y017715D03*
X046620Y017715D03*
X047447Y017715D03*
X006983Y004028D03*
X006383Y004028D03*
X005783Y004028D03*
X005183Y004028D03*
X005183Y003202D03*
X005783Y003202D03*
X006383Y003202D03*
X006983Y003202D03*
D21*
X018483Y013615D03*
X018483Y014215D03*
X018483Y014815D03*
X036183Y014815D03*
X036183Y014215D03*
X036183Y013615D03*
X018483Y031315D03*
X018483Y031915D03*
X018483Y032515D03*
D22*
X028263Y033100D03*
X029003Y033100D03*
X029003Y034130D03*
X028633Y034130D03*
X028263Y034130D03*
X028263Y016430D03*
X028633Y016430D03*
X029003Y016430D03*
X029003Y015400D03*
X028263Y015400D03*
X045963Y015400D03*
X046703Y015400D03*
X046703Y016430D03*
X046333Y016430D03*
X045963Y016430D03*
D23*
X045383Y006015D03*
X045383Y005515D03*
X045383Y005015D03*
X045383Y004515D03*
X047383Y004515D03*
X047383Y005015D03*
X047383Y005515D03*
X047383Y006015D03*
X029683Y006015D03*
X029683Y005515D03*
X029683Y005015D03*
X029683Y004515D03*
X027683Y004515D03*
X027683Y005015D03*
X027683Y005515D03*
X027683Y006015D03*
X027683Y022215D03*
X027683Y022715D03*
X027683Y023215D03*
X027683Y023715D03*
X029683Y023715D03*
X029683Y023215D03*
X029683Y022715D03*
X029683Y022215D03*
D24*
X028683Y022965D03*
X028683Y005265D03*
X046383Y005265D03*
D25*
X046335Y007265D03*
X045232Y007265D03*
X028635Y007265D03*
X027532Y007265D03*
X027532Y024965D03*
X028635Y024965D03*
D26*
X026863Y022265D03*
X025603Y022265D03*
X025603Y004565D03*
X026863Y004565D03*
X043303Y004565D03*
X044563Y004565D03*
D27*
X046900Y011950D03*
X046900Y012541D03*
X047766Y012541D03*
X047766Y011950D03*
X030066Y011950D03*
X030066Y012541D03*
X029200Y012541D03*
X029200Y011950D03*
X029200Y029650D03*
X029200Y030241D03*
X030066Y030241D03*
X030066Y029650D03*
D28*
X022923Y024635D03*
X022923Y023895D03*
X022973Y023185D03*
X022973Y022445D03*
X022973Y021735D03*
X022973Y020995D03*
X021893Y020995D03*
X021893Y021365D03*
X021893Y021735D03*
X021893Y022445D03*
X021893Y022815D03*
X021893Y023185D03*
X021843Y023895D03*
X021843Y024265D03*
X021843Y024635D03*
X022273Y025895D03*
X022273Y026635D03*
X021193Y026635D03*
X021193Y026265D03*
X021193Y025895D03*
X021193Y008935D03*
X021193Y008565D03*
X021193Y008195D03*
X022273Y008195D03*
X022273Y008935D03*
X021843Y006935D03*
X021843Y006565D03*
X021843Y006195D03*
X021893Y005485D03*
X021893Y005115D03*
X021893Y004745D03*
X021893Y004035D03*
X021893Y003665D03*
X021893Y003295D03*
X022973Y003295D03*
X022973Y004035D03*
X022973Y004745D03*
X022973Y005485D03*
X022923Y006195D03*
X022923Y006935D03*
X038893Y008195D03*
X038893Y008565D03*
X038893Y008935D03*
X039973Y008935D03*
X039973Y008195D03*
X039543Y006935D03*
X039543Y006565D03*
X039543Y006195D03*
X039593Y005485D03*
X039593Y005115D03*
X039593Y004745D03*
X039593Y004035D03*
X039593Y003665D03*
X039593Y003295D03*
X040673Y003295D03*
X040673Y004035D03*
X040673Y004745D03*
X040673Y005485D03*
X040623Y006195D03*
X040623Y006935D03*
D29*
X012383Y006172D03*
X012383Y004558D03*
X012383Y022258D03*
X012383Y023872D03*
D30*
X012133Y029413D03*
X011633Y029413D03*
X011133Y029413D03*
X012633Y029413D03*
X012633Y031617D03*
X012133Y031617D03*
X011633Y031617D03*
X011133Y031617D03*
X008033Y031617D03*
X007533Y031617D03*
X007033Y031617D03*
X006533Y031617D03*
X006533Y029413D03*
X007033Y029413D03*
X007533Y029413D03*
X008033Y029413D03*
X008033Y013917D03*
X007533Y013917D03*
X007033Y013917D03*
X006533Y013917D03*
X006533Y011713D03*
X007033Y011713D03*
X007533Y011713D03*
X008033Y011713D03*
X011133Y011713D03*
X011633Y011713D03*
X012133Y011713D03*
X012633Y011713D03*
X012633Y013917D03*
X012133Y013917D03*
X011633Y013917D03*
X011133Y013917D03*
D31*
X011883Y012815D03*
X007283Y012815D03*
X007283Y030515D03*
X011883Y030515D03*
D32*
X009283Y030209D03*
X009283Y029421D03*
X004683Y029421D03*
X004683Y030209D03*
X004683Y012509D03*
X004683Y011721D03*
X009283Y011721D03*
X009283Y012509D03*
D33*
X009910Y010215D03*
X009910Y009715D03*
X009910Y009215D03*
X009910Y008715D03*
X011957Y008715D03*
X011957Y009215D03*
X011957Y009715D03*
X011957Y010215D03*
X007407Y010215D03*
X007407Y009715D03*
X007407Y009215D03*
X007407Y008715D03*
X005360Y008715D03*
X005360Y009215D03*
X005360Y009715D03*
X005360Y010215D03*
X005360Y026415D03*
X005360Y026915D03*
X005360Y027415D03*
X005360Y027915D03*
X007407Y027915D03*
X007407Y027415D03*
X007407Y026915D03*
X007407Y026415D03*
X009910Y026415D03*
X009910Y026915D03*
X009910Y027415D03*
X009910Y027915D03*
X011957Y027915D03*
X011957Y027415D03*
X011957Y026915D03*
X011957Y026415D03*
D34*
X010283Y029464D03*
X010283Y030566D03*
X005683Y030566D03*
X005683Y029464D03*
X005683Y012866D03*
X005683Y011764D03*
X010283Y011764D03*
X010283Y012866D03*
D35*
X009458Y006865D03*
X011309Y006865D03*
X011309Y024565D03*
X009458Y024565D03*
D36*
X009840Y028565D03*
X010627Y028565D03*
X005827Y028565D03*
X005040Y028565D03*
X005040Y010865D03*
X005827Y010865D03*
X009840Y010865D03*
X010627Y010865D03*
M02*
