G75*
%MOIN*%
%OFA0B0*%
%FSLAX24Y24*%
%IPPOS*%
%LPD*%
%AMOC8*
5,1,8,0,0,1.08239X$1,22.5*
%
%ADD10C,0.0010*%
%ADD11C,0.0000*%
%ADD12C,0.1575*%
D10*
X000233Y000105D02*
X000233Y002865D01*
X035633Y002865D01*
X035633Y018565D01*
X035633Y020565D01*
X035633Y036265D01*
X051333Y036265D01*
X051333Y020565D01*
X035633Y020565D01*
X033633Y020565D01*
X033633Y018565D01*
X035633Y018565D01*
X051333Y018565D01*
X051333Y020565D01*
X051333Y018565D02*
X051333Y002865D01*
X051333Y000105D01*
X000233Y000105D01*
X000233Y002865D02*
X000233Y018565D01*
X015933Y018565D01*
X015933Y020565D01*
X000233Y020565D01*
X000233Y018565D01*
X000233Y020565D02*
X000233Y036265D01*
X000233Y039025D01*
X000233Y036265D02*
X000233Y036265D01*
X015933Y036265D01*
X035633Y036265D01*
X033633Y036265D02*
X033633Y020565D01*
X017933Y020565D01*
X017933Y018575D01*
X017933Y018565D02*
X015933Y018565D01*
X015933Y002865D01*
X000233Y002865D01*
X017933Y002865D02*
X017933Y018565D01*
X033633Y018565D01*
X033633Y002865D01*
X017933Y002865D01*
X035633Y002865D02*
X051333Y002865D01*
X017933Y020565D02*
X015933Y020565D01*
X015933Y036265D01*
X017933Y036265D02*
X033633Y036265D01*
X017933Y036265D02*
X017933Y020565D01*
X051333Y036265D02*
X051333Y039025D01*
D11*
X000233Y039025D01*
X001416Y037645D02*
X001418Y037701D01*
X001424Y037756D01*
X001434Y037810D01*
X001447Y037864D01*
X001465Y037917D01*
X001486Y037968D01*
X001510Y038018D01*
X001538Y038066D01*
X001570Y038112D01*
X001604Y038156D01*
X001642Y038197D01*
X001682Y038235D01*
X001725Y038270D01*
X001770Y038302D01*
X001818Y038331D01*
X001867Y038357D01*
X001918Y038379D01*
X001970Y038397D01*
X002024Y038411D01*
X002079Y038422D01*
X002134Y038429D01*
X002189Y038432D01*
X002245Y038431D01*
X002300Y038426D01*
X002355Y038417D01*
X002409Y038405D01*
X002462Y038388D01*
X002514Y038368D01*
X002564Y038344D01*
X002612Y038317D01*
X002659Y038287D01*
X002703Y038253D01*
X002745Y038216D01*
X002783Y038176D01*
X002820Y038134D01*
X002853Y038089D01*
X002882Y038043D01*
X002909Y037994D01*
X002931Y037943D01*
X002951Y037891D01*
X002966Y037837D01*
X002978Y037783D01*
X002986Y037728D01*
X002990Y037673D01*
X002990Y037617D01*
X002986Y037562D01*
X002978Y037507D01*
X002966Y037453D01*
X002951Y037399D01*
X002931Y037347D01*
X002909Y037296D01*
X002882Y037247D01*
X002853Y037201D01*
X002820Y037156D01*
X002783Y037114D01*
X002745Y037074D01*
X002703Y037037D01*
X002659Y037003D01*
X002612Y036973D01*
X002564Y036946D01*
X002514Y036922D01*
X002462Y036902D01*
X002409Y036885D01*
X002355Y036873D01*
X002300Y036864D01*
X002245Y036859D01*
X002189Y036858D01*
X002134Y036861D01*
X002079Y036868D01*
X002024Y036879D01*
X001970Y036893D01*
X001918Y036911D01*
X001867Y036933D01*
X001818Y036959D01*
X001770Y036988D01*
X001725Y037020D01*
X001682Y037055D01*
X001642Y037093D01*
X001604Y037134D01*
X001570Y037178D01*
X001538Y037224D01*
X001510Y037272D01*
X001486Y037322D01*
X001465Y037373D01*
X001447Y037426D01*
X001434Y037480D01*
X001424Y037534D01*
X001418Y037589D01*
X001416Y037645D01*
X002912Y037645D02*
X002914Y037701D01*
X002920Y037756D01*
X002930Y037810D01*
X002943Y037864D01*
X002961Y037917D01*
X002982Y037968D01*
X003006Y038018D01*
X003034Y038066D01*
X003066Y038112D01*
X003100Y038156D01*
X003138Y038197D01*
X003178Y038235D01*
X003221Y038270D01*
X003266Y038302D01*
X003314Y038331D01*
X003363Y038357D01*
X003414Y038379D01*
X003466Y038397D01*
X003520Y038411D01*
X003575Y038422D01*
X003630Y038429D01*
X003685Y038432D01*
X003741Y038431D01*
X003796Y038426D01*
X003851Y038417D01*
X003905Y038405D01*
X003958Y038388D01*
X004010Y038368D01*
X004060Y038344D01*
X004108Y038317D01*
X004155Y038287D01*
X004199Y038253D01*
X004241Y038216D01*
X004279Y038176D01*
X004316Y038134D01*
X004349Y038089D01*
X004378Y038043D01*
X004405Y037994D01*
X004427Y037943D01*
X004447Y037891D01*
X004462Y037837D01*
X004474Y037783D01*
X004482Y037728D01*
X004486Y037673D01*
X004486Y037617D01*
X004482Y037562D01*
X004474Y037507D01*
X004462Y037453D01*
X004447Y037399D01*
X004427Y037347D01*
X004405Y037296D01*
X004378Y037247D01*
X004349Y037201D01*
X004316Y037156D01*
X004279Y037114D01*
X004241Y037074D01*
X004199Y037037D01*
X004155Y037003D01*
X004108Y036973D01*
X004060Y036946D01*
X004010Y036922D01*
X003958Y036902D01*
X003905Y036885D01*
X003851Y036873D01*
X003796Y036864D01*
X003741Y036859D01*
X003685Y036858D01*
X003630Y036861D01*
X003575Y036868D01*
X003520Y036879D01*
X003466Y036893D01*
X003414Y036911D01*
X003363Y036933D01*
X003314Y036959D01*
X003266Y036988D01*
X003221Y037020D01*
X003178Y037055D01*
X003138Y037093D01*
X003100Y037134D01*
X003066Y037178D01*
X003034Y037224D01*
X003006Y037272D01*
X002982Y037322D01*
X002961Y037373D01*
X002943Y037426D01*
X002930Y037480D01*
X002920Y037534D01*
X002914Y037589D01*
X002912Y037645D01*
X048577Y037645D02*
X048579Y037701D01*
X048585Y037756D01*
X048595Y037810D01*
X048608Y037864D01*
X048626Y037917D01*
X048647Y037968D01*
X048671Y038018D01*
X048699Y038066D01*
X048731Y038112D01*
X048765Y038156D01*
X048803Y038197D01*
X048843Y038235D01*
X048886Y038270D01*
X048931Y038302D01*
X048979Y038331D01*
X049028Y038357D01*
X049079Y038379D01*
X049131Y038397D01*
X049185Y038411D01*
X049240Y038422D01*
X049295Y038429D01*
X049350Y038432D01*
X049406Y038431D01*
X049461Y038426D01*
X049516Y038417D01*
X049570Y038405D01*
X049623Y038388D01*
X049675Y038368D01*
X049725Y038344D01*
X049773Y038317D01*
X049820Y038287D01*
X049864Y038253D01*
X049906Y038216D01*
X049944Y038176D01*
X049981Y038134D01*
X050014Y038089D01*
X050043Y038043D01*
X050070Y037994D01*
X050092Y037943D01*
X050112Y037891D01*
X050127Y037837D01*
X050139Y037783D01*
X050147Y037728D01*
X050151Y037673D01*
X050151Y037617D01*
X050147Y037562D01*
X050139Y037507D01*
X050127Y037453D01*
X050112Y037399D01*
X050092Y037347D01*
X050070Y037296D01*
X050043Y037247D01*
X050014Y037201D01*
X049981Y037156D01*
X049944Y037114D01*
X049906Y037074D01*
X049864Y037037D01*
X049820Y037003D01*
X049773Y036973D01*
X049725Y036946D01*
X049675Y036922D01*
X049623Y036902D01*
X049570Y036885D01*
X049516Y036873D01*
X049461Y036864D01*
X049406Y036859D01*
X049350Y036858D01*
X049295Y036861D01*
X049240Y036868D01*
X049185Y036879D01*
X049131Y036893D01*
X049079Y036911D01*
X049028Y036933D01*
X048979Y036959D01*
X048931Y036988D01*
X048886Y037020D01*
X048843Y037055D01*
X048803Y037093D01*
X048765Y037134D01*
X048731Y037178D01*
X048699Y037224D01*
X048671Y037272D01*
X048647Y037322D01*
X048626Y037373D01*
X048608Y037426D01*
X048595Y037480D01*
X048585Y037534D01*
X048579Y037589D01*
X048577Y037645D01*
X048577Y001489D02*
X048579Y001545D01*
X048585Y001600D01*
X048595Y001654D01*
X048608Y001708D01*
X048626Y001761D01*
X048647Y001812D01*
X048671Y001862D01*
X048699Y001910D01*
X048731Y001956D01*
X048765Y002000D01*
X048803Y002041D01*
X048843Y002079D01*
X048886Y002114D01*
X048931Y002146D01*
X048979Y002175D01*
X049028Y002201D01*
X049079Y002223D01*
X049131Y002241D01*
X049185Y002255D01*
X049240Y002266D01*
X049295Y002273D01*
X049350Y002276D01*
X049406Y002275D01*
X049461Y002270D01*
X049516Y002261D01*
X049570Y002249D01*
X049623Y002232D01*
X049675Y002212D01*
X049725Y002188D01*
X049773Y002161D01*
X049820Y002131D01*
X049864Y002097D01*
X049906Y002060D01*
X049944Y002020D01*
X049981Y001978D01*
X050014Y001933D01*
X050043Y001887D01*
X050070Y001838D01*
X050092Y001787D01*
X050112Y001735D01*
X050127Y001681D01*
X050139Y001627D01*
X050147Y001572D01*
X050151Y001517D01*
X050151Y001461D01*
X050147Y001406D01*
X050139Y001351D01*
X050127Y001297D01*
X050112Y001243D01*
X050092Y001191D01*
X050070Y001140D01*
X050043Y001091D01*
X050014Y001045D01*
X049981Y001000D01*
X049944Y000958D01*
X049906Y000918D01*
X049864Y000881D01*
X049820Y000847D01*
X049773Y000817D01*
X049725Y000790D01*
X049675Y000766D01*
X049623Y000746D01*
X049570Y000729D01*
X049516Y000717D01*
X049461Y000708D01*
X049406Y000703D01*
X049350Y000702D01*
X049295Y000705D01*
X049240Y000712D01*
X049185Y000723D01*
X049131Y000737D01*
X049079Y000755D01*
X049028Y000777D01*
X048979Y000803D01*
X048931Y000832D01*
X048886Y000864D01*
X048843Y000899D01*
X048803Y000937D01*
X048765Y000978D01*
X048731Y001022D01*
X048699Y001068D01*
X048671Y001116D01*
X048647Y001166D01*
X048626Y001217D01*
X048608Y001270D01*
X048595Y001324D01*
X048585Y001378D01*
X048579Y001433D01*
X048577Y001489D01*
X002912Y001489D02*
X002914Y001545D01*
X002920Y001600D01*
X002930Y001654D01*
X002943Y001708D01*
X002961Y001761D01*
X002982Y001812D01*
X003006Y001862D01*
X003034Y001910D01*
X003066Y001956D01*
X003100Y002000D01*
X003138Y002041D01*
X003178Y002079D01*
X003221Y002114D01*
X003266Y002146D01*
X003314Y002175D01*
X003363Y002201D01*
X003414Y002223D01*
X003466Y002241D01*
X003520Y002255D01*
X003575Y002266D01*
X003630Y002273D01*
X003685Y002276D01*
X003741Y002275D01*
X003796Y002270D01*
X003851Y002261D01*
X003905Y002249D01*
X003958Y002232D01*
X004010Y002212D01*
X004060Y002188D01*
X004108Y002161D01*
X004155Y002131D01*
X004199Y002097D01*
X004241Y002060D01*
X004279Y002020D01*
X004316Y001978D01*
X004349Y001933D01*
X004378Y001887D01*
X004405Y001838D01*
X004427Y001787D01*
X004447Y001735D01*
X004462Y001681D01*
X004474Y001627D01*
X004482Y001572D01*
X004486Y001517D01*
X004486Y001461D01*
X004482Y001406D01*
X004474Y001351D01*
X004462Y001297D01*
X004447Y001243D01*
X004427Y001191D01*
X004405Y001140D01*
X004378Y001091D01*
X004349Y001045D01*
X004316Y001000D01*
X004279Y000958D01*
X004241Y000918D01*
X004199Y000881D01*
X004155Y000847D01*
X004108Y000817D01*
X004060Y000790D01*
X004010Y000766D01*
X003958Y000746D01*
X003905Y000729D01*
X003851Y000717D01*
X003796Y000708D01*
X003741Y000703D01*
X003685Y000702D01*
X003630Y000705D01*
X003575Y000712D01*
X003520Y000723D01*
X003466Y000737D01*
X003414Y000755D01*
X003363Y000777D01*
X003314Y000803D01*
X003266Y000832D01*
X003221Y000864D01*
X003178Y000899D01*
X003138Y000937D01*
X003100Y000978D01*
X003066Y001022D01*
X003034Y001068D01*
X003006Y001116D01*
X002982Y001166D01*
X002961Y001217D01*
X002943Y001270D01*
X002930Y001324D01*
X002920Y001378D01*
X002914Y001433D01*
X002912Y001489D01*
X001416Y001489D02*
X001418Y001545D01*
X001424Y001600D01*
X001434Y001654D01*
X001447Y001708D01*
X001465Y001761D01*
X001486Y001812D01*
X001510Y001862D01*
X001538Y001910D01*
X001570Y001956D01*
X001604Y002000D01*
X001642Y002041D01*
X001682Y002079D01*
X001725Y002114D01*
X001770Y002146D01*
X001818Y002175D01*
X001867Y002201D01*
X001918Y002223D01*
X001970Y002241D01*
X002024Y002255D01*
X002079Y002266D01*
X002134Y002273D01*
X002189Y002276D01*
X002245Y002275D01*
X002300Y002270D01*
X002355Y002261D01*
X002409Y002249D01*
X002462Y002232D01*
X002514Y002212D01*
X002564Y002188D01*
X002612Y002161D01*
X002659Y002131D01*
X002703Y002097D01*
X002745Y002060D01*
X002783Y002020D01*
X002820Y001978D01*
X002853Y001933D01*
X002882Y001887D01*
X002909Y001838D01*
X002931Y001787D01*
X002951Y001735D01*
X002966Y001681D01*
X002978Y001627D01*
X002986Y001572D01*
X002990Y001517D01*
X002990Y001461D01*
X002986Y001406D01*
X002978Y001351D01*
X002966Y001297D01*
X002951Y001243D01*
X002931Y001191D01*
X002909Y001140D01*
X002882Y001091D01*
X002853Y001045D01*
X002820Y001000D01*
X002783Y000958D01*
X002745Y000918D01*
X002703Y000881D01*
X002659Y000847D01*
X002612Y000817D01*
X002564Y000790D01*
X002514Y000766D01*
X002462Y000746D01*
X002409Y000729D01*
X002355Y000717D01*
X002300Y000708D01*
X002245Y000703D01*
X002189Y000702D01*
X002134Y000705D01*
X002079Y000712D01*
X002024Y000723D01*
X001970Y000737D01*
X001918Y000755D01*
X001867Y000777D01*
X001818Y000803D01*
X001770Y000832D01*
X001725Y000864D01*
X001682Y000899D01*
X001642Y000937D01*
X001604Y000978D01*
X001570Y001022D01*
X001538Y001068D01*
X001510Y001116D01*
X001486Y001166D01*
X001465Y001217D01*
X001447Y001270D01*
X001434Y001324D01*
X001424Y001378D01*
X001418Y001433D01*
X001416Y001489D01*
D12*
X002203Y001489D02*
X003699Y001489D01*
X003699Y037645D02*
X002203Y037645D01*
M02*
