G75*
%MOIN*%
%OFA0B0*%
%FSLAX24Y24*%
%IPPOS*%
%LPD*%
%AMOC8*
5,1,8,0,0,1.08239X$1,22.5*
%
%ADD10C,0.0010*%
%ADD11R,0.0740X0.0740*%
%ADD12OC8,0.0740*%
%ADD13C,0.2180*%
%ADD14C,0.0820*%
%ADD15R,0.0395X0.0552*%
%ADD16R,0.0867X0.1064*%
%ADD17R,0.0394X0.0551*%
%ADD18C,0.0395*%
%ADD19C,0.0197*%
%ADD20C,0.0560*%
D10*
X000280Y001140D02*
X000280Y016840D01*
X015980Y016840D01*
X015980Y001140D01*
X000280Y001140D01*
D11*
X000630Y008490D03*
D12*
X000630Y007490D03*
X000630Y006490D03*
X000630Y005490D03*
X000630Y004490D03*
X001630Y004490D03*
X001630Y005490D03*
X001630Y006490D03*
X001630Y007490D03*
X001630Y008490D03*
X001630Y009490D03*
X001630Y010490D03*
X001630Y011490D03*
X001630Y012490D03*
X001630Y013490D03*
X002630Y013490D03*
X002630Y012490D03*
X002630Y011490D03*
X002630Y010490D03*
X002630Y009490D03*
X002630Y008490D03*
X002630Y007490D03*
X002630Y006490D03*
X002630Y005490D03*
X002630Y004490D03*
X013630Y004490D03*
X013630Y005490D03*
X013630Y006490D03*
X013630Y007490D03*
X013630Y008490D03*
X013630Y009490D03*
X013630Y010490D03*
X013630Y011490D03*
X013630Y012490D03*
X013630Y013490D03*
X014630Y013490D03*
X014630Y012490D03*
X014630Y011490D03*
X014630Y010490D03*
X014630Y009490D03*
X014630Y008490D03*
X014630Y007490D03*
X014630Y006490D03*
X014630Y005490D03*
X014630Y004490D03*
D13*
X014630Y002490D03*
X014630Y015490D03*
X001630Y015490D03*
X001630Y002490D03*
D14*
X011880Y001790D03*
X012880Y001790D03*
D15*
X009221Y002910D03*
X008039Y002910D03*
X009289Y013260D03*
X010471Y013260D03*
D16*
X009880Y014382D03*
X008630Y004032D03*
D17*
X008630Y002910D03*
X009880Y013260D03*
D18*
X004480Y006840D02*
X004480Y006840D01*
X004420Y006840D01*
X004420Y006840D01*
X004480Y006840D01*
X004050Y006460D02*
X004050Y006460D01*
X004110Y006460D01*
X004110Y006460D01*
X004050Y006460D01*
X003680Y006840D02*
X003680Y006840D01*
X003740Y006840D01*
X003740Y006840D01*
X003680Y006840D01*
X004330Y004840D02*
X004330Y004840D01*
X004390Y004840D01*
X004390Y004840D01*
X004330Y004840D01*
X004700Y004460D02*
X004700Y004460D01*
X004760Y004460D01*
X004760Y004460D01*
X004700Y004460D01*
X005130Y004840D02*
X005130Y004840D01*
X005070Y004840D01*
X005070Y004840D01*
X005130Y004840D01*
X005180Y003390D02*
X005180Y003390D01*
X005120Y003390D01*
X005120Y003390D01*
X005180Y003390D01*
X004750Y003010D02*
X004750Y003010D01*
X004810Y003010D01*
X004810Y003010D01*
X004750Y003010D01*
X004380Y003390D02*
X004380Y003390D01*
X004440Y003390D01*
X004440Y003390D01*
X004380Y003390D01*
X004380Y001940D02*
X004380Y001940D01*
X004440Y001940D01*
X004440Y001940D01*
X004380Y001940D01*
X004750Y001560D02*
X004750Y001560D01*
X004810Y001560D01*
X004810Y001560D01*
X004750Y001560D01*
X005180Y001940D02*
X005180Y001940D01*
X005120Y001940D01*
X005120Y001940D01*
X005180Y001940D01*
X003380Y013081D02*
X003380Y013081D01*
X003380Y013161D01*
X003380Y013161D01*
X003380Y013081D01*
X003380Y013819D02*
X003380Y013819D01*
X003380Y013899D01*
X003380Y013899D01*
X003380Y013819D01*
X000780Y013819D02*
X000780Y013819D01*
X000780Y013899D01*
X000780Y013899D01*
X000780Y013819D01*
X000780Y013081D02*
X000780Y013081D01*
X000780Y013161D01*
X000780Y013161D01*
X000780Y013081D01*
D19*
X000919Y013391D02*
X000641Y013391D01*
X000641Y013589D01*
X000919Y013589D01*
X000919Y013391D01*
X000919Y013587D02*
X000641Y013587D01*
X003241Y013391D02*
X003519Y013391D01*
X003241Y013391D02*
X003241Y013589D01*
X003519Y013589D01*
X003519Y013391D01*
X003519Y013587D02*
X003241Y013587D01*
X004179Y006979D02*
X004179Y006701D01*
X003981Y006701D01*
X003981Y006979D01*
X004179Y006979D01*
X004179Y006897D02*
X003981Y006897D01*
X004829Y004979D02*
X004829Y004701D01*
X004631Y004701D01*
X004631Y004979D01*
X004829Y004979D01*
X004829Y004897D02*
X004631Y004897D01*
X004879Y003529D02*
X004879Y003251D01*
X004681Y003251D01*
X004681Y003529D01*
X004879Y003529D01*
X004879Y003447D02*
X004681Y003447D01*
X004879Y002079D02*
X004879Y001801D01*
X004681Y001801D01*
X004681Y002079D01*
X004879Y002079D01*
X004879Y001997D02*
X004681Y001997D01*
D20*
X008080Y008890D03*
M02*
