G75*
%MOIN*%
%OFA0B0*%
%FSLAX24Y24*%
%IPPOS*%
%LPD*%
%AMOC8*
5,1,8,0,0,1.08239X$1,22.5*
%
%ADD10C,0.0010*%
%ADD11R,0.0671X0.0277*%
%ADD12R,0.0277X0.0671*%
%ADD13R,0.0474X0.0513*%
%ADD14R,0.0513X0.0474*%
%ADD15R,0.0592X0.0671*%
%ADD16R,0.0316X0.0946*%
%ADD17R,0.0789X0.0710*%
%ADD18R,0.0740X0.0740*%
%ADD19OC8,0.0740*%
%ADD20R,0.0395X0.0552*%
%ADD21R,0.0552X0.0552*%
%ADD22C,0.2180*%
%ADD23R,0.0710X0.0540*%
%ADD24R,0.0320X0.0470*%
%ADD25R,0.0673X0.0396*%
%ADD26R,0.1109X0.1458*%
%ADD27R,0.0710X0.0789*%
%ADD28R,0.0552X0.0867*%
%ADD29C,0.0356*%
%ADD30R,0.0631X0.0552*%
%ADD31R,0.0600X0.0300*%
%ADD32C,0.0820*%
%ADD33C,0.0560*%
D10*
X000280Y001140D02*
X000280Y016840D01*
X015980Y016840D01*
X015980Y001140D01*
X000280Y001140D01*
D11*
X005797Y007315D03*
X005797Y007630D03*
X005797Y007945D03*
X005797Y008260D03*
X005797Y008575D03*
X005797Y008890D03*
X005797Y009205D03*
X005797Y009520D03*
X005797Y009835D03*
X005797Y010150D03*
X005797Y010465D03*
X010363Y010465D03*
X010363Y010150D03*
X010363Y009835D03*
X010363Y009520D03*
X010363Y009205D03*
X010363Y008890D03*
X010363Y008575D03*
X010363Y008260D03*
X010363Y007945D03*
X010363Y007630D03*
X010363Y007315D03*
D12*
X009655Y006607D03*
X009340Y006607D03*
X009025Y006607D03*
X008710Y006607D03*
X008395Y006607D03*
X008080Y006607D03*
X007765Y006607D03*
X007450Y006607D03*
X007135Y006607D03*
X006820Y006607D03*
X006505Y006607D03*
X006505Y011173D03*
X006820Y011173D03*
X007135Y011173D03*
X007450Y011173D03*
X007765Y011173D03*
X008080Y011173D03*
X008395Y011173D03*
X008710Y011173D03*
X009025Y011173D03*
X009340Y011173D03*
X009655Y011173D03*
D13*
X010980Y010875D03*
X010980Y010205D03*
X012280Y009475D03*
X012280Y008805D03*
X012265Y005740D03*
X011595Y005740D03*
X012830Y005225D03*
X012830Y004555D03*
X012995Y003690D03*
X013665Y003690D03*
X010315Y001990D03*
X009645Y001990D03*
X009015Y001640D03*
X008345Y001640D03*
X006130Y001705D03*
X006130Y002375D03*
X006130Y003055D03*
X006130Y003725D03*
X005880Y004505D03*
X005880Y005175D03*
X003580Y008205D03*
X003580Y008875D03*
X003865Y014240D03*
X003195Y014240D03*
X004495Y015990D03*
X005165Y015990D03*
X007245Y015990D03*
X007915Y015990D03*
X009995Y015990D03*
X010665Y015990D03*
X010015Y013040D03*
X009345Y013040D03*
D14*
X009345Y013590D03*
X010015Y013590D03*
X008265Y012240D03*
X007595Y012240D03*
X007830Y014305D03*
X007830Y014975D03*
X007180Y014975D03*
X007180Y014305D03*
X011645Y011440D03*
X012315Y011440D03*
X011930Y012805D03*
X011930Y013475D03*
X012880Y015305D03*
X012880Y015975D03*
X004965Y006040D03*
X004295Y006040D03*
X003380Y004475D03*
X003380Y003805D03*
X003380Y002975D03*
X003380Y002305D03*
X007595Y005690D03*
X008265Y005690D03*
X009030Y005475D03*
X009030Y004805D03*
X008745Y004290D03*
X009415Y004290D03*
X011645Y005090D03*
X012315Y005090D03*
D15*
X011304Y012840D03*
X010556Y012840D03*
X010054Y014190D03*
X009306Y014190D03*
D16*
X006630Y015151D03*
X006130Y015151D03*
X005630Y015151D03*
X005130Y015151D03*
X005130Y012529D03*
X005630Y012529D03*
X006130Y012529D03*
X006630Y012529D03*
D17*
X004730Y009291D03*
X004730Y008189D03*
X007130Y003891D03*
X007130Y002789D03*
D18*
X000630Y008490D03*
D19*
X000630Y007490D03*
X000630Y006490D03*
X000630Y005490D03*
X000630Y004490D03*
X001630Y004490D03*
X001630Y005490D03*
X001630Y006490D03*
X001630Y007490D03*
X001630Y008490D03*
X001630Y009490D03*
X001630Y010490D03*
X001630Y011490D03*
X001630Y012490D03*
X001630Y013490D03*
X002630Y013490D03*
X002630Y012490D03*
X002630Y011490D03*
X002630Y010490D03*
X002630Y009490D03*
X002630Y008490D03*
X002630Y007490D03*
X002630Y006490D03*
X002630Y005490D03*
X002630Y004490D03*
X013630Y004490D03*
X013630Y005490D03*
X013630Y006490D03*
X013630Y007490D03*
X013630Y008490D03*
X013630Y009490D03*
X013630Y010490D03*
X013630Y011490D03*
X013630Y012490D03*
X013630Y013490D03*
X014630Y013490D03*
X014630Y012490D03*
X014630Y011490D03*
X014630Y010490D03*
X014630Y009490D03*
X014630Y008490D03*
X014630Y007490D03*
X014630Y006490D03*
X014630Y005490D03*
X014630Y004490D03*
D20*
X008284Y005090D03*
X007576Y005090D03*
X009326Y015190D03*
X010034Y015190D03*
D21*
X009343Y015990D03*
X008517Y015990D03*
X006643Y015990D03*
X005817Y015990D03*
X003893Y015990D03*
X003943Y014840D03*
X003117Y014840D03*
X003067Y015990D03*
X011267Y015990D03*
X012093Y015990D03*
D22*
X014630Y015490D03*
X014630Y002490D03*
X001630Y002490D03*
X001630Y015490D03*
D23*
X000830Y013090D03*
X000830Y012490D03*
X000830Y011890D03*
D24*
X010610Y013675D03*
X011350Y013675D03*
X011350Y014705D03*
X010980Y014705D03*
X010610Y014705D03*
D25*
X010030Y004290D03*
X010030Y003790D03*
X010030Y003290D03*
X010030Y002790D03*
X012030Y002790D03*
X012030Y003290D03*
X012030Y003790D03*
X012030Y004290D03*
D26*
X011030Y003540D03*
D27*
X010981Y005540D03*
X009879Y005540D03*
D28*
X009210Y002840D03*
X007950Y002840D03*
D29*
X007130Y001540D03*
X008380Y014190D03*
D30*
X011547Y010816D03*
X011547Y010225D03*
X012413Y010225D03*
X012413Y010816D03*
D31*
X005270Y005210D03*
X005270Y004470D03*
X005320Y003760D03*
X005320Y003020D03*
X005320Y002310D03*
X005320Y001570D03*
X004240Y001570D03*
X004240Y001940D03*
X004240Y002310D03*
X004240Y003020D03*
X004240Y003390D03*
X004240Y003760D03*
X004190Y004470D03*
X004190Y004840D03*
X004190Y005210D03*
X004620Y006470D03*
X004620Y007210D03*
X003540Y007210D03*
X003540Y006840D03*
X003540Y006470D03*
D32*
X011880Y001790D03*
X012880Y001790D03*
D33*
X008080Y008890D03*
M02*
