G75*
%MOIN*%
%OFA0B0*%
%FSLAX24Y24*%
%IPPOS*%
%LPD*%
%AMOC8*
5,1,8,0,0,1.08239X$1,22.5*
%
%ADD10C,0.0010*%
%ADD11R,0.0591X0.0197*%
%ADD12R,0.0197X0.0591*%
%ADD13R,0.0394X0.0433*%
%ADD14R,0.0433X0.0394*%
%ADD15R,0.0512X0.0591*%
%ADD16R,0.0236X0.0866*%
%ADD17R,0.0709X0.0630*%
%ADD18R,0.0315X0.0472*%
%ADD19R,0.0472X0.0472*%
%ADD20R,0.0630X0.0460*%
%ADD21R,0.0240X0.0390*%
%ADD22R,0.0593X0.0316*%
%ADD23R,0.1029X0.1378*%
%ADD24R,0.0630X0.0709*%
%ADD25R,0.0472X0.0787*%
%ADD26R,0.0551X0.0472*%
%ADD27R,0.0520X0.0220*%
D10*
X000280Y001140D02*
X000280Y016840D01*
X015980Y016840D01*
X015980Y001140D01*
X000280Y001140D01*
D11*
X005797Y007315D03*
X005797Y007630D03*
X005797Y007945D03*
X005797Y008260D03*
X005797Y008575D03*
X005797Y008890D03*
X005797Y009205D03*
X005797Y009520D03*
X005797Y009835D03*
X005797Y010150D03*
X005797Y010465D03*
X010363Y010465D03*
X010363Y010150D03*
X010363Y009835D03*
X010363Y009520D03*
X010363Y009205D03*
X010363Y008890D03*
X010363Y008575D03*
X010363Y008260D03*
X010363Y007945D03*
X010363Y007630D03*
X010363Y007315D03*
D12*
X009655Y006607D03*
X009340Y006607D03*
X009025Y006607D03*
X008710Y006607D03*
X008395Y006607D03*
X008080Y006607D03*
X007765Y006607D03*
X007450Y006607D03*
X007135Y006607D03*
X006820Y006607D03*
X006505Y006607D03*
X006505Y011173D03*
X006820Y011173D03*
X007135Y011173D03*
X007450Y011173D03*
X007765Y011173D03*
X008080Y011173D03*
X008395Y011173D03*
X008710Y011173D03*
X009025Y011173D03*
X009340Y011173D03*
X009655Y011173D03*
D13*
X010980Y010875D03*
X010980Y010205D03*
X012280Y009475D03*
X012280Y008805D03*
X012265Y005740D03*
X011595Y005740D03*
X012830Y005225D03*
X012830Y004555D03*
X012995Y003690D03*
X013665Y003690D03*
X010315Y001990D03*
X009645Y001990D03*
X009015Y001640D03*
X008345Y001640D03*
X006130Y001705D03*
X006130Y002375D03*
X006130Y003055D03*
X006130Y003725D03*
X005880Y004505D03*
X005880Y005175D03*
X003580Y008205D03*
X003580Y008875D03*
X003865Y014240D03*
X003195Y014240D03*
X004495Y015990D03*
X005165Y015990D03*
X007245Y015990D03*
X007915Y015990D03*
X009995Y015990D03*
X010665Y015990D03*
X010015Y013040D03*
X009345Y013040D03*
D14*
X009345Y013590D03*
X010015Y013590D03*
X008265Y012240D03*
X007595Y012240D03*
X007830Y014305D03*
X007830Y014975D03*
X007180Y014975D03*
X007180Y014305D03*
X011645Y011440D03*
X012315Y011440D03*
X011930Y012805D03*
X011930Y013475D03*
X012880Y015305D03*
X012880Y015975D03*
X004965Y006040D03*
X004295Y006040D03*
X003380Y004475D03*
X003380Y003805D03*
X003380Y002975D03*
X003380Y002305D03*
X007595Y005690D03*
X008265Y005690D03*
X009030Y005475D03*
X009030Y004805D03*
X008745Y004290D03*
X009415Y004290D03*
X011645Y005090D03*
X012315Y005090D03*
D15*
X011304Y012840D03*
X010556Y012840D03*
X010054Y014190D03*
X009306Y014190D03*
D16*
X006630Y015151D03*
X006130Y015151D03*
X005630Y015151D03*
X005130Y015151D03*
X005130Y012529D03*
X005630Y012529D03*
X006130Y012529D03*
X006630Y012529D03*
D17*
X004730Y009291D03*
X004730Y008189D03*
X007130Y003891D03*
X007130Y002789D03*
D18*
X007576Y005090D03*
X008284Y005090D03*
X009326Y015190D03*
X010034Y015190D03*
D19*
X009343Y015990D03*
X008517Y015990D03*
X006643Y015990D03*
X005817Y015990D03*
X003893Y015990D03*
X003943Y014840D03*
X003117Y014840D03*
X003067Y015990D03*
X011267Y015990D03*
X012093Y015990D03*
D20*
X000830Y013090D03*
X000830Y012490D03*
X000830Y011890D03*
D21*
X010610Y013675D03*
X011350Y013675D03*
X011350Y014705D03*
X010980Y014705D03*
X010610Y014705D03*
D22*
X010030Y004290D03*
X010030Y003790D03*
X010030Y003290D03*
X010030Y002790D03*
X012030Y002790D03*
X012030Y003290D03*
X012030Y003790D03*
X012030Y004290D03*
D23*
X011030Y003540D03*
D24*
X010981Y005540D03*
X009879Y005540D03*
D25*
X009210Y002840D03*
X007950Y002840D03*
D26*
X011547Y010225D03*
X011547Y010816D03*
X012413Y010816D03*
X012413Y010225D03*
D27*
X005270Y005210D03*
X005270Y004470D03*
X005320Y003760D03*
X005320Y003020D03*
X005320Y002310D03*
X005320Y001570D03*
X004240Y001570D03*
X004240Y001940D03*
X004240Y002310D03*
X004240Y003020D03*
X004240Y003390D03*
X004240Y003760D03*
X004190Y004470D03*
X004190Y004840D03*
X004190Y005210D03*
X004620Y006470D03*
X004620Y007210D03*
X003540Y007210D03*
X003540Y006840D03*
X003540Y006470D03*
M02*
