G75*
%MOIN*%
%OFA0B0*%
%FSLAX24Y24*%
%IPPOS*%
%LPD*%
%AMOC8*
5,1,8,0,0,1.08239X$1,22.5*
%
%ADD10C,0.0010*%
%ADD11R,0.0660X0.0660*%
%ADD12OC8,0.0660*%
%ADD13C,0.2100*%
%ADD14C,0.0740*%
%ADD15R,0.0315X0.0472*%
%ADD16R,0.0315X0.0906*%
%ADD17R,0.0787X0.0984*%
%ADD18C,0.0315*%
%ADD19C,0.0157*%
%ADD20C,0.0280*%
%ADD21C,0.0100*%
%ADD22C,0.0240*%
%ADD23C,0.0400*%
%ADD24C,0.0320*%
%ADD25C,0.0200*%
%ADD26C,0.0160*%
%ADD27C,0.0480*%
D10*
X000280Y001140D02*
X000280Y016840D01*
X015980Y016840D01*
X015980Y001140D01*
X000280Y001140D01*
D11*
X000630Y008490D03*
D12*
X000630Y007490D03*
X000630Y006490D03*
X000630Y005490D03*
X000630Y004490D03*
X001630Y004490D03*
X001630Y005490D03*
X001630Y006490D03*
X001630Y007490D03*
X001630Y008490D03*
X001630Y009490D03*
X001630Y010490D03*
X001630Y011490D03*
X001630Y012490D03*
X001630Y013490D03*
X002630Y013490D03*
X002630Y012490D03*
X002630Y011490D03*
X002630Y010490D03*
X002630Y009490D03*
X002630Y008490D03*
X002630Y007490D03*
X002630Y006490D03*
X002630Y005490D03*
X002630Y004490D03*
X013630Y004490D03*
X013630Y005490D03*
X013630Y006490D03*
X013630Y007490D03*
X013630Y008490D03*
X013630Y009490D03*
X013630Y010490D03*
X013630Y011490D03*
X013630Y012490D03*
X013630Y013490D03*
X014630Y013490D03*
X014630Y012490D03*
X014630Y011490D03*
X014630Y010490D03*
X014630Y009490D03*
X014630Y008490D03*
X014630Y007490D03*
X014630Y006490D03*
X014630Y005490D03*
X014630Y004490D03*
D13*
X014630Y002490D03*
X014630Y015490D03*
X001630Y015490D03*
X001630Y002490D03*
D14*
X011880Y001790D03*
X012880Y001790D03*
D15*
X009221Y002910D03*
X008039Y002910D03*
X009289Y013260D03*
X010471Y013260D03*
D16*
X009880Y013477D03*
X008630Y003127D03*
D17*
X008630Y004032D03*
X009880Y014382D03*
D18*
X004480Y006840D02*
X004480Y006840D01*
X004420Y006840D01*
X004420Y006840D01*
X004480Y006840D01*
X004050Y006460D02*
X004050Y006460D01*
X004110Y006460D01*
X004110Y006460D01*
X004050Y006460D01*
X003680Y006840D02*
X003680Y006840D01*
X003740Y006840D01*
X003740Y006840D01*
X003680Y006840D01*
X004330Y004840D02*
X004330Y004840D01*
X004390Y004840D01*
X004390Y004840D01*
X004330Y004840D01*
X004700Y004460D02*
X004700Y004460D01*
X004760Y004460D01*
X004760Y004460D01*
X004700Y004460D01*
X005130Y004840D02*
X005130Y004840D01*
X005070Y004840D01*
X005070Y004840D01*
X005130Y004840D01*
X005180Y003390D02*
X005180Y003390D01*
X005120Y003390D01*
X005120Y003390D01*
X005180Y003390D01*
X004750Y003010D02*
X004750Y003010D01*
X004810Y003010D01*
X004810Y003010D01*
X004750Y003010D01*
X004380Y003390D02*
X004380Y003390D01*
X004440Y003390D01*
X004440Y003390D01*
X004380Y003390D01*
X004380Y001940D02*
X004380Y001940D01*
X004440Y001940D01*
X004440Y001940D01*
X004380Y001940D01*
X004750Y001560D02*
X004750Y001560D01*
X004810Y001560D01*
X004810Y001560D01*
X004750Y001560D01*
X005180Y001940D02*
X005180Y001940D01*
X005120Y001940D01*
X005120Y001940D01*
X005180Y001940D01*
X003380Y013081D02*
X003380Y013081D01*
X003380Y013161D01*
X003380Y013161D01*
X003380Y013081D01*
X003380Y013819D02*
X003380Y013819D01*
X003380Y013899D01*
X003380Y013899D01*
X003380Y013819D01*
X000780Y013819D02*
X000780Y013819D01*
X000780Y013899D01*
X000780Y013899D01*
X000780Y013819D01*
X000780Y013081D02*
X000780Y013081D01*
X000780Y013161D01*
X000780Y013161D01*
X000780Y013081D01*
D19*
X000899Y013411D02*
X000661Y013411D01*
X000661Y013569D01*
X000899Y013569D01*
X000899Y013411D01*
X000899Y013567D02*
X000661Y013567D01*
X003261Y013411D02*
X003499Y013411D01*
X003261Y013411D02*
X003261Y013569D01*
X003499Y013569D01*
X003499Y013411D01*
X003499Y013567D02*
X003261Y013567D01*
X004159Y006959D02*
X004159Y006721D01*
X004001Y006721D01*
X004001Y006959D01*
X004159Y006959D01*
X004159Y006877D02*
X004001Y006877D01*
X004809Y004959D02*
X004809Y004721D01*
X004651Y004721D01*
X004651Y004959D01*
X004809Y004959D01*
X004809Y004877D02*
X004651Y004877D01*
X004859Y003509D02*
X004859Y003271D01*
X004701Y003271D01*
X004701Y003509D01*
X004859Y003509D01*
X004859Y003427D02*
X004701Y003427D01*
X004859Y002059D02*
X004859Y001821D01*
X004701Y001821D01*
X004701Y002059D01*
X004859Y002059D01*
X004859Y001977D02*
X004701Y001977D01*
D20*
X004780Y001940D03*
X004780Y002390D03*
X004280Y002640D03*
X003830Y002590D03*
X003730Y001890D03*
X003330Y001840D03*
X002580Y001540D03*
X003380Y003340D03*
X003780Y003390D03*
X004780Y003390D03*
X004730Y003990D03*
X005480Y003390D03*
X005630Y001940D03*
X007480Y003340D03*
X007230Y004440D03*
X006280Y005540D03*
X005080Y005540D03*
X004730Y004840D03*
X003830Y005590D03*
X003780Y006040D03*
X004080Y006840D03*
X004080Y007290D03*
X003530Y007590D03*
X003030Y006840D03*
X002230Y005090D03*
X003230Y004990D03*
X003680Y004890D03*
X004980Y006840D03*
X004880Y007590D03*
X006630Y007490D03*
X006830Y007140D03*
X007430Y007190D03*
X007930Y007390D03*
X008380Y007140D03*
X008780Y007140D03*
X009430Y007140D03*
X009730Y008190D03*
X009780Y009390D03*
X009330Y010090D03*
X009630Y010390D03*
X009330Y010640D03*
X008680Y010590D03*
X008280Y010540D03*
X007230Y011740D03*
X006830Y011740D03*
X005980Y011240D03*
X005530Y010890D03*
X004380Y010940D03*
X003730Y010340D03*
X003930Y009790D03*
X003780Y011590D03*
X003680Y012690D03*
X004380Y013790D03*
X005230Y014390D03*
X004530Y015190D03*
X003080Y015390D03*
X006130Y014390D03*
X007180Y013840D03*
X007830Y013840D03*
X008830Y014190D03*
X007880Y015540D03*
X008530Y016490D03*
X010630Y014190D03*
X010980Y014190D03*
X011330Y014190D03*
X011930Y013940D03*
X012430Y014740D03*
X011280Y013240D03*
X010580Y012240D03*
X009980Y012590D03*
X008830Y012090D03*
X010430Y010790D03*
X011930Y011940D03*
X012480Y012340D03*
X013630Y014590D03*
X013630Y016490D03*
X011230Y016490D03*
X010680Y015290D03*
X006980Y010240D03*
X006330Y009590D03*
X006630Y009340D03*
X006530Y008690D03*
X006880Y008340D03*
X007030Y007940D03*
X007430Y008490D03*
X009340Y006050D03*
X010380Y006290D03*
X010580Y006890D03*
X011080Y007490D03*
X011580Y006890D03*
X011280Y006590D03*
X012380Y006590D03*
X012380Y007490D03*
X013030Y007640D03*
X012730Y008340D03*
X011880Y008440D03*
X011030Y008590D03*
X012713Y009490D03*
X011030Y004790D03*
X011030Y004490D03*
X011030Y003990D03*
X011030Y003540D03*
X011030Y003040D03*
X010830Y002340D03*
X011280Y001390D03*
X012630Y003290D03*
X012630Y004090D03*
X013580Y001390D03*
X015630Y003490D03*
X007630Y001740D03*
X002130Y009990D03*
X001030Y010890D03*
D21*
X001170Y010681D02*
X001170Y010299D01*
X001439Y010030D01*
X001821Y010030D01*
X002090Y010299D01*
X002090Y010681D01*
X001821Y010950D01*
X001439Y010950D01*
X001170Y010681D01*
X001170Y010666D02*
X000415Y010666D01*
X000415Y010764D02*
X001253Y010764D01*
X001352Y010863D02*
X000415Y010863D01*
X000415Y010961D02*
X003004Y010961D01*
X002908Y010863D02*
X003103Y010863D01*
X003150Y010815D02*
X003150Y010525D01*
X003110Y010565D01*
X003090Y010585D01*
X003090Y010681D01*
X002821Y010950D01*
X002439Y010950D01*
X002170Y010681D01*
X002170Y010299D01*
X002439Y010030D01*
X002821Y010030D01*
X002950Y010159D01*
X002950Y009821D01*
X002821Y009950D01*
X002439Y009950D01*
X002170Y009681D01*
X002170Y009299D01*
X002299Y009170D01*
X002205Y009170D01*
X002083Y009292D01*
X002090Y009299D01*
X002090Y009681D01*
X001821Y009950D01*
X001439Y009950D01*
X001170Y009681D01*
X001170Y009299D01*
X001439Y009030D01*
X001821Y009030D01*
X001828Y009037D01*
X002055Y008810D01*
X002299Y008810D01*
X002170Y008681D01*
X002170Y008299D01*
X002299Y008170D01*
X002205Y008170D01*
X002083Y008292D01*
X002090Y008299D01*
X002090Y008681D01*
X001821Y008950D01*
X001439Y008950D01*
X001170Y008681D01*
X001170Y008299D01*
X001439Y008030D01*
X001821Y008030D01*
X001828Y008037D01*
X002055Y007810D01*
X002299Y007810D01*
X002170Y007681D01*
X002170Y007299D01*
X002299Y007170D01*
X001961Y007170D01*
X002090Y007299D01*
X002090Y007681D01*
X001821Y007950D01*
X001439Y007950D01*
X001310Y007821D01*
X001310Y008065D01*
X001090Y008285D01*
X001090Y008874D01*
X001014Y008950D01*
X000415Y008950D01*
X000415Y016705D01*
X015845Y016705D01*
X015845Y001275D01*
X011952Y001275D01*
X012002Y001283D01*
X012080Y001308D01*
X012153Y001345D01*
X012219Y001393D01*
X012277Y001451D01*
X012325Y001517D01*
X012362Y001590D01*
X012387Y001668D01*
X012388Y001672D01*
X012456Y001507D01*
X012597Y001366D01*
X012781Y001290D01*
X012979Y001290D01*
X013163Y001366D01*
X013304Y001507D01*
X013380Y001691D01*
X013380Y001836D01*
X013392Y001848D01*
X013430Y001940D01*
X013430Y003640D01*
X014026Y003640D01*
X014122Y003600D01*
X014169Y003600D01*
X014049Y003542D01*
X013934Y003470D01*
X013829Y003386D01*
X013734Y003291D01*
X013650Y003185D01*
X013578Y003071D01*
X013520Y002950D01*
X013475Y002823D01*
X013445Y002691D01*
X013430Y002557D01*
X013430Y002540D01*
X014580Y002540D01*
X014580Y002440D01*
X014680Y002440D01*
X014680Y002540D01*
X015830Y002540D01*
X015830Y002557D01*
X015815Y002691D01*
X015785Y002823D01*
X015740Y002950D01*
X015682Y003071D01*
X015610Y003185D01*
X015526Y003291D01*
X015431Y003386D01*
X015325Y003470D01*
X015211Y003542D01*
X015090Y003600D01*
X014977Y003640D01*
X015180Y003640D01*
X015272Y003678D01*
X015342Y003748D01*
X015492Y003898D01*
X015530Y003990D01*
X015530Y007736D01*
X015570Y007832D01*
X015570Y007948D01*
X015526Y008054D01*
X015444Y008136D01*
X015338Y008180D01*
X015222Y008180D01*
X015116Y008136D01*
X015034Y008054D01*
X014990Y007948D01*
X014990Y007832D01*
X015027Y007744D01*
X014821Y007950D01*
X014439Y007950D01*
X014170Y007681D01*
X014170Y007299D01*
X014439Y007030D01*
X014821Y007030D01*
X015030Y007239D01*
X015030Y006741D01*
X014821Y006950D01*
X014439Y006950D01*
X014170Y006681D01*
X014170Y006299D01*
X014177Y006292D01*
X014055Y006170D01*
X013961Y006170D01*
X014090Y006299D01*
X014090Y006681D01*
X013821Y006950D01*
X013439Y006950D01*
X013407Y006918D01*
X012939Y007385D01*
X012976Y007370D01*
X013084Y007370D01*
X013170Y007406D01*
X013170Y007299D01*
X013439Y007030D01*
X013821Y007030D01*
X014090Y007299D01*
X014090Y007681D01*
X013961Y007810D01*
X014205Y007810D01*
X014432Y008037D01*
X014439Y008030D01*
X014821Y008030D01*
X015090Y008299D01*
X015090Y008681D01*
X014821Y008950D01*
X014439Y008950D01*
X014170Y008681D01*
X014170Y008299D01*
X014177Y008292D01*
X014055Y008170D01*
X013961Y008170D01*
X014090Y008299D01*
X014090Y008681D01*
X013821Y008950D01*
X013439Y008950D01*
X013170Y008681D01*
X013170Y008670D01*
X013155Y008670D01*
X013075Y008750D01*
X013138Y008750D01*
X013244Y008794D01*
X013283Y008794D01*
X013244Y008794D02*
X013326Y008876D01*
X013370Y008982D01*
X013370Y009071D01*
X013431Y009010D01*
X013580Y009010D01*
X013580Y009440D01*
X013150Y009440D01*
X013150Y009325D01*
X013138Y009330D01*
X013022Y009330D01*
X012916Y009286D01*
X012834Y009204D01*
X012790Y009098D01*
X012790Y008982D01*
X012816Y008920D01*
X012505Y008920D01*
X012160Y009265D01*
X012160Y009810D01*
X012255Y009810D01*
X013271Y009810D01*
X013150Y009689D01*
X013150Y009540D01*
X013580Y009540D01*
X013580Y009440D01*
X013680Y009440D01*
X013680Y009540D01*
X014110Y009540D01*
X014110Y009689D01*
X013989Y009810D01*
X014155Y009810D01*
X014260Y009915D01*
X014407Y010062D01*
X014439Y010030D01*
X014821Y010030D01*
X015090Y010299D01*
X015090Y010681D01*
X014961Y010810D01*
X015205Y010810D01*
X015310Y010915D01*
X015560Y011165D01*
X015560Y013915D01*
X015160Y014315D01*
X015093Y014381D01*
X015211Y014438D01*
X015325Y014510D01*
X015431Y014594D01*
X015526Y014689D01*
X015610Y014794D01*
X015682Y014909D01*
X015740Y015030D01*
X015785Y015157D01*
X015815Y015289D01*
X015830Y015423D01*
X015830Y015440D01*
X014680Y015440D01*
X014680Y015540D01*
X014580Y015540D01*
X014580Y016690D01*
X014563Y016690D01*
X014429Y016675D01*
X014297Y016645D01*
X014170Y016600D01*
X014049Y016542D01*
X013934Y016470D01*
X013829Y016386D01*
X013734Y016291D01*
X013650Y016185D01*
X013578Y016071D01*
X013520Y015950D01*
X013475Y015823D01*
X013445Y015691D01*
X013430Y015557D01*
X013430Y015540D01*
X014580Y015540D01*
X014580Y015440D01*
X013460Y015440D01*
X013460Y015465D01*
X013260Y015665D01*
X013155Y015770D01*
X011605Y015770D01*
X011210Y016165D01*
X011105Y016270D01*
X008955Y016270D01*
X008655Y015970D01*
X008550Y015865D01*
X008550Y015465D01*
X008255Y015170D01*
X008150Y015065D01*
X008150Y014165D01*
X008019Y014033D01*
X007983Y014069D01*
X007884Y014110D01*
X007776Y014110D01*
X007677Y014069D01*
X007601Y013993D01*
X007560Y013894D01*
X007560Y013786D01*
X007601Y013687D01*
X007618Y013670D01*
X007455Y013670D01*
X007417Y013707D01*
X007450Y013786D01*
X007450Y013894D01*
X007409Y013993D01*
X007333Y014069D01*
X007234Y014110D01*
X007126Y014110D01*
X007027Y014069D01*
X006951Y013993D01*
X006910Y013894D01*
X006910Y013786D01*
X006951Y013687D01*
X007000Y013638D01*
X007000Y013615D01*
X007105Y013510D01*
X007305Y013310D01*
X008105Y013310D01*
X008210Y013415D01*
X008600Y013805D01*
X008600Y013070D01*
X007810Y013070D01*
X007794Y013086D01*
X007688Y013130D01*
X007572Y013130D01*
X007466Y013086D01*
X007463Y013083D01*
X007175Y013370D01*
X004260Y013370D01*
X004194Y013436D01*
X004088Y013480D01*
X003972Y013480D01*
X003866Y013436D01*
X003784Y013354D01*
X003740Y013248D01*
X003740Y013132D01*
X003778Y013040D01*
X003730Y013040D01*
X003662Y013012D01*
X003667Y013024D01*
X003667Y013217D01*
X003648Y013265D01*
X003707Y013325D01*
X003772Y013325D01*
X003707Y013325D02*
X003707Y013655D01*
X003663Y013699D01*
X003676Y013730D01*
X003687Y013790D01*
X003687Y013831D01*
X003409Y013831D01*
X003409Y013888D01*
X003687Y013888D01*
X003687Y013929D01*
X003676Y013988D01*
X003652Y014044D01*
X003619Y014095D01*
X003576Y014137D01*
X003526Y014171D01*
X003470Y014194D01*
X003410Y014206D01*
X003409Y014206D01*
X003409Y013888D01*
X003351Y013888D01*
X003351Y013831D01*
X003073Y013831D01*
X003073Y013790D01*
X003084Y013730D01*
X003097Y013700D01*
X003071Y013700D01*
X002821Y013950D01*
X002439Y013950D01*
X002170Y013681D01*
X002170Y013299D01*
X002299Y013170D01*
X001961Y013170D01*
X002090Y013299D01*
X002090Y013681D01*
X001821Y013950D01*
X001439Y013950D01*
X001189Y013700D01*
X001063Y013700D01*
X001076Y013730D01*
X001087Y013790D01*
X001087Y013831D01*
X000809Y013831D01*
X000809Y013888D01*
X001087Y013888D01*
X001087Y013929D01*
X001076Y013988D01*
X001052Y014044D01*
X001019Y014095D01*
X000976Y014137D01*
X000926Y014171D01*
X000870Y014194D01*
X000810Y014206D01*
X000809Y014206D01*
X000809Y013888D01*
X000751Y013888D01*
X000751Y013831D01*
X000473Y013831D01*
X000473Y013790D01*
X000484Y013730D01*
X000497Y013699D01*
X000453Y013655D01*
X000453Y013325D01*
X000415Y013325D01*
X000453Y013325D02*
X000512Y013265D01*
X000493Y013217D01*
X000493Y013024D01*
X000536Y012918D01*
X000617Y012838D01*
X000723Y012794D01*
X000837Y012794D01*
X000876Y012810D01*
X001299Y012810D01*
X001170Y012681D01*
X001170Y012299D01*
X001439Y012030D01*
X001821Y012030D01*
X002071Y012280D01*
X002189Y012280D01*
X002299Y012170D01*
X002055Y012170D01*
X001828Y011943D01*
X001821Y011950D01*
X001439Y011950D01*
X001170Y011681D01*
X001170Y011299D01*
X001439Y011030D01*
X001821Y011030D01*
X002090Y011299D01*
X002090Y011681D01*
X002083Y011688D01*
X002205Y011810D01*
X002299Y011810D01*
X002170Y011681D01*
X002170Y011299D01*
X002439Y011030D01*
X002821Y011030D01*
X002878Y011087D01*
X003150Y010815D01*
X003150Y010764D02*
X003007Y010764D01*
X003090Y010666D02*
X003150Y010666D01*
X003150Y010567D02*
X003108Y010567D01*
X002930Y010490D02*
X003130Y010290D01*
X003130Y009340D01*
X003430Y009040D01*
X005680Y009040D01*
X006330Y008390D01*
X006830Y008390D01*
X006880Y008340D01*
X007116Y008203D02*
X010850Y008203D01*
X010850Y008105D02*
X007247Y008105D01*
X007259Y008093D02*
X007183Y008169D01*
X007113Y008198D01*
X007150Y008286D01*
X007150Y008365D01*
X007205Y008310D01*
X007228Y008310D01*
X007277Y008261D01*
X007376Y008220D01*
X007484Y008220D01*
X007583Y008261D01*
X007659Y008337D01*
X007700Y008436D01*
X007700Y008544D01*
X007659Y008643D01*
X007583Y008719D01*
X007484Y008760D01*
X007376Y008760D01*
X007297Y008727D01*
X006855Y009170D01*
X006842Y009170D01*
X006859Y009187D01*
X006900Y009286D01*
X006900Y009394D01*
X006859Y009493D01*
X006810Y009542D01*
X006810Y010660D01*
X007905Y010660D01*
X008005Y010760D01*
X008118Y010760D01*
X008051Y010693D01*
X008010Y010594D01*
X008010Y010486D01*
X008051Y010387D01*
X008127Y010311D01*
X008226Y010270D01*
X008295Y010270D01*
X008455Y010110D01*
X008955Y010110D01*
X009060Y010215D01*
X009060Y010215D01*
X009105Y010260D01*
X009210Y010365D01*
X009210Y010397D01*
X009276Y010370D01*
X009210Y010370D01*
X009177Y010319D02*
X009101Y010243D01*
X009060Y010144D01*
X009060Y010036D01*
X009101Y009937D01*
X009177Y009861D01*
X009276Y009820D01*
X009384Y009820D01*
X009480Y009860D01*
X010805Y009860D01*
X011150Y009515D01*
X011150Y008833D01*
X011084Y008860D01*
X010976Y008860D01*
X010877Y008819D01*
X010801Y008743D01*
X010760Y008644D01*
X010760Y008536D01*
X010801Y008437D01*
X010850Y008388D01*
X010850Y008015D01*
X010505Y007670D01*
X009205Y007670D01*
X009100Y007565D01*
X008913Y007377D01*
X008834Y007410D01*
X008726Y007410D01*
X008627Y007369D01*
X008580Y007322D01*
X008533Y007369D01*
X008434Y007410D01*
X008326Y007410D01*
X008227Y007369D01*
X008151Y007293D01*
X008110Y007194D01*
X008110Y007086D01*
X008137Y007020D01*
X007642Y007020D01*
X007659Y007037D01*
X007700Y007136D01*
X007700Y007244D01*
X007659Y007343D01*
X007610Y007392D01*
X007610Y007515D01*
X007560Y007565D01*
X007455Y007670D01*
X007150Y007670D01*
X007129Y007689D01*
X007183Y007711D01*
X007259Y007787D01*
X007300Y007886D01*
X007300Y007994D01*
X007259Y008093D01*
X007295Y008006D02*
X010841Y008006D01*
X010743Y007908D02*
X007300Y007908D01*
X007268Y007809D02*
X010644Y007809D01*
X010546Y007711D02*
X007182Y007711D01*
X007080Y007490D02*
X006530Y007990D01*
X006130Y007990D01*
X005480Y008640D01*
X003180Y008640D01*
X003030Y008490D01*
X002630Y008490D01*
X002283Y008794D02*
X001977Y008794D01*
X001973Y008893D02*
X001878Y008893D01*
X001874Y008991D02*
X000415Y008991D01*
X000415Y009090D02*
X001380Y009090D01*
X001281Y009188D02*
X000415Y009188D01*
X000415Y009287D02*
X001183Y009287D01*
X001170Y009385D02*
X000415Y009385D01*
X000415Y009484D02*
X001170Y009484D01*
X001170Y009582D02*
X000415Y009582D01*
X000415Y009681D02*
X001170Y009681D01*
X001268Y009779D02*
X000415Y009779D01*
X000415Y009878D02*
X001367Y009878D01*
X001395Y010075D02*
X000415Y010075D01*
X000415Y010173D02*
X001296Y010173D01*
X001198Y010272D02*
X000415Y010272D01*
X000415Y010370D02*
X001170Y010370D01*
X001170Y010469D02*
X000415Y010469D01*
X000415Y010567D02*
X001170Y010567D01*
X001410Y011060D02*
X000415Y011060D01*
X000415Y011158D02*
X001311Y011158D01*
X001213Y011257D02*
X000415Y011257D01*
X000415Y011355D02*
X001170Y011355D01*
X001170Y011454D02*
X000415Y011454D01*
X000415Y011552D02*
X001170Y011552D01*
X001170Y011651D02*
X000415Y011651D01*
X000415Y011749D02*
X001238Y011749D01*
X001337Y011848D02*
X000415Y011848D01*
X000415Y011946D02*
X001435Y011946D01*
X001425Y012045D02*
X000415Y012045D01*
X000415Y012143D02*
X001326Y012143D01*
X001228Y012242D02*
X000415Y012242D01*
X000415Y012340D02*
X001170Y012340D01*
X001170Y012439D02*
X000415Y012439D01*
X000415Y012537D02*
X001170Y012537D01*
X001170Y012636D02*
X000415Y012636D01*
X000415Y012734D02*
X001223Y012734D01*
X000911Y012990D02*
X000780Y013121D01*
X000911Y012990D02*
X002980Y012990D01*
X003180Y012790D01*
X003180Y012190D01*
X006380Y012190D01*
X006830Y011740D01*
X006730Y011440D02*
X006130Y011990D01*
X003830Y011990D01*
X003780Y011940D01*
X003780Y011590D01*
X004035Y011499D02*
X004050Y011536D01*
X004050Y011644D01*
X004009Y011743D01*
X003960Y011792D01*
X003960Y011810D01*
X006060Y011810D01*
X006605Y011310D01*
X006655Y011260D01*
X006660Y011260D01*
X006663Y011257D01*
X006734Y011260D01*
X007155Y011260D01*
X007260Y011365D01*
X007260Y011365D01*
X007305Y011410D01*
X007410Y011515D01*
X007410Y011538D01*
X007459Y011587D01*
X007500Y011686D01*
X007500Y011794D01*
X007459Y011893D01*
X007442Y011910D01*
X008445Y011910D01*
X008400Y011865D01*
X008100Y011565D01*
X008100Y011320D01*
X007705Y011320D01*
X007605Y011220D01*
X006455Y011220D01*
X006350Y011115D01*
X006200Y010965D01*
X006200Y009828D01*
X006177Y009819D01*
X006101Y009743D01*
X006060Y009644D01*
X006060Y009536D01*
X006075Y009499D01*
X005955Y009620D01*
X004142Y009620D01*
X004159Y009637D01*
X004200Y009736D01*
X004200Y009844D01*
X004159Y009943D01*
X004083Y010019D01*
X003984Y010060D01*
X003876Y010060D01*
X003777Y010019D01*
X003701Y009943D01*
X003660Y009844D01*
X003660Y009736D01*
X003701Y009637D01*
X003750Y009588D01*
X003750Y009465D01*
X003795Y009420D01*
X003605Y009420D01*
X003510Y009515D01*
X003510Y010965D01*
X003405Y011070D01*
X003405Y011070D01*
X003365Y011110D01*
X004155Y011110D01*
X004260Y011215D01*
X004355Y011310D01*
X005615Y011310D01*
X005710Y011231D01*
X005710Y011186D01*
X005751Y011087D01*
X005827Y011011D01*
X005926Y010970D01*
X006034Y010970D01*
X006133Y011011D01*
X006209Y011087D01*
X006250Y011186D01*
X006250Y011294D01*
X006209Y011393D01*
X006133Y011469D01*
X006034Y011510D01*
X005937Y011510D01*
X005802Y011623D01*
X005755Y011670D01*
X005745Y011670D01*
X005738Y011676D01*
X005672Y011670D01*
X004205Y011670D01*
X004035Y011499D01*
X004050Y011552D02*
X004087Y011552D01*
X004047Y011651D02*
X004186Y011651D01*
X004280Y011490D02*
X004080Y011290D01*
X003380Y011290D01*
X003280Y011390D01*
X003280Y011690D01*
X002980Y011990D01*
X002130Y011990D01*
X001630Y011490D01*
X001949Y011158D02*
X002311Y011158D01*
X002213Y011257D02*
X002047Y011257D01*
X002090Y011355D02*
X002170Y011355D01*
X002170Y011454D02*
X002090Y011454D01*
X002090Y011552D02*
X002170Y011552D01*
X002170Y011651D02*
X002090Y011651D01*
X002144Y011749D02*
X002238Y011749D01*
X001930Y012045D02*
X001835Y012045D01*
X001825Y011946D02*
X001831Y011946D01*
X001934Y012143D02*
X002028Y012143D01*
X002032Y012242D02*
X002228Y012242D01*
X002630Y011490D02*
X002730Y011490D01*
X003330Y010890D01*
X003330Y009440D01*
X003530Y009240D01*
X005780Y009240D01*
X006330Y008690D01*
X006530Y008690D01*
X006330Y008990D02*
X006780Y008990D01*
X007280Y008490D01*
X007430Y008490D01*
X007237Y008302D02*
X007150Y008302D01*
X007030Y007940D02*
X006880Y007940D01*
X006630Y008190D01*
X006230Y008190D01*
X005580Y008840D01*
X003330Y008840D01*
X003180Y008990D01*
X002130Y008990D01*
X001630Y009490D01*
X002090Y009484D02*
X002170Y009484D01*
X002170Y009582D02*
X002090Y009582D01*
X002090Y009681D02*
X002170Y009681D01*
X002268Y009779D02*
X001992Y009779D01*
X001893Y009878D02*
X002367Y009878D01*
X002395Y010075D02*
X001865Y010075D01*
X001964Y010173D02*
X002296Y010173D01*
X002198Y010272D02*
X002062Y010272D01*
X002090Y010370D02*
X002170Y010370D01*
X002170Y010469D02*
X002090Y010469D01*
X002090Y010567D02*
X002170Y010567D01*
X002170Y010666D02*
X002090Y010666D01*
X002007Y010764D02*
X002253Y010764D01*
X002352Y010863D02*
X001908Y010863D01*
X001850Y011060D02*
X002410Y011060D01*
X002850Y011060D02*
X002906Y011060D01*
X002930Y010490D02*
X002630Y010490D01*
X002865Y010075D02*
X002950Y010075D01*
X002950Y009976D02*
X000415Y009976D01*
X001071Y008893D02*
X001382Y008893D01*
X001283Y008794D02*
X001090Y008794D01*
X001090Y008696D02*
X001185Y008696D01*
X001170Y008597D02*
X001090Y008597D01*
X001090Y008499D02*
X001170Y008499D01*
X001170Y008400D02*
X001090Y008400D01*
X001090Y008302D02*
X001170Y008302D01*
X001172Y008203D02*
X001266Y008203D01*
X001270Y008105D02*
X001365Y008105D01*
X001310Y008006D02*
X001859Y008006D01*
X001863Y007908D02*
X001958Y007908D01*
X001962Y007809D02*
X002298Y007809D01*
X002200Y007711D02*
X002060Y007711D01*
X002090Y007612D02*
X002170Y007612D01*
X002170Y007514D02*
X002090Y007514D01*
X002090Y007415D02*
X002170Y007415D01*
X002170Y007317D02*
X002090Y007317D01*
X002009Y007218D02*
X002251Y007218D01*
X002271Y006810D02*
X001989Y006810D01*
X002110Y006689D01*
X002110Y006540D01*
X001680Y006540D01*
X001680Y006440D01*
X002110Y006440D01*
X002110Y006291D01*
X001989Y006170D01*
X002271Y006170D01*
X002150Y006291D01*
X002150Y006440D01*
X002580Y006440D01*
X002580Y006540D01*
X002150Y006540D01*
X002150Y006689D01*
X002271Y006810D01*
X002187Y006726D02*
X002073Y006726D01*
X002110Y006627D02*
X002150Y006627D01*
X002150Y006430D02*
X002110Y006430D01*
X002110Y006332D02*
X002150Y006332D01*
X002208Y006233D02*
X002052Y006233D01*
X001680Y006529D02*
X002580Y006529D01*
X002680Y006529D02*
X003768Y006529D01*
X003769Y006533D02*
X003763Y006517D01*
X003763Y006403D01*
X003807Y006297D01*
X003888Y006216D01*
X003993Y006173D01*
X004167Y006173D01*
X004272Y006216D01*
X004316Y006260D01*
X004495Y006260D01*
X004019Y005783D01*
X003983Y005819D01*
X003884Y005860D01*
X003776Y005860D01*
X003677Y005819D01*
X003601Y005743D01*
X003560Y005644D01*
X003560Y005536D01*
X003601Y005437D01*
X003618Y005420D01*
X003410Y005420D01*
X003410Y005815D01*
X003160Y006065D01*
X003055Y006170D01*
X002989Y006170D01*
X003110Y006291D01*
X003110Y006440D01*
X002680Y006440D01*
X002680Y006540D01*
X003110Y006540D01*
X003110Y006689D01*
X002922Y006877D01*
X002960Y006915D01*
X003360Y007315D01*
X003360Y007378D01*
X003377Y007361D01*
X003476Y007320D01*
X003584Y007320D01*
X003683Y007361D01*
X003732Y007410D01*
X003837Y007410D01*
X003810Y007344D01*
X003810Y007236D01*
X003851Y007137D01*
X003868Y007120D01*
X003868Y007120D01*
X003829Y007136D01*
X003770Y007147D01*
X003739Y007147D01*
X003739Y006869D01*
X003681Y006869D01*
X003681Y007147D01*
X003650Y007147D01*
X003591Y007136D01*
X003535Y007112D01*
X003484Y007079D01*
X003442Y007036D01*
X003408Y006986D01*
X003385Y006930D01*
X003373Y006870D01*
X003373Y006869D01*
X003681Y006869D01*
X003681Y006811D01*
X003739Y006811D01*
X003739Y006533D01*
X003769Y006533D01*
X003681Y006533D02*
X003681Y006811D01*
X003373Y006811D01*
X003373Y006810D01*
X003385Y006750D01*
X003408Y006694D01*
X003442Y006644D01*
X003484Y006601D01*
X003535Y006568D01*
X003591Y006544D01*
X003650Y006533D01*
X003681Y006533D01*
X003681Y006627D02*
X003739Y006627D01*
X003739Y006726D02*
X003681Y006726D01*
X003681Y006824D02*
X002975Y006824D01*
X002967Y006923D02*
X003383Y006923D01*
X003432Y007021D02*
X003066Y007021D01*
X003164Y007120D02*
X003552Y007120D01*
X003681Y007120D02*
X003739Y007120D01*
X003739Y007021D02*
X003681Y007021D01*
X003681Y006923D02*
X003739Y006923D01*
X003818Y007218D02*
X003263Y007218D01*
X003360Y007317D02*
X003810Y007317D01*
X004080Y007290D02*
X005630Y007290D01*
X006280Y006640D01*
X008380Y006640D01*
X008780Y007040D01*
X008780Y007140D01*
X008950Y007415D02*
X007610Y007415D01*
X007610Y007514D02*
X009049Y007514D01*
X009147Y007612D02*
X007513Y007612D01*
X007380Y007490D02*
X007080Y007490D01*
X007380Y007490D02*
X007430Y007440D01*
X007430Y007190D01*
X007670Y007317D02*
X008175Y007317D01*
X008120Y007218D02*
X007700Y007218D01*
X007693Y007120D02*
X008110Y007120D01*
X008137Y007021D02*
X007643Y007021D01*
X008280Y006840D02*
X006380Y006840D01*
X005280Y007940D01*
X003380Y007940D01*
X003180Y007740D01*
X003180Y007390D01*
X002780Y006990D01*
X001330Y006990D01*
X001130Y007190D01*
X001130Y007990D01*
X000630Y008490D01*
X001310Y007908D02*
X001397Y007908D01*
X001630Y008490D02*
X002130Y007990D01*
X002830Y007990D01*
X003280Y008440D01*
X005380Y008440D01*
X006130Y007690D01*
X006430Y007690D01*
X006630Y007490D01*
X006830Y007140D02*
X006380Y007140D01*
X005280Y008240D01*
X003380Y008240D01*
X002630Y007490D01*
X002266Y008203D02*
X002172Y008203D01*
X002170Y008302D02*
X002090Y008302D01*
X002090Y008400D02*
X002170Y008400D01*
X002170Y008499D02*
X002090Y008499D01*
X002090Y008597D02*
X002170Y008597D01*
X002185Y008696D02*
X002075Y008696D01*
X002187Y009188D02*
X002281Y009188D01*
X002183Y009287D02*
X002088Y009287D01*
X002090Y009385D02*
X002170Y009385D01*
X002893Y009878D02*
X002950Y009878D01*
X003510Y009878D02*
X003674Y009878D01*
X003660Y009779D02*
X003510Y009779D01*
X003510Y009681D02*
X003683Y009681D01*
X003750Y009582D02*
X003510Y009582D01*
X003541Y009484D02*
X003750Y009484D01*
X003930Y009540D02*
X003930Y009790D01*
X003930Y009540D02*
X004030Y009440D01*
X005880Y009440D01*
X006330Y008990D01*
X006630Y009340D02*
X006630Y010790D01*
X006680Y010840D01*
X007380Y010840D01*
X007730Y010840D01*
X007830Y010840D01*
X007930Y010940D01*
X008080Y010940D01*
X008380Y010940D01*
X008480Y011040D01*
X008480Y011340D01*
X008730Y011590D01*
X009480Y011590D01*
X009630Y011740D01*
X010980Y011740D01*
X011030Y011740D01*
X011180Y011590D01*
X011580Y011190D01*
X012680Y011190D01*
X013080Y011590D01*
X013080Y012540D01*
X012530Y013090D01*
X012530Y014590D01*
X012430Y014690D01*
X012430Y014740D01*
X012330Y014390D02*
X011830Y014890D01*
X011180Y014890D01*
X010780Y015290D01*
X010680Y015290D01*
X010777Y015038D02*
X011105Y014710D01*
X011755Y014710D01*
X012150Y014315D01*
X012150Y014120D01*
X012132Y014120D01*
X012083Y014169D01*
X011984Y014210D01*
X011876Y014210D01*
X011777Y014169D01*
X011701Y014093D01*
X011660Y013994D01*
X011660Y013886D01*
X011701Y013787D01*
X011777Y013711D01*
X011876Y013670D01*
X011950Y013670D01*
X011950Y012820D01*
X011355Y012820D01*
X011060Y012820D01*
X011060Y013515D01*
X010955Y013620D01*
X010755Y013820D01*
X010406Y013820D01*
X010413Y013832D01*
X010424Y013870D01*
X010424Y014332D01*
X009930Y014332D01*
X009930Y014079D01*
X009909Y014079D01*
X009909Y013505D01*
X009851Y013505D01*
X009851Y014079D01*
X009830Y014079D01*
X009830Y014332D01*
X009930Y014332D01*
X009930Y014432D01*
X010424Y014432D01*
X010424Y014894D01*
X010413Y014932D01*
X010394Y014966D01*
X010366Y014994D01*
X010332Y015014D01*
X010293Y015024D01*
X009930Y015024D01*
X009930Y014432D01*
X009830Y014432D01*
X009830Y014332D01*
X009336Y014332D01*
X009336Y013870D01*
X009347Y013832D01*
X009366Y013798D01*
X009394Y013770D01*
X009428Y013750D01*
X009467Y013740D01*
X009573Y013740D01*
X009573Y013555D01*
X009501Y013626D01*
X009078Y013626D01*
X009060Y013608D01*
X009060Y014040D01*
X009100Y014136D01*
X009100Y014244D01*
X009060Y014340D01*
X009060Y014645D01*
X009346Y014931D01*
X009336Y014894D01*
X009336Y014432D01*
X009830Y014432D01*
X009830Y015024D01*
X009467Y015024D01*
X009430Y015014D01*
X009460Y015045D01*
X009460Y015345D01*
X009525Y015410D01*
X010437Y015410D01*
X010410Y015344D01*
X010410Y015236D01*
X010451Y015137D01*
X010527Y015061D01*
X010626Y015020D01*
X010734Y015020D01*
X010777Y015038D01*
X010816Y015000D02*
X010357Y015000D01*
X010422Y014901D02*
X010914Y014901D01*
X011013Y014803D02*
X010424Y014803D01*
X010424Y014704D02*
X011761Y014704D01*
X011860Y014606D02*
X010424Y014606D01*
X010424Y014507D02*
X011958Y014507D01*
X012057Y014409D02*
X009930Y014409D01*
X009930Y014507D02*
X009830Y014507D01*
X009830Y014409D02*
X009060Y014409D01*
X009060Y014507D02*
X009336Y014507D01*
X009336Y014606D02*
X009060Y014606D01*
X009119Y014704D02*
X009336Y014704D01*
X009336Y014803D02*
X009218Y014803D01*
X009316Y014901D02*
X009338Y014901D01*
X009460Y015098D02*
X010490Y015098D01*
X010426Y015197D02*
X009460Y015197D01*
X009460Y015295D02*
X010410Y015295D01*
X010431Y015394D02*
X009509Y015394D01*
X009830Y015000D02*
X009930Y015000D01*
X009930Y014901D02*
X009830Y014901D01*
X009830Y014803D02*
X009930Y014803D01*
X009930Y014704D02*
X009830Y014704D01*
X009830Y014606D02*
X009930Y014606D01*
X009930Y014310D02*
X009830Y014310D01*
X009830Y014212D02*
X009930Y014212D01*
X009930Y014113D02*
X009830Y014113D01*
X009851Y014015D02*
X009909Y014015D01*
X009909Y013916D02*
X009851Y013916D01*
X009851Y013818D02*
X009909Y013818D01*
X009909Y013719D02*
X009851Y013719D01*
X009851Y013621D02*
X009909Y013621D01*
X009909Y013522D02*
X009851Y013522D01*
X009851Y013448D02*
X009909Y013448D01*
X009909Y012874D01*
X010000Y012874D01*
X010000Y012860D01*
X009926Y012860D01*
X009827Y012819D01*
X009751Y012743D01*
X009710Y012644D01*
X009710Y012536D01*
X009729Y012490D01*
X009534Y012490D01*
X009392Y012632D01*
X009322Y012702D01*
X009230Y012740D01*
X009005Y012740D01*
X009010Y012745D01*
X009060Y012795D01*
X009060Y012910D01*
X009062Y012910D01*
X009078Y012894D01*
X009501Y012894D01*
X009577Y012970D01*
X009577Y012988D01*
X009583Y012966D01*
X009602Y012932D01*
X009630Y012904D01*
X009665Y012884D01*
X009703Y012874D01*
X009851Y012874D01*
X009851Y013448D01*
X009851Y013424D02*
X009909Y013424D01*
X009909Y013325D02*
X009851Y013325D01*
X009851Y013227D02*
X009909Y013227D01*
X009909Y013128D02*
X009851Y013128D01*
X009851Y013030D02*
X009909Y013030D01*
X009909Y012931D02*
X009851Y012931D01*
X009860Y012833D02*
X009060Y012833D01*
X009244Y012734D02*
X009747Y012734D01*
X009710Y012636D02*
X009388Y012636D01*
X009487Y012537D02*
X009710Y012537D01*
X009980Y012590D02*
X010130Y012590D01*
X010180Y012640D01*
X010180Y013590D01*
X010230Y013640D01*
X010680Y013640D01*
X010880Y013440D01*
X010880Y012640D01*
X011430Y012640D01*
X012030Y012640D01*
X012130Y012740D01*
X012130Y013940D01*
X011930Y013940D01*
X011688Y013818D02*
X010757Y013818D01*
X010856Y013719D02*
X011769Y013719D01*
X011950Y013621D02*
X010954Y013621D01*
X011053Y013522D02*
X011950Y013522D01*
X011950Y013424D02*
X011060Y013424D01*
X011060Y013325D02*
X011950Y013325D01*
X011950Y013227D02*
X011060Y013227D01*
X011060Y013128D02*
X011950Y013128D01*
X011950Y013030D02*
X011060Y013030D01*
X011060Y012931D02*
X011950Y012931D01*
X011950Y012833D02*
X011060Y012833D01*
X011525Y012110D02*
X012330Y012110D01*
X012426Y012070D01*
X012534Y012070D01*
X012633Y012111D01*
X012700Y012178D01*
X012700Y011815D01*
X012455Y011570D01*
X011755Y011570D01*
X011355Y011970D01*
X011315Y012010D01*
X011425Y012010D01*
X011525Y012110D01*
X011460Y012045D02*
X012700Y012045D01*
X012700Y012143D02*
X012665Y012143D01*
X012700Y011946D02*
X011379Y011946D01*
X011477Y011848D02*
X012700Y011848D01*
X012634Y011749D02*
X011576Y011749D01*
X011674Y011651D02*
X012536Y011651D01*
X012530Y011390D02*
X012880Y011740D01*
X012880Y012390D01*
X012330Y012940D01*
X012330Y014390D01*
X012150Y014310D02*
X010424Y014310D01*
X010424Y014212D02*
X012150Y014212D01*
X011721Y014113D02*
X010424Y014113D01*
X010424Y014015D02*
X011669Y014015D01*
X011660Y013916D02*
X010424Y013916D01*
X009573Y013719D02*
X009060Y013719D01*
X009060Y013621D02*
X009072Y013621D01*
X009060Y013818D02*
X009355Y013818D01*
X009336Y013916D02*
X009060Y013916D01*
X009060Y014015D02*
X009336Y014015D01*
X009336Y014113D02*
X009090Y014113D01*
X009100Y014212D02*
X009336Y014212D01*
X009336Y014310D02*
X009073Y014310D01*
X008600Y013719D02*
X008514Y013719D01*
X008600Y013621D02*
X008415Y013621D01*
X008317Y013522D02*
X008600Y013522D01*
X008600Y013424D02*
X008218Y013424D01*
X008120Y013325D02*
X008600Y013325D01*
X008600Y013227D02*
X007319Y013227D01*
X007290Y013325D02*
X007220Y013325D01*
X007192Y013424D02*
X004207Y013424D01*
X003853Y013424D02*
X003707Y013424D01*
X003707Y013522D02*
X007093Y013522D01*
X007000Y013621D02*
X003707Y013621D01*
X003671Y013719D02*
X006938Y013719D01*
X006910Y013818D02*
X003687Y013818D01*
X003687Y013916D02*
X006919Y013916D01*
X006973Y014015D02*
X003665Y014015D01*
X003600Y014113D02*
X008098Y014113D01*
X008150Y014212D02*
X000415Y014212D01*
X000415Y014310D02*
X001407Y014310D01*
X001429Y014305D02*
X001563Y014290D01*
X001580Y014290D01*
X001580Y015440D01*
X001680Y015440D01*
X001680Y015540D01*
X002830Y015540D01*
X002830Y015557D01*
X002815Y015691D01*
X002785Y015823D01*
X002740Y015950D01*
X002682Y016071D01*
X002610Y016185D01*
X002526Y016291D01*
X002431Y016386D01*
X002325Y016470D01*
X002211Y016542D01*
X002090Y016600D01*
X001963Y016645D01*
X001831Y016675D01*
X001697Y016690D01*
X001680Y016690D01*
X001680Y015540D01*
X001580Y015540D01*
X001580Y016690D01*
X001563Y016690D01*
X001429Y016675D01*
X001297Y016645D01*
X001170Y016600D01*
X001049Y016542D01*
X000934Y016470D01*
X000829Y016386D01*
X000734Y016291D01*
X000650Y016185D01*
X000578Y016071D01*
X000520Y015950D01*
X000475Y015823D01*
X000445Y015691D01*
X000430Y015557D01*
X000430Y015540D01*
X001580Y015540D01*
X001580Y015440D01*
X000430Y015440D01*
X000430Y015423D01*
X000445Y015289D01*
X000475Y015157D01*
X000520Y015030D01*
X000578Y014909D01*
X000650Y014794D01*
X000734Y014689D01*
X000829Y014594D01*
X000934Y014510D01*
X001049Y014438D01*
X001170Y014380D01*
X001297Y014335D01*
X001429Y014305D01*
X001580Y014310D02*
X001680Y014310D01*
X001680Y014290D02*
X001697Y014290D01*
X001831Y014305D01*
X001963Y014335D01*
X002090Y014380D01*
X002211Y014438D01*
X002325Y014510D01*
X002431Y014594D01*
X002526Y014689D01*
X002610Y014794D01*
X002682Y014909D01*
X002740Y015030D01*
X002785Y015157D01*
X002815Y015289D01*
X002830Y015423D01*
X002830Y015440D01*
X001680Y015440D01*
X001680Y014290D01*
X001680Y014409D02*
X001580Y014409D01*
X001580Y014507D02*
X001680Y014507D01*
X001680Y014606D02*
X001580Y014606D01*
X001580Y014704D02*
X001680Y014704D01*
X001680Y014803D02*
X001580Y014803D01*
X001580Y014901D02*
X001680Y014901D01*
X001680Y015000D02*
X001580Y015000D01*
X001580Y015098D02*
X001680Y015098D01*
X001680Y015197D02*
X001580Y015197D01*
X001580Y015295D02*
X001680Y015295D01*
X001680Y015394D02*
X001580Y015394D01*
X001580Y015492D02*
X000415Y015492D01*
X000415Y015394D02*
X000433Y015394D01*
X000444Y015295D02*
X000415Y015295D01*
X000415Y015197D02*
X000466Y015197D01*
X000496Y015098D02*
X000415Y015098D01*
X000415Y015000D02*
X000534Y015000D01*
X000583Y014901D02*
X000415Y014901D01*
X000415Y014803D02*
X000645Y014803D01*
X000722Y014704D02*
X000415Y014704D01*
X000415Y014606D02*
X000817Y014606D01*
X000939Y014507D02*
X000415Y014507D01*
X000415Y014409D02*
X001110Y014409D01*
X001000Y014113D02*
X003160Y014113D01*
X003141Y014095D02*
X003108Y014044D01*
X003084Y013988D01*
X003073Y013929D01*
X003073Y013888D01*
X003351Y013888D01*
X003351Y014206D01*
X003350Y014206D01*
X003290Y014194D01*
X003234Y014171D01*
X003184Y014137D01*
X003141Y014095D01*
X003095Y014015D02*
X001065Y014015D01*
X001087Y013916D02*
X001405Y013916D01*
X001307Y013818D02*
X001087Y013818D01*
X001071Y013719D02*
X001208Y013719D01*
X000809Y013916D02*
X000751Y013916D01*
X000751Y013888D02*
X000751Y014206D01*
X000750Y014206D01*
X000690Y014194D01*
X000634Y014171D01*
X000584Y014137D01*
X000541Y014095D01*
X000508Y014044D01*
X000484Y013988D01*
X000473Y013929D01*
X000473Y013888D01*
X000751Y013888D01*
X000751Y014015D02*
X000809Y014015D01*
X000809Y014113D02*
X000751Y014113D01*
X000560Y014113D02*
X000415Y014113D01*
X000415Y014015D02*
X000495Y014015D01*
X000473Y013916D02*
X000415Y013916D01*
X000415Y013818D02*
X000473Y013818D01*
X000489Y013719D02*
X000415Y013719D01*
X000415Y013621D02*
X000453Y013621D01*
X000453Y013522D02*
X000415Y013522D01*
X000415Y013424D02*
X000453Y013424D01*
X000415Y013227D02*
X000496Y013227D01*
X000493Y013128D02*
X000415Y013128D01*
X000415Y013030D02*
X000493Y013030D01*
X000531Y012931D02*
X000415Y012931D01*
X000415Y012833D02*
X000629Y012833D01*
X001855Y013916D02*
X002405Y013916D01*
X002307Y013818D02*
X001953Y013818D01*
X002052Y013719D02*
X002208Y013719D01*
X002170Y013621D02*
X002090Y013621D01*
X002090Y013522D02*
X002170Y013522D01*
X002170Y013424D02*
X002090Y013424D01*
X002090Y013325D02*
X002170Y013325D01*
X002243Y013227D02*
X002017Y013227D01*
X002855Y013916D02*
X003073Y013916D01*
X003073Y013818D02*
X002953Y013818D01*
X003052Y013719D02*
X003089Y013719D01*
X003351Y013916D02*
X003409Y013916D01*
X003409Y014015D02*
X003351Y014015D01*
X003351Y014113D02*
X003409Y014113D01*
X003664Y013227D02*
X003740Y013227D01*
X003742Y013128D02*
X003667Y013128D01*
X003667Y013030D02*
X003705Y013030D01*
X003380Y013121D02*
X003380Y012390D01*
X006530Y012390D01*
X006830Y012090D01*
X008830Y012090D01*
X008980Y011790D02*
X008580Y011790D01*
X008280Y011490D01*
X008280Y011190D01*
X008230Y011140D01*
X007780Y011140D01*
X007680Y011040D01*
X006530Y011040D01*
X006380Y010890D01*
X006380Y009640D01*
X006330Y009590D01*
X006137Y009779D02*
X004200Y009779D01*
X004186Y009878D02*
X006200Y009878D01*
X006200Y009976D02*
X004126Y009976D01*
X004177Y009681D02*
X006075Y009681D01*
X006060Y009582D02*
X005993Y009582D01*
X006200Y010075D02*
X003510Y010075D01*
X003510Y010173D02*
X006200Y010173D01*
X006200Y010272D02*
X003510Y010272D01*
X003510Y010370D02*
X006200Y010370D01*
X006200Y010469D02*
X003510Y010469D01*
X003510Y010567D02*
X006200Y010567D01*
X006200Y010666D02*
X003510Y010666D01*
X003510Y010764D02*
X006200Y010764D01*
X006200Y010863D02*
X003510Y010863D01*
X003510Y010961D02*
X006200Y010961D01*
X006181Y011060D02*
X006295Y011060D01*
X006238Y011158D02*
X006393Y011158D01*
X006250Y011257D02*
X007642Y011257D01*
X007348Y011454D02*
X008100Y011454D01*
X008100Y011552D02*
X007424Y011552D01*
X007485Y011651D02*
X008186Y011651D01*
X008284Y011749D02*
X007500Y011749D01*
X007478Y011848D02*
X008383Y011848D01*
X008100Y011355D02*
X007250Y011355D01*
X007305Y011410D02*
X007305Y011410D01*
X007230Y011590D02*
X007080Y011440D01*
X006730Y011440D01*
X006556Y011355D02*
X006225Y011355D01*
X006148Y011454D02*
X006449Y011454D01*
X006341Y011552D02*
X005887Y011552D01*
X005774Y011651D02*
X006234Y011651D01*
X006127Y011749D02*
X004003Y011749D01*
X004280Y011490D02*
X005680Y011490D01*
X005980Y011240D01*
X005779Y011060D02*
X003415Y011060D01*
X004203Y011158D02*
X005722Y011158D01*
X005679Y011257D02*
X004301Y011257D01*
X003734Y009976D02*
X003510Y009976D01*
X003530Y007590D02*
X004880Y007590D01*
X004080Y006460D02*
X004100Y006440D01*
X008580Y006440D01*
X009080Y006940D01*
X009080Y007290D01*
X009280Y007490D01*
X010580Y007490D01*
X011030Y007940D01*
X011030Y008590D01*
X010838Y008400D02*
X007685Y008400D01*
X007700Y008499D02*
X010776Y008499D01*
X010760Y008597D02*
X007678Y008597D01*
X007606Y008696D02*
X010781Y008696D01*
X010852Y008794D02*
X007231Y008794D01*
X007132Y008893D02*
X011150Y008893D01*
X011150Y008991D02*
X007034Y008991D01*
X006935Y009090D02*
X011150Y009090D01*
X011150Y009188D02*
X006859Y009188D01*
X006900Y009287D02*
X011150Y009287D01*
X011150Y009385D02*
X006900Y009385D01*
X006863Y009484D02*
X011150Y009484D01*
X011083Y009582D02*
X006810Y009582D01*
X006810Y009681D02*
X010985Y009681D01*
X010886Y009779D02*
X006810Y009779D01*
X006810Y009878D02*
X009161Y009878D01*
X009085Y009976D02*
X006810Y009976D01*
X006810Y010075D02*
X009060Y010075D01*
X009072Y010173D02*
X009018Y010173D01*
X009105Y010260D02*
X009105Y010260D01*
X009116Y010272D02*
X009130Y010272D01*
X009177Y010319D02*
X009276Y010360D01*
X009360Y010360D01*
X009360Y010370D01*
X009276Y010370D01*
X009330Y010090D02*
X009330Y010040D01*
X010880Y010040D01*
X011330Y009590D01*
X011330Y008190D01*
X011430Y008090D01*
X011430Y007040D01*
X011580Y006890D01*
X012930Y005540D01*
X012930Y005140D01*
X013580Y004490D01*
X013630Y004490D01*
X013680Y004490D01*
X013961Y004810D02*
X014205Y004810D01*
X014310Y004915D01*
X014432Y005037D01*
X014439Y005030D01*
X014821Y005030D01*
X015030Y005239D01*
X015030Y004769D01*
X014829Y004970D01*
X014680Y004970D01*
X014680Y004540D01*
X014580Y004540D01*
X014580Y004970D01*
X014431Y004970D01*
X014150Y004689D01*
X014150Y004540D01*
X014580Y004540D01*
X014580Y004440D01*
X014150Y004440D01*
X014150Y004291D01*
X014278Y004163D01*
X014238Y004180D01*
X014122Y004180D01*
X014026Y004140D01*
X013931Y004140D01*
X014090Y004299D01*
X014090Y004681D01*
X013961Y004810D01*
X014015Y004756D02*
X014217Y004756D01*
X014249Y004854D02*
X014315Y004854D01*
X014347Y004953D02*
X014414Y004953D01*
X014580Y004953D02*
X014680Y004953D01*
X014680Y004854D02*
X014580Y004854D01*
X014580Y004756D02*
X014680Y004756D01*
X014680Y004657D02*
X014580Y004657D01*
X014580Y004559D02*
X014680Y004559D01*
X014580Y004460D02*
X014090Y004460D01*
X014090Y004362D02*
X014150Y004362D01*
X014178Y004263D02*
X014054Y004263D01*
X014085Y004165D02*
X013955Y004165D01*
X014275Y004165D02*
X014277Y004165D01*
X014150Y004559D02*
X014090Y004559D01*
X014090Y004657D02*
X014150Y004657D01*
X014130Y004990D02*
X013430Y004990D01*
X013130Y005290D01*
X013130Y005690D01*
X012380Y006440D01*
X012380Y006590D01*
X011630Y007340D01*
X011630Y008240D01*
X011530Y008340D01*
X011530Y009690D01*
X010980Y010240D01*
X010280Y010240D01*
X010130Y010390D01*
X009630Y010390D01*
X009330Y010640D02*
X009330Y010990D01*
X009830Y010990D01*
X009980Y011140D01*
X010730Y011140D01*
X011980Y009890D01*
X011980Y009190D01*
X012430Y008740D01*
X012830Y008740D01*
X013080Y008490D01*
X013630Y008490D01*
X013977Y008794D02*
X014283Y008794D01*
X014185Y008696D02*
X014075Y008696D01*
X014090Y008597D02*
X014170Y008597D01*
X014170Y008499D02*
X014090Y008499D01*
X014090Y008400D02*
X014170Y008400D01*
X014170Y008302D02*
X014090Y008302D01*
X014088Y008203D02*
X013994Y008203D01*
X014130Y007990D02*
X014630Y008490D01*
X014977Y008794D02*
X015845Y008794D01*
X015845Y008696D02*
X015075Y008696D01*
X015090Y008597D02*
X015845Y008597D01*
X015845Y008499D02*
X015090Y008499D01*
X015090Y008400D02*
X015845Y008400D01*
X015845Y008302D02*
X015090Y008302D01*
X014994Y008203D02*
X015845Y008203D01*
X015845Y008105D02*
X015476Y008105D01*
X015546Y008006D02*
X015845Y008006D01*
X015845Y007908D02*
X015570Y007908D01*
X015560Y007809D02*
X015845Y007809D01*
X015845Y007711D02*
X015530Y007711D01*
X015530Y007612D02*
X015845Y007612D01*
X015845Y007514D02*
X015530Y007514D01*
X015530Y007415D02*
X015845Y007415D01*
X015845Y007317D02*
X015530Y007317D01*
X015530Y007218D02*
X015845Y007218D01*
X015845Y007120D02*
X015530Y007120D01*
X015530Y007021D02*
X015845Y007021D01*
X015845Y006923D02*
X015530Y006923D01*
X015530Y006824D02*
X015845Y006824D01*
X015845Y006726D02*
X015530Y006726D01*
X015530Y006627D02*
X015845Y006627D01*
X015845Y006529D02*
X015530Y006529D01*
X015530Y006430D02*
X015845Y006430D01*
X015845Y006332D02*
X015530Y006332D01*
X015530Y006233D02*
X015845Y006233D01*
X015845Y006135D02*
X015530Y006135D01*
X015530Y006036D02*
X015845Y006036D01*
X015845Y005938D02*
X015530Y005938D01*
X015530Y005839D02*
X015845Y005839D01*
X015845Y005741D02*
X015530Y005741D01*
X015530Y005642D02*
X015845Y005642D01*
X015845Y005544D02*
X015530Y005544D01*
X015530Y005445D02*
X015845Y005445D01*
X015845Y005347D02*
X015530Y005347D01*
X015530Y005248D02*
X015845Y005248D01*
X015845Y005150D02*
X015530Y005150D01*
X015530Y005051D02*
X015845Y005051D01*
X015845Y004953D02*
X015530Y004953D01*
X015530Y004854D02*
X015845Y004854D01*
X015845Y004756D02*
X015530Y004756D01*
X015530Y004657D02*
X015845Y004657D01*
X015845Y004559D02*
X015530Y004559D01*
X015530Y004460D02*
X015845Y004460D01*
X015845Y004362D02*
X015530Y004362D01*
X015530Y004263D02*
X015845Y004263D01*
X015845Y004165D02*
X015530Y004165D01*
X015530Y004066D02*
X015845Y004066D01*
X015845Y003968D02*
X015521Y003968D01*
X015463Y003869D02*
X015845Y003869D01*
X015845Y003771D02*
X015364Y003771D01*
X015257Y003672D02*
X015845Y003672D01*
X015845Y003574D02*
X015146Y003574D01*
X015318Y003475D02*
X015845Y003475D01*
X015845Y003377D02*
X015441Y003377D01*
X015536Y003278D02*
X015845Y003278D01*
X015845Y003180D02*
X015614Y003180D01*
X015676Y003081D02*
X015845Y003081D01*
X015845Y002983D02*
X015725Y002983D01*
X015763Y002884D02*
X015845Y002884D01*
X015845Y002786D02*
X015793Y002786D01*
X015815Y002687D02*
X015845Y002687D01*
X015845Y002589D02*
X015826Y002589D01*
X015845Y002490D02*
X014680Y002490D01*
X014680Y002440D02*
X015830Y002440D01*
X015830Y002423D01*
X015815Y002289D01*
X015785Y002157D01*
X015740Y002030D01*
X015682Y001909D01*
X015610Y001794D01*
X015526Y001689D01*
X015431Y001594D01*
X015325Y001510D01*
X015211Y001438D01*
X015090Y001380D01*
X014963Y001335D01*
X014831Y001305D01*
X014697Y001290D01*
X014680Y001290D01*
X014680Y002440D01*
X014680Y002391D02*
X014580Y002391D01*
X014580Y002440D02*
X014580Y001290D01*
X014563Y001290D01*
X014429Y001305D01*
X014297Y001335D01*
X014170Y001380D01*
X014049Y001438D01*
X013934Y001510D01*
X013829Y001594D01*
X013734Y001689D01*
X013650Y001794D01*
X013578Y001909D01*
X013520Y002030D01*
X013475Y002157D01*
X013445Y002289D01*
X013430Y002423D01*
X013430Y002440D01*
X014580Y002440D01*
X014580Y002490D02*
X013430Y002490D01*
X013430Y002589D02*
X013434Y002589D01*
X013430Y002687D02*
X013445Y002687D01*
X013430Y002786D02*
X013467Y002786D01*
X013497Y002884D02*
X013430Y002884D01*
X013430Y002983D02*
X013535Y002983D01*
X013584Y003081D02*
X013430Y003081D01*
X013430Y003180D02*
X013646Y003180D01*
X013724Y003278D02*
X013430Y003278D01*
X013430Y003377D02*
X013819Y003377D01*
X013942Y003475D02*
X013430Y003475D01*
X013430Y003574D02*
X014114Y003574D01*
X014580Y002293D02*
X014680Y002293D01*
X014680Y002194D02*
X014580Y002194D01*
X014580Y002096D02*
X014680Y002096D01*
X014680Y001997D02*
X014580Y001997D01*
X014580Y001899D02*
X014680Y001899D01*
X014680Y001800D02*
X014580Y001800D01*
X014580Y001702D02*
X014680Y001702D01*
X014680Y001603D02*
X014580Y001603D01*
X014580Y001505D02*
X014680Y001505D01*
X014680Y001406D02*
X014580Y001406D01*
X014580Y001308D02*
X014680Y001308D01*
X014844Y001308D02*
X015845Y001308D01*
X015845Y001406D02*
X015146Y001406D01*
X015318Y001505D02*
X015845Y001505D01*
X015845Y001603D02*
X015441Y001603D01*
X015536Y001702D02*
X015845Y001702D01*
X015845Y001800D02*
X015614Y001800D01*
X015676Y001899D02*
X015845Y001899D01*
X015845Y001997D02*
X015725Y001997D01*
X015763Y002096D02*
X015845Y002096D01*
X015845Y002194D02*
X015793Y002194D01*
X015815Y002293D02*
X015845Y002293D01*
X015845Y002391D02*
X015826Y002391D01*
X014416Y001308D02*
X013023Y001308D01*
X013204Y001406D02*
X014114Y001406D01*
X013942Y001505D02*
X013302Y001505D01*
X013344Y001603D02*
X013819Y001603D01*
X013724Y001702D02*
X013380Y001702D01*
X013380Y001800D02*
X013646Y001800D01*
X013584Y001899D02*
X013413Y001899D01*
X013430Y001997D02*
X013535Y001997D01*
X013497Y002096D02*
X013430Y002096D01*
X013430Y002194D02*
X013467Y002194D01*
X013445Y002293D02*
X013430Y002293D01*
X013430Y002391D02*
X013434Y002391D01*
X012930Y002391D02*
X008210Y002391D01*
X008210Y002370D02*
X008210Y002544D01*
X008251Y002544D01*
X008327Y002620D01*
X008327Y002638D01*
X008333Y002616D01*
X008352Y002582D01*
X008380Y002554D01*
X008415Y002534D01*
X008453Y002524D01*
X008601Y002524D01*
X008601Y003098D01*
X008659Y003098D01*
X008659Y002524D01*
X008807Y002524D01*
X008845Y002534D01*
X008880Y002554D01*
X008908Y002582D01*
X008927Y002616D01*
X008933Y002638D01*
X008933Y002620D01*
X009009Y002544D01*
X009432Y002544D01*
X009508Y002620D01*
X009508Y002752D01*
X009572Y002778D01*
X009642Y002848D01*
X009680Y002940D01*
X009680Y003636D01*
X009720Y003732D01*
X009720Y003848D01*
X009680Y003944D01*
X009680Y004190D01*
X010180Y004190D01*
X010272Y004228D01*
X010648Y004604D01*
X010744Y004644D01*
X010826Y004726D01*
X010866Y004822D01*
X010984Y004940D01*
X012320Y004940D01*
X012730Y004493D01*
X012730Y004341D01*
X012684Y004360D01*
X012576Y004360D01*
X012477Y004319D01*
X012401Y004243D01*
X012360Y004144D01*
X012360Y004036D01*
X012401Y003937D01*
X012450Y003888D01*
X012450Y003492D01*
X012401Y003443D01*
X012360Y003344D01*
X012360Y003236D01*
X012401Y003137D01*
X012477Y003061D01*
X012576Y003020D01*
X012684Y003020D01*
X012783Y003061D01*
X012859Y003137D01*
X012900Y003236D01*
X012900Y003344D01*
X012859Y003443D01*
X012810Y003492D01*
X012810Y003888D01*
X012859Y003937D01*
X012894Y004022D01*
X012930Y003986D01*
X012930Y002290D01*
X012781Y002290D01*
X012597Y002214D01*
X012456Y002073D01*
X012388Y001908D01*
X012387Y001912D01*
X012362Y001990D01*
X012325Y002063D01*
X012277Y002129D01*
X012219Y002187D01*
X012153Y002235D01*
X012080Y002272D01*
X012002Y002297D01*
X011930Y002309D01*
X011930Y001840D01*
X011830Y001840D01*
X011830Y002309D01*
X011758Y002297D01*
X011680Y002272D01*
X011607Y002235D01*
X011541Y002187D01*
X011483Y002129D01*
X011435Y002063D01*
X011398Y001990D01*
X011373Y001912D01*
X011361Y001840D01*
X011830Y001840D01*
X011830Y001740D01*
X011361Y001740D01*
X011373Y001668D01*
X011398Y001590D01*
X011435Y001517D01*
X011483Y001451D01*
X011541Y001393D01*
X011607Y001345D01*
X011680Y001308D01*
X011758Y001283D01*
X011808Y001275D01*
X004873Y001275D01*
X004972Y001316D01*
X005036Y001380D01*
X006175Y001380D01*
X006355Y001560D01*
X006460Y001665D01*
X006460Y003965D01*
X006605Y004110D01*
X006710Y004215D01*
X006710Y004326D01*
X006772Y004300D01*
X006888Y004300D01*
X006994Y004344D01*
X007076Y004426D01*
X007120Y004532D01*
X007120Y004630D01*
X007290Y004630D01*
X007290Y004532D01*
X007334Y004426D01*
X007416Y004344D01*
X007522Y004300D01*
X007638Y004300D01*
X007730Y004338D01*
X007730Y004307D01*
X007650Y004227D01*
X007600Y004106D01*
X007600Y003974D01*
X007650Y003853D01*
X007743Y003760D01*
X007864Y003710D01*
X007996Y003710D01*
X008086Y003748D01*
X008086Y003520D01*
X008097Y003482D01*
X008116Y003448D01*
X008144Y003420D01*
X008178Y003400D01*
X008217Y003390D01*
X008323Y003390D01*
X008323Y003205D01*
X008251Y003276D01*
X007828Y003276D01*
X007752Y003200D01*
X007752Y003007D01*
X007750Y003005D01*
X007750Y002370D01*
X007734Y002354D01*
X007690Y002248D01*
X007690Y002132D01*
X007734Y002026D01*
X007816Y001944D01*
X007922Y001900D01*
X008038Y001900D01*
X008144Y001944D01*
X008226Y002026D01*
X008270Y002132D01*
X008270Y002248D01*
X008226Y002354D01*
X008210Y002370D01*
X008251Y002293D02*
X011745Y002293D01*
X011830Y002293D02*
X011930Y002293D01*
X012015Y002293D02*
X012930Y002293D01*
X012930Y002490D02*
X008210Y002490D01*
X008295Y002589D02*
X008349Y002589D01*
X008601Y002589D02*
X008659Y002589D01*
X008659Y002687D02*
X008601Y002687D01*
X008601Y002786D02*
X008659Y002786D01*
X008659Y002884D02*
X008601Y002884D01*
X008601Y002983D02*
X008659Y002983D01*
X008659Y003081D02*
X008601Y003081D01*
X008601Y003155D02*
X008601Y003729D01*
X008580Y003729D01*
X008580Y003982D01*
X008680Y003982D01*
X008680Y003729D01*
X008659Y003729D01*
X008659Y003155D01*
X008601Y003155D01*
X008601Y003180D02*
X008659Y003180D01*
X008659Y003278D02*
X008601Y003278D01*
X008601Y003377D02*
X008659Y003377D01*
X008659Y003475D02*
X008601Y003475D01*
X008601Y003574D02*
X008659Y003574D01*
X008659Y003672D02*
X008601Y003672D01*
X008580Y003771D02*
X008680Y003771D01*
X008680Y003869D02*
X008580Y003869D01*
X008580Y003968D02*
X008680Y003968D01*
X008680Y003982D02*
X008680Y004082D01*
X009174Y004082D01*
X009174Y004544D01*
X009163Y004582D01*
X009159Y004590D01*
X009226Y004590D01*
X009218Y004582D01*
X009180Y004490D01*
X009180Y003944D01*
X009174Y003929D01*
X009174Y003982D01*
X008680Y003982D01*
X008680Y004066D02*
X009180Y004066D01*
X009174Y003968D02*
X009180Y003968D01*
X009174Y004165D02*
X009180Y004165D01*
X009174Y004263D02*
X009180Y004263D01*
X009174Y004362D02*
X009180Y004362D01*
X009174Y004460D02*
X009180Y004460D01*
X009170Y004559D02*
X009208Y004559D01*
X009680Y004165D02*
X012369Y004165D01*
X012360Y004066D02*
X009680Y004066D01*
X009680Y003968D02*
X012388Y003968D01*
X012450Y003869D02*
X009711Y003869D01*
X009720Y003771D02*
X012450Y003771D01*
X012450Y003672D02*
X009695Y003672D01*
X009680Y003574D02*
X012450Y003574D01*
X012433Y003475D02*
X009680Y003475D01*
X009680Y003377D02*
X012374Y003377D01*
X012360Y003278D02*
X009680Y003278D01*
X009680Y003180D02*
X012384Y003180D01*
X012457Y003081D02*
X009680Y003081D01*
X009680Y002983D02*
X012930Y002983D01*
X012930Y003081D02*
X012803Y003081D01*
X012876Y003180D02*
X012930Y003180D01*
X012930Y003278D02*
X012900Y003278D01*
X012886Y003377D02*
X012930Y003377D01*
X012930Y003475D02*
X012827Y003475D01*
X012810Y003574D02*
X012930Y003574D01*
X012930Y003672D02*
X012810Y003672D01*
X012810Y003771D02*
X012930Y003771D01*
X012930Y003869D02*
X012810Y003869D01*
X012872Y003968D02*
X012930Y003968D01*
X012630Y004090D02*
X012630Y003290D01*
X012930Y002884D02*
X009657Y002884D01*
X009579Y002786D02*
X012930Y002786D01*
X012930Y002687D02*
X009508Y002687D01*
X009477Y002589D02*
X012930Y002589D01*
X012577Y002194D02*
X012208Y002194D01*
X012300Y002096D02*
X012479Y002096D01*
X012425Y001997D02*
X012358Y001997D01*
X012366Y001603D02*
X012416Y001603D01*
X012458Y001505D02*
X012316Y001505D01*
X012232Y001406D02*
X012556Y001406D01*
X012737Y001308D02*
X012079Y001308D01*
X011681Y001308D02*
X004952Y001308D01*
X004780Y001560D02*
X006100Y001560D01*
X006280Y001740D01*
X006280Y004040D01*
X006530Y004290D01*
X006530Y004740D01*
X006880Y005090D01*
X009780Y005090D01*
X011280Y006590D01*
X011080Y006890D02*
X011080Y007490D01*
X011080Y006890D02*
X010780Y006590D01*
X010280Y006590D01*
X009880Y006190D01*
X009880Y005840D01*
X009530Y005490D01*
X006680Y005490D01*
X006130Y004940D01*
X006130Y004490D01*
X005880Y004240D01*
X005880Y003340D01*
X005550Y003010D01*
X004780Y003010D01*
X004630Y002690D02*
X004980Y002690D01*
X005080Y002790D01*
X005830Y002790D01*
X006080Y003040D01*
X006080Y004140D01*
X006330Y004390D01*
X006330Y004840D01*
X006780Y005290D01*
X009680Y005290D01*
X010380Y005990D01*
X010380Y006290D01*
X010230Y006890D02*
X010580Y006890D01*
X010230Y006890D02*
X009680Y006340D01*
X009680Y005940D01*
X009430Y005690D01*
X009230Y005690D01*
X009080Y005840D01*
X005480Y005840D01*
X005480Y004590D01*
X005350Y004460D01*
X004730Y004460D01*
X004643Y004173D02*
X004538Y004216D01*
X004457Y004297D01*
X004413Y004403D01*
X004413Y004517D01*
X004419Y004533D01*
X004389Y004533D01*
X004389Y004811D01*
X004331Y004811D01*
X004331Y004533D01*
X004300Y004533D01*
X004241Y004544D01*
X004185Y004568D01*
X004134Y004601D01*
X004092Y004644D01*
X004058Y004694D01*
X004035Y004750D01*
X004023Y004810D01*
X004023Y004811D01*
X004331Y004811D01*
X004331Y004869D01*
X004331Y005147D01*
X004300Y005147D01*
X004241Y005136D01*
X004223Y005128D01*
X004955Y005860D01*
X005300Y005860D01*
X005300Y005702D01*
X005233Y005769D01*
X005134Y005810D01*
X005026Y005810D01*
X004927Y005769D01*
X004851Y005693D01*
X004810Y005594D01*
X004810Y005486D01*
X004851Y005387D01*
X004890Y005348D01*
X004890Y005167D01*
X004565Y005167D01*
X004518Y005120D01*
X004479Y005136D01*
X004420Y005147D01*
X004389Y005147D01*
X004389Y004869D01*
X004331Y004869D01*
X004023Y004869D01*
X004023Y004870D01*
X004035Y004930D01*
X004058Y004986D01*
X004092Y005036D01*
X004116Y005060D01*
X003493Y005060D01*
X003500Y005044D01*
X003500Y004936D01*
X003459Y004837D01*
X003383Y004761D01*
X003284Y004720D01*
X003176Y004720D01*
X003077Y004761D01*
X003001Y004837D01*
X002960Y004936D01*
X002960Y005044D01*
X003001Y005143D01*
X003050Y005192D01*
X003050Y005259D01*
X002821Y005030D01*
X002497Y005030D01*
X002464Y004950D01*
X002821Y004950D01*
X003090Y004681D01*
X003090Y004299D01*
X002861Y004070D01*
X003005Y004070D01*
X003155Y003920D01*
X003260Y003815D01*
X003260Y003583D01*
X003326Y003610D01*
X003434Y003610D01*
X003533Y003569D01*
X003609Y003493D01*
X003650Y003394D01*
X003650Y003325D01*
X003705Y003270D01*
X004097Y003270D01*
X004085Y003300D01*
X004073Y003360D01*
X004073Y003361D01*
X004381Y003361D01*
X004381Y003419D01*
X004381Y003697D01*
X004350Y003697D01*
X004291Y003686D01*
X004235Y003662D01*
X004184Y003629D01*
X004142Y003586D01*
X004108Y003536D01*
X004085Y003480D01*
X004073Y003420D01*
X004073Y003419D01*
X004381Y003419D01*
X004439Y003419D01*
X004439Y003697D01*
X004470Y003697D01*
X004529Y003686D01*
X004568Y003670D01*
X004615Y003717D01*
X004945Y003717D01*
X005008Y003654D01*
X005063Y003677D01*
X005237Y003677D01*
X005270Y003664D01*
X005270Y004277D01*
X005273Y004280D01*
X004986Y004280D01*
X004922Y004216D01*
X004817Y004173D01*
X004643Y004173D01*
X004491Y004263D02*
X003054Y004263D01*
X003090Y004362D02*
X004430Y004362D01*
X004413Y004460D02*
X003090Y004460D01*
X003090Y004559D02*
X004207Y004559D01*
X004331Y004559D02*
X004389Y004559D01*
X004389Y004657D02*
X004331Y004657D01*
X004331Y004756D02*
X004389Y004756D01*
X004331Y004854D02*
X003466Y004854D01*
X003500Y004953D02*
X004044Y004953D01*
X004107Y005051D02*
X003497Y005051D01*
X003230Y004990D02*
X003230Y005240D01*
X003230Y005740D01*
X002980Y005990D01*
X001230Y005990D01*
X000630Y005490D01*
X000940Y005150D02*
X001320Y005150D01*
X001221Y005248D02*
X001039Y005248D01*
X001090Y005299D02*
X001090Y005639D01*
X001295Y005810D01*
X001299Y005810D01*
X001170Y005681D01*
X001170Y005299D01*
X001439Y005030D01*
X001821Y005030D01*
X001978Y005188D01*
X001960Y005144D01*
X001960Y005075D01*
X001950Y005065D01*
X001950Y004821D01*
X001821Y004950D01*
X001439Y004950D01*
X001170Y004681D01*
X001170Y004299D01*
X001439Y004030D01*
X001821Y004030D01*
X001953Y004162D01*
X002300Y003815D01*
X002405Y003710D01*
X002855Y003710D01*
X002900Y003665D01*
X002900Y003115D01*
X003200Y002815D01*
X003305Y002710D01*
X003955Y002710D01*
X004010Y002655D01*
X004010Y002586D01*
X004051Y002487D01*
X004127Y002411D01*
X004226Y002370D01*
X004334Y002370D01*
X004433Y002411D01*
X004509Y002487D01*
X004529Y002536D01*
X004555Y002510D01*
X005055Y002510D01*
X005155Y002610D01*
X005905Y002610D01*
X006100Y002805D01*
X006100Y001815D01*
X006025Y001740D01*
X005812Y001740D01*
X005859Y001787D01*
X005900Y001886D01*
X005900Y001994D01*
X005859Y002093D01*
X005783Y002169D01*
X005684Y002210D01*
X005576Y002210D01*
X005477Y002169D01*
X005458Y002150D01*
X005376Y002150D01*
X005342Y002184D01*
X005237Y002227D01*
X005063Y002227D01*
X005008Y002204D01*
X004945Y002267D01*
X004615Y002267D01*
X004568Y002220D01*
X004529Y002236D01*
X004470Y002247D01*
X004439Y002247D01*
X004439Y001969D01*
X004381Y001969D01*
X004381Y002247D01*
X004350Y002247D01*
X004291Y002236D01*
X004235Y002212D01*
X004184Y002179D01*
X004142Y002136D01*
X004108Y002086D01*
X004085Y002030D01*
X004073Y001970D01*
X004073Y001969D01*
X004381Y001969D01*
X004381Y001911D01*
X004439Y001911D01*
X004439Y001633D01*
X004469Y001633D01*
X004463Y001617D01*
X004463Y001503D01*
X004507Y001397D01*
X004588Y001316D01*
X004687Y001275D01*
X000415Y001275D01*
X000415Y004054D01*
X000439Y004030D01*
X000821Y004030D01*
X001090Y004299D01*
X001090Y004681D01*
X000821Y004950D01*
X000439Y004950D01*
X000415Y004926D01*
X000415Y005054D01*
X000439Y005030D01*
X000821Y005030D01*
X001090Y005299D01*
X001090Y005347D02*
X001170Y005347D01*
X001170Y005445D02*
X001090Y005445D01*
X001090Y005544D02*
X001170Y005544D01*
X001170Y005642D02*
X001094Y005642D01*
X001212Y005741D02*
X001230Y005741D01*
X001004Y006036D02*
X000855Y006036D01*
X000829Y006010D02*
X000680Y006010D01*
X000680Y006440D01*
X000680Y006540D01*
X000580Y006540D01*
X000580Y006970D01*
X000431Y006970D01*
X000415Y006954D01*
X000415Y007054D01*
X000439Y007030D01*
X000821Y007030D01*
X000950Y007159D01*
X000950Y007115D01*
X001055Y007010D01*
X001255Y006810D01*
X001271Y006810D01*
X001150Y006689D01*
X001150Y006540D01*
X001580Y006540D01*
X001580Y006440D01*
X001150Y006440D01*
X001150Y006291D01*
X001271Y006170D01*
X001238Y006170D01*
X001172Y006176D01*
X001165Y006170D01*
X001155Y006170D01*
X001108Y006123D01*
X000857Y005914D01*
X000821Y005950D01*
X000439Y005950D01*
X000415Y005926D01*
X000415Y006026D01*
X000431Y006010D01*
X000580Y006010D01*
X000580Y006440D01*
X000680Y006440D01*
X001110Y006440D01*
X001110Y006291D01*
X000829Y006010D01*
X000833Y005938D02*
X000886Y005938D01*
X000953Y006135D02*
X001120Y006135D01*
X001052Y006233D02*
X001208Y006233D01*
X001150Y006332D02*
X001110Y006332D01*
X001110Y006430D02*
X001150Y006430D01*
X001110Y006540D02*
X001110Y006689D01*
X000829Y006970D01*
X000680Y006970D01*
X000680Y006540D01*
X001110Y006540D01*
X001110Y006627D02*
X001150Y006627D01*
X001187Y006726D02*
X001073Y006726D01*
X000975Y006824D02*
X001241Y006824D01*
X001143Y006923D02*
X000876Y006923D01*
X001044Y007021D02*
X000415Y007021D01*
X000580Y006923D02*
X000680Y006923D01*
X000680Y006824D02*
X000580Y006824D01*
X000580Y006726D02*
X000680Y006726D01*
X000680Y006627D02*
X000580Y006627D01*
X000680Y006529D02*
X001580Y006529D01*
X000950Y007120D02*
X000910Y007120D01*
X000680Y006430D02*
X000580Y006430D01*
X000580Y006332D02*
X000680Y006332D01*
X000680Y006233D02*
X000580Y006233D01*
X000580Y006135D02*
X000680Y006135D01*
X000680Y006036D02*
X000580Y006036D01*
X000427Y005938D02*
X000415Y005938D01*
X000415Y005051D02*
X000418Y005051D01*
X000415Y004953D02*
X001950Y004953D01*
X001950Y005051D02*
X001842Y005051D01*
X001940Y005150D02*
X001962Y005150D01*
X002130Y004990D02*
X002130Y004240D01*
X002480Y003890D01*
X002930Y003890D01*
X003080Y003740D01*
X003080Y003190D01*
X003380Y002890D01*
X004030Y002890D01*
X004280Y002640D01*
X004510Y002490D02*
X006100Y002490D01*
X006100Y002589D02*
X005133Y002589D01*
X005316Y002194D02*
X005539Y002194D01*
X005721Y002194D02*
X006100Y002194D01*
X006100Y002096D02*
X005856Y002096D01*
X005898Y001997D02*
X006100Y001997D01*
X006100Y001899D02*
X005900Y001899D01*
X005864Y001800D02*
X006086Y001800D01*
X006300Y001505D02*
X011444Y001505D01*
X011394Y001603D02*
X006398Y001603D01*
X006460Y001702D02*
X011367Y001702D01*
X011371Y001899D02*
X006460Y001899D01*
X006460Y001997D02*
X006912Y001997D01*
X006884Y002026D02*
X006966Y001944D01*
X007072Y001900D01*
X007188Y001900D01*
X007294Y001944D01*
X007376Y002026D01*
X007420Y002132D01*
X007420Y002248D01*
X007376Y002354D01*
X007294Y002436D01*
X007188Y002480D01*
X007072Y002480D01*
X006966Y002436D01*
X006884Y002354D01*
X006840Y002248D01*
X006840Y002132D01*
X006884Y002026D01*
X006855Y002096D02*
X006460Y002096D01*
X006460Y002194D02*
X006840Y002194D01*
X006859Y002293D02*
X006460Y002293D01*
X006460Y002391D02*
X006921Y002391D01*
X007339Y002391D02*
X007750Y002391D01*
X007750Y002490D02*
X006460Y002490D01*
X006460Y002589D02*
X007750Y002589D01*
X007750Y002687D02*
X006460Y002687D01*
X006460Y002786D02*
X007750Y002786D01*
X007750Y002884D02*
X006460Y002884D01*
X006460Y002983D02*
X007750Y002983D01*
X007752Y003081D02*
X006460Y003081D01*
X006460Y003180D02*
X007752Y003180D01*
X008086Y003574D02*
X006460Y003574D01*
X006460Y003672D02*
X008086Y003672D01*
X008101Y003475D02*
X006460Y003475D01*
X006460Y003377D02*
X008323Y003377D01*
X008323Y003278D02*
X006460Y003278D01*
X006460Y003771D02*
X007733Y003771D01*
X007644Y003869D02*
X006460Y003869D01*
X006462Y003968D02*
X007603Y003968D01*
X007600Y004066D02*
X006561Y004066D01*
X006659Y004165D02*
X007624Y004165D01*
X007686Y004263D02*
X006710Y004263D01*
X007012Y004362D02*
X007398Y004362D01*
X007320Y004460D02*
X007090Y004460D01*
X007120Y004559D02*
X007290Y004559D01*
X006100Y002786D02*
X006080Y002786D01*
X006100Y002687D02*
X005982Y002687D01*
X006100Y002391D02*
X004386Y002391D01*
X004381Y002194D02*
X004439Y002194D01*
X004439Y002096D02*
X004381Y002096D01*
X004381Y001997D02*
X004439Y001997D01*
X004439Y001899D02*
X004381Y001899D01*
X004381Y001911D02*
X004381Y001633D01*
X004350Y001633D01*
X004291Y001644D01*
X004235Y001668D01*
X004184Y001701D01*
X004142Y001744D01*
X004108Y001794D01*
X004085Y001850D01*
X004073Y001910D01*
X004073Y001911D01*
X004381Y001911D01*
X004381Y001800D02*
X004439Y001800D01*
X004439Y001702D02*
X004381Y001702D01*
X004463Y001603D02*
X002441Y001603D01*
X002431Y001594D02*
X002526Y001689D01*
X002610Y001794D01*
X002682Y001909D01*
X002740Y002030D01*
X002785Y002157D01*
X002815Y002289D01*
X002830Y002423D01*
X002830Y002440D01*
X001680Y002440D01*
X001680Y002540D01*
X002830Y002540D01*
X002830Y002557D01*
X002815Y002691D01*
X002785Y002823D01*
X002740Y002950D01*
X002682Y003071D01*
X002610Y003185D01*
X002526Y003291D01*
X002431Y003386D01*
X002325Y003470D01*
X002211Y003542D01*
X002090Y003600D01*
X001963Y003645D01*
X001831Y003675D01*
X001697Y003690D01*
X001680Y003690D01*
X001680Y002540D01*
X001580Y002540D01*
X001580Y003690D01*
X001563Y003690D01*
X001429Y003675D01*
X001297Y003645D01*
X001170Y003600D01*
X001049Y003542D01*
X000934Y003470D01*
X000829Y003386D01*
X000734Y003291D01*
X000650Y003185D01*
X000578Y003071D01*
X000520Y002950D01*
X000475Y002823D01*
X000445Y002691D01*
X000430Y002557D01*
X000430Y002540D01*
X001580Y002540D01*
X001580Y002440D01*
X001680Y002440D01*
X001680Y001290D01*
X001697Y001290D01*
X001831Y001305D01*
X001963Y001335D01*
X002090Y001380D01*
X002211Y001438D01*
X002325Y001510D01*
X002431Y001594D01*
X002318Y001505D02*
X004463Y001505D01*
X004503Y001406D02*
X002146Y001406D01*
X001844Y001308D02*
X004608Y001308D01*
X004184Y001702D02*
X002536Y001702D01*
X002614Y001800D02*
X004105Y001800D01*
X004075Y001899D02*
X002676Y001899D01*
X002725Y001997D02*
X004078Y001997D01*
X004115Y002096D02*
X002763Y002096D01*
X002793Y002194D02*
X004208Y002194D01*
X004174Y002391D02*
X002826Y002391D01*
X002815Y002293D02*
X006100Y002293D01*
X006460Y001800D02*
X011830Y001800D01*
X011830Y001899D02*
X011930Y001899D01*
X011930Y001997D02*
X011830Y001997D01*
X011830Y002096D02*
X011930Y002096D01*
X011930Y002194D02*
X011830Y002194D01*
X011552Y002194D02*
X008270Y002194D01*
X008255Y002096D02*
X011460Y002096D01*
X011402Y001997D02*
X008198Y001997D01*
X007762Y001997D02*
X007348Y001997D01*
X007405Y002096D02*
X007705Y002096D01*
X007690Y002194D02*
X007420Y002194D01*
X007401Y002293D02*
X007709Y002293D01*
X008911Y002589D02*
X008965Y002589D01*
X010307Y004263D02*
X012421Y004263D01*
X012730Y004362D02*
X010405Y004362D01*
X010504Y004460D02*
X012730Y004460D01*
X012670Y004559D02*
X010602Y004559D01*
X010757Y004657D02*
X012579Y004657D01*
X012489Y004756D02*
X010838Y004756D01*
X010898Y004854D02*
X012399Y004854D01*
X013630Y005490D02*
X012730Y006390D01*
X012730Y006690D01*
X012230Y007190D01*
X012080Y007190D01*
X011880Y007390D01*
X011880Y008440D01*
X012280Y008590D02*
X012280Y007590D01*
X012380Y007490D01*
X012380Y007390D01*
X012980Y006740D01*
X012980Y006440D01*
X013430Y005990D01*
X014130Y005990D01*
X014630Y006490D01*
X014947Y006824D02*
X015030Y006824D01*
X015030Y006923D02*
X014848Y006923D01*
X014910Y007120D02*
X015030Y007120D01*
X015030Y007218D02*
X015009Y007218D01*
X015030Y007021D02*
X013304Y007021D01*
X013350Y007120D02*
X013205Y007120D01*
X013251Y007218D02*
X013107Y007218D01*
X013170Y007317D02*
X013008Y007317D01*
X012730Y007340D02*
X012730Y008340D01*
X012280Y008590D02*
X011730Y009140D01*
X011730Y009840D01*
X010780Y010790D01*
X010430Y010790D01*
X010830Y011340D02*
X009880Y011340D01*
X009730Y011190D01*
X009130Y011190D01*
X009030Y011090D01*
X009030Y010440D01*
X008880Y010290D01*
X008530Y010290D01*
X008280Y010540D01*
X008223Y010272D02*
X006810Y010272D01*
X006810Y010370D02*
X008068Y010370D01*
X008017Y010469D02*
X006810Y010469D01*
X006810Y010567D02*
X008010Y010567D01*
X008040Y010666D02*
X007910Y010666D01*
X008392Y010173D02*
X006810Y010173D01*
X007230Y011590D02*
X007230Y011740D01*
X007417Y013128D02*
X007568Y013128D01*
X007692Y013128D02*
X008600Y013128D01*
X008030Y013490D02*
X008530Y013990D01*
X008530Y014890D01*
X008930Y015290D01*
X008930Y015640D01*
X009180Y015890D01*
X010930Y015890D01*
X011430Y015390D01*
X012980Y015390D01*
X013080Y015290D01*
X013080Y014240D01*
X013280Y014040D01*
X014830Y014040D01*
X015130Y013740D01*
X015130Y012290D01*
X014830Y011990D01*
X014130Y011990D01*
X013630Y011490D01*
X013337Y011848D02*
X013260Y011848D01*
X013260Y011771D02*
X013260Y012181D01*
X013431Y012010D01*
X013580Y012010D01*
X013580Y012440D01*
X013680Y012440D01*
X013680Y012540D01*
X014110Y012540D01*
X014110Y012689D01*
X014019Y012780D01*
X014043Y012780D01*
X014170Y012653D01*
X014170Y012299D01*
X014299Y012170D01*
X014055Y012170D01*
X013828Y011943D01*
X013821Y011950D01*
X013439Y011950D01*
X013260Y011771D01*
X013260Y011946D02*
X013435Y011946D01*
X013397Y012045D02*
X013260Y012045D01*
X013260Y012143D02*
X013298Y012143D01*
X013580Y012143D02*
X013680Y012143D01*
X013680Y012045D02*
X013580Y012045D01*
X013680Y012010D02*
X013829Y012010D01*
X014110Y012291D01*
X014110Y012440D01*
X013680Y012440D01*
X013680Y012010D01*
X013825Y011946D02*
X013831Y011946D01*
X013863Y012045D02*
X013930Y012045D01*
X013962Y012143D02*
X014028Y012143D01*
X014060Y012242D02*
X014228Y012242D01*
X014170Y012340D02*
X014110Y012340D01*
X014110Y012439D02*
X014170Y012439D01*
X014170Y012537D02*
X013680Y012537D01*
X013680Y012439D02*
X013580Y012439D01*
X013580Y012340D02*
X013680Y012340D01*
X013680Y012242D02*
X013580Y012242D01*
X014065Y012734D02*
X014089Y012734D01*
X014110Y012636D02*
X014170Y012636D01*
X014330Y011490D02*
X014630Y011490D01*
X014330Y011490D02*
X013830Y010990D01*
X011480Y010990D01*
X011080Y011390D01*
X010930Y011540D01*
X009730Y011540D01*
X009580Y011390D01*
X009030Y011390D01*
X008880Y011390D01*
X008680Y011190D01*
X008880Y011390D01*
X008680Y011190D01*
X008680Y010590D01*
X008980Y011790D02*
X009380Y011790D01*
X009530Y011940D01*
X011130Y011940D01*
X011280Y011790D01*
X011680Y011390D01*
X012530Y011390D01*
X013630Y010490D02*
X014130Y010990D01*
X015130Y010990D01*
X015380Y011240D01*
X015380Y013840D01*
X014980Y014240D01*
X013380Y014240D01*
X013280Y014340D01*
X013280Y015390D01*
X013080Y015590D01*
X011530Y015590D01*
X011030Y016090D01*
X009030Y016090D01*
X008730Y015790D01*
X008730Y015390D01*
X008330Y014990D01*
X008330Y014090D01*
X008080Y013840D01*
X007830Y013840D01*
X007623Y014015D02*
X007387Y014015D01*
X007441Y013916D02*
X007569Y013916D01*
X007560Y013818D02*
X007450Y013818D01*
X007422Y013719D02*
X007588Y013719D01*
X007380Y013490D02*
X007180Y013690D01*
X007180Y013840D01*
X007380Y013490D02*
X008030Y013490D01*
X008150Y014310D02*
X001853Y014310D01*
X002150Y014409D02*
X008150Y014409D01*
X008150Y014507D02*
X002321Y014507D01*
X002443Y014606D02*
X008150Y014606D01*
X008150Y014704D02*
X002538Y014704D01*
X002615Y014803D02*
X008150Y014803D01*
X008150Y014901D02*
X002677Y014901D01*
X002726Y015000D02*
X004339Y015000D01*
X004301Y015037D02*
X004377Y014961D01*
X004476Y014920D01*
X004584Y014920D01*
X004683Y014961D01*
X004732Y015010D01*
X007755Y015010D01*
X007955Y015210D01*
X008060Y015315D01*
X008060Y015338D01*
X008109Y015387D01*
X008150Y015486D01*
X008150Y015594D01*
X008109Y015693D01*
X008033Y015769D01*
X007934Y015810D01*
X007826Y015810D01*
X007727Y015769D01*
X007651Y015693D01*
X007610Y015594D01*
X007610Y015486D01*
X007643Y015407D01*
X007605Y015370D01*
X004732Y015370D01*
X004683Y015419D01*
X004584Y015460D01*
X004476Y015460D01*
X004377Y015419D01*
X004301Y015343D01*
X004260Y015244D01*
X004260Y015136D01*
X004301Y015037D01*
X004276Y015098D02*
X002764Y015098D01*
X002794Y015197D02*
X004260Y015197D01*
X004281Y015295D02*
X002816Y015295D01*
X002827Y015394D02*
X004352Y015394D01*
X004530Y015190D02*
X007680Y015190D01*
X007880Y015390D01*
X007880Y015540D01*
X007772Y015788D02*
X002793Y015788D01*
X002815Y015689D02*
X007649Y015689D01*
X007610Y015591D02*
X002826Y015591D01*
X002763Y015886D02*
X008571Y015886D01*
X008550Y015788D02*
X007988Y015788D01*
X008111Y015689D02*
X008550Y015689D01*
X008550Y015591D02*
X008150Y015591D01*
X008150Y015492D02*
X008550Y015492D01*
X008479Y015394D02*
X008112Y015394D01*
X008040Y015295D02*
X008380Y015295D01*
X008282Y015197D02*
X007941Y015197D01*
X007843Y015098D02*
X008183Y015098D01*
X008150Y015000D02*
X004721Y015000D01*
X004708Y015394D02*
X007629Y015394D01*
X007610Y015492D02*
X001680Y015492D01*
X001680Y015591D02*
X001580Y015591D01*
X001580Y015689D02*
X001680Y015689D01*
X001680Y015788D02*
X001580Y015788D01*
X001580Y015886D02*
X001680Y015886D01*
X001680Y015985D02*
X001580Y015985D01*
X001580Y016083D02*
X001680Y016083D01*
X001680Y016182D02*
X001580Y016182D01*
X001580Y016280D02*
X001680Y016280D01*
X001680Y016379D02*
X001580Y016379D01*
X001580Y016477D02*
X001680Y016477D01*
X001680Y016576D02*
X001580Y016576D01*
X001580Y016674D02*
X001680Y016674D01*
X001835Y016674D02*
X014425Y016674D01*
X014580Y016674D02*
X014680Y016674D01*
X014680Y016690D02*
X014680Y015540D01*
X015830Y015540D01*
X015830Y015557D01*
X015815Y015691D01*
X015785Y015823D01*
X015740Y015950D01*
X015682Y016071D01*
X015610Y016185D01*
X015526Y016291D01*
X015431Y016386D01*
X015325Y016470D01*
X015211Y016542D01*
X015090Y016600D01*
X014963Y016645D01*
X014831Y016675D01*
X014697Y016690D01*
X014680Y016690D01*
X014680Y016576D02*
X014580Y016576D01*
X014580Y016477D02*
X014680Y016477D01*
X014680Y016379D02*
X014580Y016379D01*
X014580Y016280D02*
X014680Y016280D01*
X014680Y016182D02*
X014580Y016182D01*
X014580Y016083D02*
X014680Y016083D01*
X014680Y015985D02*
X014580Y015985D01*
X014580Y015886D02*
X014680Y015886D01*
X014680Y015788D02*
X014580Y015788D01*
X014580Y015689D02*
X014680Y015689D01*
X014680Y015591D02*
X014580Y015591D01*
X014580Y015492D02*
X013433Y015492D01*
X013434Y015591D02*
X013334Y015591D01*
X013236Y015689D02*
X013445Y015689D01*
X013467Y015788D02*
X011587Y015788D01*
X011489Y015886D02*
X013497Y015886D01*
X013536Y015985D02*
X011390Y015985D01*
X011292Y016083D02*
X013585Y016083D01*
X013647Y016182D02*
X011193Y016182D01*
X009573Y013621D02*
X009507Y013621D01*
X009538Y012931D02*
X009603Y012931D01*
X010830Y011340D02*
X012180Y009990D01*
X014080Y009990D01*
X014580Y010490D01*
X014630Y010490D01*
X014964Y010173D02*
X015845Y010173D01*
X015845Y010075D02*
X014865Y010075D01*
X014829Y009970D02*
X014680Y009970D01*
X014680Y009540D01*
X014580Y009540D01*
X014580Y009970D01*
X014431Y009970D01*
X014150Y009689D01*
X014150Y009540D01*
X014580Y009540D01*
X014580Y009440D01*
X014150Y009440D01*
X014150Y009291D01*
X014431Y009010D01*
X014580Y009010D01*
X014580Y009440D01*
X014680Y009440D01*
X014680Y009540D01*
X015110Y009540D01*
X015110Y009689D01*
X014829Y009970D01*
X014921Y009878D02*
X015845Y009878D01*
X015845Y009976D02*
X014321Y009976D01*
X014339Y009878D02*
X014222Y009878D01*
X014240Y009779D02*
X014020Y009779D01*
X014110Y009681D02*
X014150Y009681D01*
X014150Y009582D02*
X014110Y009582D01*
X014110Y009440D02*
X013680Y009440D01*
X013680Y009010D01*
X013829Y009010D01*
X014110Y009291D01*
X014110Y009440D01*
X014110Y009385D02*
X014150Y009385D01*
X014155Y009287D02*
X014105Y009287D01*
X014007Y009188D02*
X014253Y009188D01*
X014352Y009090D02*
X013908Y009090D01*
X013878Y008893D02*
X014382Y008893D01*
X014580Y009090D02*
X014680Y009090D01*
X014680Y009010D02*
X014829Y009010D01*
X015110Y009291D01*
X015110Y009440D01*
X014680Y009440D01*
X014680Y009010D01*
X014680Y009188D02*
X014580Y009188D01*
X014580Y009287D02*
X014680Y009287D01*
X014680Y009385D02*
X014580Y009385D01*
X014580Y009484D02*
X013680Y009484D01*
X013680Y009385D02*
X013580Y009385D01*
X013580Y009287D02*
X013680Y009287D01*
X013680Y009188D02*
X013580Y009188D01*
X013580Y009090D02*
X013680Y009090D01*
X013370Y008991D02*
X015845Y008991D01*
X015845Y008893D02*
X014878Y008893D01*
X014908Y009090D02*
X015845Y009090D01*
X015845Y009188D02*
X015007Y009188D01*
X015105Y009287D02*
X015845Y009287D01*
X015845Y009385D02*
X015110Y009385D01*
X015110Y009582D02*
X015845Y009582D01*
X015845Y009484D02*
X014680Y009484D01*
X014680Y009582D02*
X014580Y009582D01*
X014580Y009681D02*
X014680Y009681D01*
X014680Y009779D02*
X014580Y009779D01*
X014580Y009878D02*
X014680Y009878D01*
X015020Y009779D02*
X015845Y009779D01*
X015845Y009681D02*
X015110Y009681D01*
X015062Y010272D02*
X015845Y010272D01*
X015845Y010370D02*
X015090Y010370D01*
X015090Y010469D02*
X015845Y010469D01*
X015845Y010567D02*
X015090Y010567D01*
X015090Y010666D02*
X015845Y010666D01*
X015845Y010764D02*
X015007Y010764D01*
X015257Y010863D02*
X015845Y010863D01*
X015845Y010961D02*
X015356Y010961D01*
X015454Y011060D02*
X015845Y011060D01*
X015845Y011158D02*
X015553Y011158D01*
X015560Y011257D02*
X015845Y011257D01*
X015845Y011355D02*
X015560Y011355D01*
X015560Y011454D02*
X015845Y011454D01*
X015845Y011552D02*
X015560Y011552D01*
X015560Y011651D02*
X015845Y011651D01*
X015845Y011749D02*
X015560Y011749D01*
X015560Y011848D02*
X015845Y011848D01*
X015845Y011946D02*
X015560Y011946D01*
X015560Y012045D02*
X015845Y012045D01*
X015845Y012143D02*
X015560Y012143D01*
X015560Y012242D02*
X015845Y012242D01*
X015845Y012340D02*
X015560Y012340D01*
X015560Y012439D02*
X015845Y012439D01*
X015845Y012537D02*
X015560Y012537D01*
X015560Y012636D02*
X015845Y012636D01*
X015845Y012734D02*
X015560Y012734D01*
X015560Y012833D02*
X015845Y012833D01*
X015845Y012931D02*
X015560Y012931D01*
X015560Y013030D02*
X015845Y013030D01*
X015845Y013128D02*
X015560Y013128D01*
X015560Y013227D02*
X015845Y013227D01*
X015845Y013325D02*
X015560Y013325D01*
X015560Y013424D02*
X015845Y013424D01*
X015845Y013522D02*
X015560Y013522D01*
X015560Y013621D02*
X015845Y013621D01*
X015845Y013719D02*
X015560Y013719D01*
X015560Y013818D02*
X015845Y013818D01*
X015845Y013916D02*
X015559Y013916D01*
X015460Y014015D02*
X015845Y014015D01*
X015845Y014113D02*
X015362Y014113D01*
X015263Y014212D02*
X015845Y014212D01*
X015845Y014310D02*
X015165Y014310D01*
X015150Y014409D02*
X015845Y014409D01*
X015845Y014507D02*
X015321Y014507D01*
X015443Y014606D02*
X015845Y014606D01*
X015845Y014704D02*
X015538Y014704D01*
X015615Y014803D02*
X015845Y014803D01*
X015845Y014901D02*
X015677Y014901D01*
X015726Y015000D02*
X015845Y015000D01*
X015845Y015098D02*
X015764Y015098D01*
X015794Y015197D02*
X015845Y015197D01*
X015845Y015295D02*
X015816Y015295D01*
X015827Y015394D02*
X015845Y015394D01*
X015845Y015492D02*
X014680Y015492D01*
X015439Y016379D02*
X015845Y016379D01*
X015845Y016477D02*
X015315Y016477D01*
X015142Y016576D02*
X015845Y016576D01*
X015845Y016674D02*
X014835Y016674D01*
X014118Y016576D02*
X002142Y016576D01*
X002315Y016477D02*
X013945Y016477D01*
X013821Y016379D02*
X002439Y016379D01*
X002535Y016280D02*
X013725Y016280D01*
X013460Y015223D02*
X013475Y015157D01*
X013520Y015030D01*
X013578Y014909D01*
X013650Y014794D01*
X013734Y014689D01*
X013829Y014594D01*
X013934Y014510D01*
X014049Y014438D01*
X014086Y014420D01*
X013460Y014420D01*
X013460Y015223D01*
X013460Y015197D02*
X013466Y015197D01*
X013460Y015098D02*
X013496Y015098D01*
X013460Y015000D02*
X013534Y015000D01*
X013583Y014901D02*
X013460Y014901D01*
X013460Y014803D02*
X013645Y014803D01*
X013722Y014704D02*
X013460Y014704D01*
X013460Y014606D02*
X013817Y014606D01*
X013939Y014507D02*
X013460Y014507D01*
X015675Y016083D02*
X015845Y016083D01*
X015845Y015985D02*
X015724Y015985D01*
X015763Y015886D02*
X015845Y015886D01*
X015845Y015788D02*
X015793Y015788D01*
X015815Y015689D02*
X015845Y015689D01*
X015845Y015591D02*
X015826Y015591D01*
X015845Y016182D02*
X015613Y016182D01*
X015535Y016280D02*
X015845Y016280D01*
X013240Y009779D02*
X012160Y009779D01*
X012160Y009681D02*
X013150Y009681D01*
X013150Y009582D02*
X012160Y009582D01*
X012160Y009484D02*
X013580Y009484D01*
X013150Y009385D02*
X012160Y009385D01*
X012160Y009287D02*
X012917Y009287D01*
X012827Y009188D02*
X012237Y009188D01*
X012335Y009090D02*
X012790Y009090D01*
X012790Y008991D02*
X012434Y008991D01*
X013129Y008696D02*
X013185Y008696D01*
X013333Y008893D02*
X013382Y008893D01*
X013380Y007990D02*
X014130Y007990D01*
X014302Y007908D02*
X014397Y007908D01*
X014401Y008006D02*
X015014Y008006D01*
X014990Y007908D02*
X014863Y007908D01*
X014962Y007809D02*
X015000Y007809D01*
X015084Y008105D02*
X014895Y008105D01*
X014298Y007809D02*
X013962Y007809D01*
X014060Y007711D02*
X014200Y007711D01*
X014170Y007612D02*
X014090Y007612D01*
X014090Y007514D02*
X014170Y007514D01*
X014170Y007415D02*
X014090Y007415D01*
X014090Y007317D02*
X014170Y007317D01*
X014251Y007218D02*
X014009Y007218D01*
X013910Y007120D02*
X014350Y007120D01*
X014412Y006923D02*
X013848Y006923D01*
X013947Y006824D02*
X014313Y006824D01*
X014215Y006726D02*
X014045Y006726D01*
X014090Y006627D02*
X014170Y006627D01*
X014170Y006529D02*
X014090Y006529D01*
X014090Y006430D02*
X014170Y006430D01*
X014170Y006332D02*
X014090Y006332D01*
X014118Y006233D02*
X014024Y006233D01*
X013630Y006490D02*
X013580Y006490D01*
X012730Y007340D01*
X013030Y007640D02*
X013380Y007990D01*
X013402Y006923D02*
X013412Y006923D01*
X014630Y005490D02*
X014130Y004990D01*
X014842Y005051D02*
X015030Y005051D01*
X015030Y004953D02*
X014846Y004953D01*
X014945Y004854D02*
X015030Y004854D01*
X015030Y005150D02*
X014940Y005150D01*
X011528Y001406D02*
X006201Y001406D01*
X004630Y002690D02*
X004230Y003090D01*
X003630Y003090D01*
X003380Y003340D01*
X003522Y003574D02*
X004133Y003574D01*
X004084Y003475D02*
X003616Y003475D01*
X003650Y003377D02*
X004381Y003377D01*
X004381Y003475D02*
X004439Y003475D01*
X004439Y003574D02*
X004381Y003574D01*
X004381Y003672D02*
X004439Y003672D01*
X004562Y003672D02*
X004570Y003672D01*
X004258Y003672D02*
X003260Y003672D01*
X003260Y003771D02*
X005270Y003771D01*
X005270Y003869D02*
X003206Y003869D01*
X003107Y003968D02*
X005270Y003968D01*
X005270Y004066D02*
X003009Y004066D01*
X002955Y004165D02*
X005270Y004165D01*
X005270Y004263D02*
X004969Y004263D01*
X004990Y003672D02*
X005050Y003672D01*
X005250Y003672D02*
X005270Y003672D01*
X004389Y004953D02*
X004331Y004953D01*
X004331Y005051D02*
X004389Y005051D01*
X004244Y005150D02*
X004547Y005150D01*
X004441Y005347D02*
X004890Y005347D01*
X004890Y005248D02*
X004343Y005248D01*
X004080Y005240D02*
X003230Y005240D01*
X003050Y005248D02*
X003039Y005248D01*
X003008Y005150D02*
X002940Y005150D01*
X002963Y005051D02*
X002842Y005051D01*
X002960Y004953D02*
X002465Y004953D01*
X002230Y005090D02*
X002130Y004990D01*
X001950Y004854D02*
X001917Y004854D01*
X001418Y005051D02*
X000842Y005051D01*
X000917Y004854D02*
X001343Y004854D01*
X001245Y004756D02*
X001015Y004756D01*
X001090Y004657D02*
X001170Y004657D01*
X001170Y004559D02*
X001090Y004559D01*
X001090Y004460D02*
X001170Y004460D01*
X001170Y004362D02*
X001090Y004362D01*
X001054Y004263D02*
X001206Y004263D01*
X001305Y004165D02*
X000955Y004165D01*
X000857Y004066D02*
X001403Y004066D01*
X001416Y003672D02*
X000415Y003672D01*
X000415Y003574D02*
X001114Y003574D01*
X000942Y003475D02*
X000415Y003475D01*
X000415Y003377D02*
X000819Y003377D01*
X000724Y003278D02*
X000415Y003278D01*
X000415Y003180D02*
X000646Y003180D01*
X000584Y003081D02*
X000415Y003081D01*
X000415Y002983D02*
X000535Y002983D01*
X000497Y002884D02*
X000415Y002884D01*
X000415Y002786D02*
X000467Y002786D01*
X000445Y002687D02*
X000415Y002687D01*
X000415Y002589D02*
X000434Y002589D01*
X000415Y002490D02*
X001580Y002490D01*
X001580Y002440D02*
X000430Y002440D01*
X000430Y002423D01*
X000445Y002289D01*
X000475Y002157D01*
X000520Y002030D01*
X000578Y001909D01*
X000650Y001794D01*
X000734Y001689D01*
X000829Y001594D01*
X000934Y001510D01*
X001049Y001438D01*
X001170Y001380D01*
X001297Y001335D01*
X001429Y001305D01*
X001563Y001290D01*
X001580Y001290D01*
X001580Y002440D01*
X001580Y002391D02*
X001680Y002391D01*
X001680Y002293D02*
X001580Y002293D01*
X001580Y002194D02*
X001680Y002194D01*
X001680Y002096D02*
X001580Y002096D01*
X001580Y001997D02*
X001680Y001997D01*
X001680Y001899D02*
X001580Y001899D01*
X001580Y001800D02*
X001680Y001800D01*
X001680Y001702D02*
X001580Y001702D01*
X001580Y001603D02*
X001680Y001603D01*
X001680Y001505D02*
X001580Y001505D01*
X001580Y001406D02*
X001680Y001406D01*
X001680Y001308D02*
X001580Y001308D01*
X001416Y001308D02*
X000415Y001308D01*
X000415Y001406D02*
X001114Y001406D01*
X000942Y001505D02*
X000415Y001505D01*
X000415Y001603D02*
X000819Y001603D01*
X000724Y001702D02*
X000415Y001702D01*
X000415Y001800D02*
X000646Y001800D01*
X000584Y001899D02*
X000415Y001899D01*
X000415Y001997D02*
X000535Y001997D01*
X000497Y002096D02*
X000415Y002096D01*
X000415Y002194D02*
X000467Y002194D01*
X000445Y002293D02*
X000415Y002293D01*
X000415Y002391D02*
X000434Y002391D01*
X001580Y002589D02*
X001680Y002589D01*
X001680Y002687D02*
X001580Y002687D01*
X001580Y002786D02*
X001680Y002786D01*
X001680Y002884D02*
X001580Y002884D01*
X001580Y002983D02*
X001680Y002983D01*
X001680Y003081D02*
X001580Y003081D01*
X001580Y003180D02*
X001680Y003180D01*
X001680Y003278D02*
X001580Y003278D01*
X001580Y003377D02*
X001680Y003377D01*
X001680Y003475D02*
X001580Y003475D01*
X001580Y003574D02*
X001680Y003574D01*
X001680Y003672D02*
X001580Y003672D01*
X001844Y003672D02*
X002893Y003672D01*
X002900Y003574D02*
X002146Y003574D01*
X002318Y003475D02*
X002900Y003475D01*
X002900Y003377D02*
X002441Y003377D01*
X002536Y003278D02*
X002900Y003278D01*
X002900Y003180D02*
X002614Y003180D01*
X002676Y003081D02*
X002934Y003081D01*
X003033Y002983D02*
X002725Y002983D01*
X002763Y002884D02*
X003131Y002884D01*
X003230Y002786D02*
X002793Y002786D01*
X002815Y002687D02*
X003978Y002687D01*
X004010Y002589D02*
X002826Y002589D01*
X003697Y003278D02*
X004094Y003278D01*
X004050Y002490D02*
X001680Y002490D01*
X002345Y003771D02*
X000415Y003771D01*
X000415Y003869D02*
X002246Y003869D01*
X002148Y003968D02*
X000415Y003968D01*
X001857Y004066D02*
X002049Y004066D01*
X002917Y004854D02*
X002994Y004854D01*
X003015Y004756D02*
X003091Y004756D01*
X003090Y004657D02*
X004083Y004657D01*
X004034Y004756D02*
X003369Y004756D01*
X003410Y005445D02*
X003598Y005445D01*
X003560Y005544D02*
X003410Y005544D01*
X003410Y005642D02*
X003560Y005642D01*
X003600Y005741D02*
X003410Y005741D01*
X003386Y005839D02*
X003726Y005839D01*
X003934Y005839D02*
X004074Y005839D01*
X004173Y005938D02*
X003287Y005938D01*
X003189Y006036D02*
X004271Y006036D01*
X004370Y006135D02*
X003090Y006135D01*
X003052Y006233D02*
X003871Y006233D01*
X003793Y006332D02*
X003110Y006332D01*
X003110Y006430D02*
X003763Y006430D01*
X003459Y006627D02*
X003110Y006627D01*
X003073Y006726D02*
X003395Y006726D01*
X004289Y006233D02*
X004468Y006233D01*
X004730Y006240D02*
X008680Y006240D01*
X009280Y006790D01*
X009280Y006990D01*
X009430Y007140D01*
X009340Y006050D02*
X009330Y006040D01*
X004880Y006040D01*
X004080Y005240D01*
X004080Y005590D02*
X004730Y006240D01*
X004934Y005839D02*
X005300Y005839D01*
X005300Y005741D02*
X005261Y005741D01*
X004899Y005741D02*
X004835Y005741D01*
X004830Y005642D02*
X004737Y005642D01*
X004810Y005544D02*
X004638Y005544D01*
X004540Y005445D02*
X004827Y005445D01*
X004080Y005590D02*
X003830Y005590D01*
X007623Y008302D02*
X010850Y008302D01*
X008380Y007140D02*
X008380Y006940D01*
X008280Y006840D01*
X008670Y015985D02*
X002724Y015985D01*
X002675Y016083D02*
X008768Y016083D01*
X008867Y016182D02*
X002613Y016182D01*
X001425Y016674D02*
X000415Y016674D01*
X000415Y016576D02*
X001118Y016576D01*
X000945Y016477D02*
X000415Y016477D01*
X000415Y016379D02*
X000821Y016379D01*
X000725Y016280D02*
X000415Y016280D01*
X000415Y016182D02*
X000647Y016182D01*
X000585Y016083D02*
X000415Y016083D01*
X000415Y015985D02*
X000536Y015985D01*
X000497Y015886D02*
X000415Y015886D01*
X000415Y015788D02*
X000467Y015788D01*
X000445Y015689D02*
X000415Y015689D01*
X000415Y015591D02*
X000434Y015591D01*
D22*
X000780Y014090D02*
X003380Y014090D01*
X003380Y013859D01*
X003780Y012790D02*
X003680Y012690D01*
X003780Y012790D02*
X006830Y012790D01*
X007230Y012390D01*
X008430Y012390D01*
X008530Y012490D01*
X009180Y012490D01*
X009430Y012240D01*
X010580Y012240D01*
X010580Y013151D01*
X010471Y013260D01*
X009880Y013477D02*
X009880Y014190D01*
X010630Y014190D01*
X012713Y009490D02*
X013630Y009490D01*
X015280Y007890D02*
X015280Y004040D01*
X015130Y003890D01*
X014180Y003890D01*
X013180Y003890D01*
X013180Y004090D01*
X012980Y004290D01*
X012980Y004590D01*
X012430Y005190D01*
X010880Y005190D01*
X010580Y004890D01*
X010130Y004440D01*
X009430Y004440D01*
X009430Y003790D01*
X009430Y002990D01*
X009300Y002990D01*
X009221Y002910D01*
X008630Y003340D02*
X008630Y003490D01*
X008580Y003540D01*
X007680Y003540D01*
X007480Y003340D01*
X006580Y003340D01*
X007930Y004040D02*
X007980Y004090D01*
X007980Y004590D01*
X008230Y004840D01*
X009930Y004840D01*
X011330Y006240D01*
X011680Y006240D01*
X013180Y003890D02*
X013180Y001990D01*
X012980Y001790D01*
X012880Y001790D01*
X011880Y001790D02*
X011030Y001790D01*
X010830Y001990D01*
X010830Y002340D01*
X010830Y002140D01*
X008930Y002140D01*
X008630Y003490D02*
X008589Y003890D01*
X008489Y003891D01*
X003730Y001890D02*
X003730Y001540D01*
X002580Y001540D01*
X001630Y002490D01*
X000680Y003440D01*
X000680Y003690D01*
X000780Y013859D02*
X000780Y014090D01*
D23*
X007930Y004040D03*
X011680Y006240D03*
D24*
X010580Y004890D03*
X009430Y003790D03*
X008930Y002140D03*
X008580Y002140D03*
X007980Y002190D03*
X007130Y002190D03*
X006680Y001690D03*
X006580Y003340D03*
X006830Y004590D03*
X007580Y004590D03*
X008080Y008290D03*
X007480Y008890D03*
X008080Y009540D03*
X008680Y008890D03*
X007630Y012840D03*
X008280Y013190D03*
X006630Y013490D03*
X006630Y014390D03*
X005630Y014390D03*
X004380Y014390D03*
X004030Y013190D03*
X004330Y010340D03*
X001080Y009990D03*
X000680Y003690D03*
X010830Y001990D03*
X014180Y003890D03*
X015280Y007890D03*
X013080Y009040D03*
X013080Y012990D03*
X015630Y014490D03*
D25*
X013080Y012990D02*
X012780Y013290D01*
X012780Y015140D01*
X011330Y015140D01*
X010830Y015640D01*
X009430Y015640D01*
X009230Y015440D01*
X009230Y015140D01*
X008830Y014740D01*
X008830Y014190D01*
X008830Y013140D01*
X009289Y013140D01*
X009289Y013260D01*
X008830Y013140D02*
X008830Y012890D01*
X008780Y012840D01*
X007630Y012840D01*
X007380Y012840D01*
X007080Y013140D01*
X004080Y013140D01*
X004030Y013190D01*
X003380Y014090D02*
X003380Y014390D01*
X004380Y014390D01*
X003080Y015390D02*
X002980Y015490D01*
X001630Y015490D01*
X010580Y012240D02*
X011330Y012240D01*
X011430Y012340D01*
X012480Y012340D01*
X008039Y002910D02*
X007980Y002910D01*
X007980Y002190D01*
D26*
X008580Y002140D02*
X008930Y002140D01*
X008630Y002190D02*
X008580Y002140D01*
X008630Y002190D02*
X008630Y003127D01*
X008630Y003340D01*
X008630Y003490D02*
X008630Y004032D01*
X008489Y003891D01*
X007580Y004590D02*
X007580Y004740D01*
X007480Y004840D01*
X006980Y004840D01*
X006830Y004690D01*
X006830Y004590D01*
X006280Y005540D02*
X005730Y005540D01*
X005730Y004440D01*
X005480Y004190D01*
X005480Y003390D01*
X005150Y003390D01*
X005149Y003390D01*
X004730Y003990D02*
X003780Y003990D01*
X003780Y003390D01*
X003780Y004790D01*
X003680Y004890D01*
X003730Y004840D01*
X004360Y004840D01*
X005100Y004840D02*
X005100Y005440D01*
X005080Y005540D01*
X004980Y006840D02*
X004449Y006840D01*
X004450Y006839D01*
X004450Y006840D01*
X003780Y006040D02*
X003380Y006040D01*
X002930Y006490D01*
X002630Y006490D01*
X003780Y003390D02*
X004410Y003390D01*
X004430Y003390D01*
X003830Y002590D02*
X003830Y001990D01*
X003730Y001890D01*
X003780Y001940D01*
X004410Y001940D01*
X004780Y002290D02*
X004780Y002390D01*
X004780Y002290D02*
X003830Y002290D01*
X003830Y002590D01*
X005150Y001940D02*
X005630Y001940D01*
X002630Y012490D02*
X001630Y012490D01*
X001630Y013490D02*
X000780Y013490D01*
X002630Y013490D02*
X003380Y013490D01*
X003380Y014390D02*
X003380Y015390D01*
X003080Y015390D01*
X004380Y014390D02*
X005230Y014390D01*
X005630Y014390D01*
X006130Y014390D01*
X006630Y014390D01*
X007780Y014390D01*
X007930Y014540D01*
X007930Y015040D01*
X008380Y015490D01*
X008380Y016340D01*
X008530Y016490D01*
X011230Y016490D01*
X013080Y012990D02*
X014130Y012990D01*
X014630Y012490D01*
X015630Y014490D02*
X014630Y015490D01*
X006630Y014390D02*
X006630Y013490D01*
D27*
X008080Y008890D03*
M02*
