%
M48
M72
T01C0.0118
T02C0.0161
T03C0.0240
T04C0.0319
T05C0.0402
T06C0.1102
%
T01
X3080Y15390
X4380Y13790
X5230Y14390
X4530Y15190
X6130Y14390
X7180Y13840
X7830Y13840
X8830Y14190
X7880Y15540
X8530Y16490
X10630Y14190
X10980Y14190
X11330Y14190
X11930Y13940
X12430Y14740
X11280Y13240
X10580Y12240
X9980Y12590
X8830Y12090
X9330Y10640
X9630Y10390
X9330Y10090
X8680Y10590
X8280Y10540
X7230Y11740
X6830Y11740
X5980Y11240
X5530Y10890
X4380Y10940
X3730Y10340
X3930Y9790
X3780Y11590
X3680Y12690
X2130Y9990
X1030Y10890
X3530Y7590
X3030Y6840
X3780Y6040
X3830Y5590
X3680Y4890
X3230Y4990
X2230Y5090
X3380Y3340
X3780Y3390
X4280Y2640
X3830Y2590
X3730Y1890
X3330Y1840
X2580Y1540
X4780Y1940
X4780Y2390
X5630Y1940
X5480Y3390
X4780Y3390
X4730Y3990
X4730Y4840
X5080Y5540
X6280Y5540
X7230Y4440
X7480Y3340
X7630Y1740
X10830Y2340
X11030Y3040
X11030Y3540
X11030Y3990
X11030Y4490
X11030Y4790
X10380Y6290
X10580Y6890
X11080Y7490
X11580Y6890
X11280Y6590
X12380Y6590
X12380Y7490
X13030Y7640
X12730Y8340
X11880Y8440
X11030Y8590
X9730Y8190
X9430Y7140
X8780Y7140
X8380Y7140
X7930Y7390
X7430Y7190
X6830Y7140
X6630Y7490
X7030Y7940
X6880Y8340
X6530Y8690
X6630Y9340
X6330Y9590
X6980Y10240
X7430Y8490
X9340Y6050
X9780Y9390
X10430Y10790
X11930Y11940
X12480Y12340
X13630Y14590
X13630Y16490
X11230Y16490
X10680Y15290
X12713Y9490
X12630Y4090
X12630Y3290
X13580Y1390
X15630Y3490
X11280Y1390
X4980Y6840
X4880Y7590
X4080Y7290
X4080Y6840
T02
X4030Y13190
X4380Y14390
X5630Y14390
X6630Y14390
X6630Y13490
X7630Y12840
X8280Y13190
X8080Y9540
X7480Y8890
X8080Y8290
X8680Y8890
X10580Y4890
X9430Y3790
X8930Y2140
X8580Y2140
X7980Y2190
X7130Y2190
X6680Y1690
X6580Y3340
X6830Y4590
X7580Y4590
X10830Y1990
X14180Y3890
X15280Y7890
X13080Y9040
X13080Y12990
X15630Y14490
X4330Y10340
X1080Y9990
X680Y3690
T03
X7930Y4040
X11680Y6240
T04
X8080Y8890
T05
X1630Y13490
X1630Y12490
X1630Y11490
X1630Y10490
X1630Y9490
X1630Y8490
X1630Y7490
X1630Y6490
X1630Y5490
X1630Y4490
X2630Y4490
X2630Y5490
X2630Y6490
X2630Y7490
X2630Y8490
X2630Y9490
X2630Y10490
X2630Y11490
X2630Y12490
X2630Y13490
X630Y8490
X630Y7490
X630Y6490
X630Y5490
X630Y4490
X11880Y1790
X12880Y1790
X13630Y4490
X13630Y5490
X13630Y6490
X13630Y7490
X13630Y8490
X13630Y9490
X13630Y10490
X13630Y11490
X13630Y12490
X13630Y13490
X14630Y13490
X14630Y12490
X14630Y11490
X14630Y10490
X14630Y9490
X14630Y8490
X14630Y7490
X14630Y6490
X14630Y5490
X14630Y4490
T06
X1630Y15490
X1630Y2490
X14630Y2490
X14630Y15490
M30
