G75*
%MOIN*%
%OFA0B0*%
%FSLAX24Y24*%
%IPPOS*%
%LPD*%
%AMOC8*
5,1,8,0,0,1.08239X$1,22.5*
%
%ADD10C,0.0100*%
%ADD11C,0.0060*%
%ADD12C,0.0050*%
%ADD13C,0.0010*%
%ADD14C,0.0110*%
%ADD15C,0.0070*%
%ADD16R,0.0004X0.0075*%
%ADD17R,0.0004X0.0165*%
%ADD18R,0.0004X0.0220*%
%ADD19R,0.0004X0.0264*%
%ADD20R,0.0004X0.0295*%
%ADD21R,0.0004X0.0327*%
%ADD22R,0.0004X0.0354*%
%ADD23R,0.0004X0.0150*%
%ADD24R,0.0004X0.0193*%
%ADD25R,0.0004X0.0382*%
%ADD26R,0.0004X0.0402*%
%ADD27R,0.0004X0.0197*%
%ADD28R,0.0004X0.0421*%
%ADD29R,0.0004X0.0445*%
%ADD30R,0.0004X0.0461*%
%ADD31R,0.0004X0.0480*%
%ADD32R,0.0004X0.0496*%
%ADD33R,0.0004X0.0512*%
%ADD34R,0.0004X0.0528*%
%ADD35R,0.0004X0.0543*%
%ADD36R,0.0004X0.0555*%
%ADD37R,0.0004X0.0567*%
%ADD38R,0.0004X0.0583*%
%ADD39R,0.0004X0.0594*%
%ADD40R,0.0004X0.0606*%
%ADD41R,0.0004X0.0618*%
%ADD42R,0.0004X0.0630*%
%ADD43R,0.0004X0.0638*%
%ADD44R,0.0004X0.0654*%
%ADD45R,0.0004X0.0661*%
%ADD46R,0.0004X0.0669*%
%ADD47R,0.0004X0.0677*%
%ADD48R,0.0004X0.0693*%
%ADD49R,0.0004X0.0701*%
%ADD50R,0.0004X0.0709*%
%ADD51R,0.0004X0.0717*%
%ADD52R,0.0004X0.0311*%
%ADD53R,0.0004X0.0287*%
%ADD54R,0.0004X0.0276*%
%ADD55R,0.0004X0.0272*%
%ADD56R,0.0004X0.0256*%
%ADD57R,0.0004X0.0252*%
%ADD58R,0.0004X0.0248*%
%ADD59R,0.0004X0.0244*%
%ADD60R,0.0004X0.0240*%
%ADD61R,0.0004X0.0236*%
%ADD62R,0.0004X0.0232*%
%ADD63R,0.0004X0.0228*%
%ADD64R,0.0004X0.0224*%
%ADD65R,0.0004X0.0217*%
%ADD66R,0.0004X0.0213*%
%ADD67R,0.0004X0.0209*%
%ADD68R,0.0004X0.0205*%
%ADD69R,0.0004X0.0201*%
%ADD70R,0.0004X0.0189*%
%ADD71R,0.0004X0.0185*%
%ADD72R,0.0004X0.0181*%
%ADD73R,0.0004X0.0177*%
%ADD74R,0.0004X0.0173*%
%ADD75R,0.0004X0.0169*%
%ADD76R,0.0004X0.0161*%
%ADD77R,0.0004X0.0157*%
%ADD78R,0.0004X0.0154*%
%ADD79R,0.0004X0.0551*%
%ADD80R,0.0004X0.0547*%
%ADD81R,0.0004X0.0539*%
%ADD82R,0.0004X0.0535*%
%ADD83R,0.0004X0.0571*%
%ADD84R,0.0004X0.0579*%
%ADD85R,0.0004X0.0587*%
%ADD86R,0.0004X0.0591*%
%ADD87R,0.0004X0.0598*%
%ADD88R,0.0004X0.0602*%
%ADD89R,0.0004X0.0610*%
%ADD90R,0.0004X0.0614*%
%ADD91R,0.0004X0.0626*%
%ADD92R,0.0004X0.0634*%
%ADD93R,0.0004X0.0642*%
%ADD94R,0.0004X0.0646*%
%ADD95R,0.0004X0.0280*%
%ADD96R,0.0004X0.0031*%
%ADD97R,0.0004X0.0067*%
%ADD98R,0.0004X0.0087*%
%ADD99R,0.0004X0.0102*%
%ADD100R,0.0004X0.0114*%
%ADD101R,0.0004X0.0126*%
%ADD102R,0.0004X0.0134*%
%ADD103R,0.0004X0.0146*%
%ADD104R,0.0004X0.0138*%
%ADD105R,0.0004X0.0118*%
%ADD106R,0.0004X0.0091*%
%ADD107R,0.0004X0.0071*%
%ADD108R,0.0004X0.0039*%
%ADD109R,0.0004X0.0689*%
%ADD110R,0.0004X0.0260*%
%ADD111R,0.0004X0.0685*%
%ADD112R,0.0004X0.0681*%
%ADD113R,0.0004X0.0673*%
%ADD114R,0.0004X0.0665*%
%ADD115R,0.0004X0.0657*%
%ADD116R,0.0004X0.0622*%
%ADD117R,0.0004X0.0559*%
%ADD118R,0.0004X0.0476*%
%ADD119R,0.0004X0.0457*%
%ADD120R,0.0004X0.0524*%
%ADD121R,0.0004X0.0441*%
%ADD122R,0.0004X0.0508*%
%ADD123R,0.0004X0.0488*%
%ADD124R,0.0004X0.0398*%
%ADD125R,0.0004X0.0465*%
%ADD126R,0.0004X0.0374*%
%ADD127R,0.0004X0.0433*%
%ADD128R,0.0004X0.0350*%
%ADD129R,0.0004X0.0323*%
%ADD130R,0.0004X0.0059*%
%ADD131R,0.0004X0.0083*%
%ADD132R,0.0004X0.0098*%
%ADD133R,0.0004X0.0122*%
%ADD134R,0.0004X0.0130*%
%ADD135R,0.0004X0.0142*%
%ADD136R,0.0004X0.0106*%
%ADD137R,0.0004X0.0051*%
%ADD138C,0.0160*%
%ADD139C,0.0170*%
%ADD140R,0.0200X0.0200*%
%ADD141C,0.0080*%
%ADD142R,0.0180X0.0330*%
%ADD143R,0.0220X0.0330*%
%ADD144C,0.0079*%
%ADD145R,0.0551X0.0256*%
D10*
X006130Y007390D02*
X006130Y008190D01*
X008330Y008190D01*
X008330Y007390D01*
X007630Y007390D01*
X007630Y006790D01*
X006830Y006790D01*
X006830Y007390D01*
X006130Y007390D01*
X008730Y005490D02*
X008730Y012490D01*
X009530Y012490D01*
X011530Y012490D01*
X011530Y007990D01*
X009530Y007990D01*
X009530Y012490D01*
X009530Y007990D02*
X009530Y005490D01*
X008730Y005490D01*
X009530Y005490D02*
X011530Y005490D01*
X011530Y007990D01*
X004105Y014965D02*
X003972Y015098D01*
X004105Y015232D01*
X003705Y015232D01*
X003772Y015425D02*
X003705Y015492D01*
X003705Y015626D01*
X003772Y015692D01*
X004039Y015692D01*
X004105Y015626D01*
X004105Y015492D01*
X004039Y015425D01*
X003772Y015425D01*
X003405Y015492D02*
X003339Y015425D01*
X003072Y015425D01*
X003005Y015492D01*
X003005Y015626D01*
X003072Y015692D01*
X003339Y015692D01*
X003405Y015626D01*
X003405Y015492D01*
X003405Y015232D02*
X003272Y015098D01*
X003405Y014965D01*
X003005Y014965D01*
X003005Y015232D02*
X003405Y015232D01*
X003705Y014965D02*
X004105Y014965D01*
X004105Y015886D02*
X004105Y016153D01*
X004105Y016019D02*
X003705Y016019D01*
X003405Y016019D02*
X003005Y016019D01*
X003005Y016346D02*
X003272Y016613D01*
X003339Y016613D01*
X003405Y016546D01*
X003405Y016413D01*
X003339Y016346D01*
X003405Y016153D02*
X003405Y015886D01*
X003705Y016346D02*
X003705Y016613D01*
X003705Y016480D02*
X004105Y016480D01*
X003972Y016346D01*
X003005Y016346D02*
X003005Y016613D01*
D11*
X002880Y013990D02*
X001380Y013990D01*
X001130Y013740D01*
X001130Y013240D01*
X001380Y012990D01*
X001130Y012740D01*
X001130Y012240D01*
X001380Y011990D01*
X001130Y011740D01*
X001130Y011240D01*
X001380Y010990D01*
X001130Y010740D01*
X001130Y010240D01*
X001380Y009990D01*
X001130Y009740D01*
X001130Y009240D01*
X001380Y008990D01*
X001130Y008740D01*
X001130Y008240D01*
X001380Y007990D01*
X001130Y007740D01*
X001130Y007240D01*
X001380Y006990D01*
X001130Y006740D01*
X001130Y006240D01*
X001380Y005990D01*
X001130Y005740D01*
X001130Y005240D01*
X001380Y004990D01*
X001130Y004740D01*
X001130Y004240D01*
X001380Y003990D01*
X002880Y003990D01*
X003130Y004240D01*
X003130Y004740D01*
X002880Y004990D01*
X003130Y005240D01*
X003130Y005740D01*
X002880Y005990D01*
X003130Y006240D01*
X003130Y006740D01*
X002880Y006990D01*
X003130Y007240D01*
X003130Y007740D01*
X002880Y007990D01*
X003130Y008240D01*
X003130Y008740D01*
X002880Y008990D01*
X003130Y009240D01*
X003130Y009740D01*
X002880Y009990D01*
X003130Y010240D01*
X003130Y010740D01*
X002880Y010990D01*
X003130Y011240D01*
X003130Y011740D01*
X002880Y011990D01*
X003130Y012240D01*
X003130Y012740D01*
X002880Y012990D01*
X003130Y013240D01*
X003130Y013740D01*
X002880Y013990D01*
X003140Y013356D02*
X003140Y013230D01*
X003620Y013230D02*
X003620Y013356D01*
X003710Y012660D02*
X003710Y012320D01*
X003937Y012660D01*
X003937Y012320D01*
X004078Y012320D02*
X004305Y012320D01*
X004305Y012660D01*
X004078Y012660D01*
X004192Y012490D02*
X004305Y012490D01*
X004446Y012433D02*
X004446Y012660D01*
X004446Y012433D02*
X004560Y012320D01*
X004673Y012433D01*
X004673Y012660D01*
X004817Y013152D02*
X004760Y013208D01*
X004760Y013265D01*
X004817Y013322D01*
X005100Y013322D01*
X005100Y013265D02*
X005100Y013379D01*
X005100Y013520D02*
X005100Y013747D01*
X005044Y013747D01*
X004817Y013520D01*
X004760Y013520D01*
X003568Y012604D02*
X003568Y012377D01*
X003512Y012320D01*
X003398Y012320D01*
X003341Y012377D01*
X003341Y012604D02*
X003398Y012660D01*
X003512Y012660D01*
X003568Y012604D01*
X003455Y011660D02*
X003341Y011547D01*
X003341Y011320D01*
X003341Y011490D02*
X003568Y011490D01*
X003568Y011547D02*
X003455Y011660D01*
X003568Y011547D02*
X003568Y011320D01*
X003710Y011263D02*
X003937Y011263D01*
X004078Y011320D02*
X004078Y011660D01*
X004078Y011490D02*
X004305Y011490D01*
X004305Y011320D02*
X004305Y011660D01*
X004446Y011604D02*
X004503Y011660D01*
X004617Y011660D01*
X004673Y011604D01*
X004673Y011377D01*
X004617Y011320D01*
X004503Y011320D01*
X004446Y011377D01*
X004503Y010660D02*
X004617Y010660D01*
X004673Y010604D01*
X004673Y010377D01*
X004617Y010320D01*
X004503Y010320D01*
X004446Y010377D01*
X004305Y010320D02*
X004305Y010660D01*
X004446Y010604D02*
X004503Y010660D01*
X004305Y010490D02*
X004078Y010490D01*
X004078Y010660D02*
X004078Y010320D01*
X003937Y010263D02*
X003710Y010263D01*
X003568Y010320D02*
X003398Y010320D01*
X003341Y010377D01*
X003341Y010433D01*
X003398Y010490D01*
X003568Y010490D01*
X003398Y010490D02*
X003341Y010547D01*
X003341Y010604D01*
X003398Y010660D01*
X003568Y010660D01*
X003568Y010320D01*
X003455Y009660D02*
X003341Y009547D01*
X003341Y009320D01*
X003341Y009490D02*
X003568Y009490D01*
X003568Y009547D02*
X003455Y009660D01*
X003568Y009547D02*
X003568Y009320D01*
X003710Y009320D02*
X003710Y009660D01*
X003823Y009547D01*
X003937Y009660D01*
X003937Y009320D01*
X004078Y009320D02*
X004192Y009433D01*
X004305Y009320D01*
X004305Y009660D01*
X004446Y009604D02*
X004446Y009490D01*
X004503Y009433D01*
X004673Y009433D01*
X004673Y009320D02*
X004673Y009660D01*
X004503Y009660D01*
X004446Y009604D01*
X004078Y009660D02*
X004078Y009320D01*
X004078Y008660D02*
X004078Y008320D01*
X004192Y008433D01*
X004305Y008320D01*
X004305Y008660D01*
X004446Y008604D02*
X004446Y008490D01*
X004503Y008433D01*
X004673Y008433D01*
X004673Y008320D02*
X004673Y008660D01*
X004503Y008660D01*
X004446Y008604D01*
X003937Y008660D02*
X003937Y008320D01*
X003823Y008547D02*
X003710Y008660D01*
X003710Y008320D01*
X003568Y008320D02*
X003398Y008320D01*
X003341Y008377D01*
X003341Y008433D01*
X003398Y008490D01*
X003568Y008490D01*
X003398Y008490D02*
X003341Y008547D01*
X003341Y008604D01*
X003398Y008660D01*
X003568Y008660D01*
X003568Y008320D01*
X003823Y008547D02*
X003937Y008660D01*
X003937Y007660D02*
X003710Y007660D01*
X003568Y007660D02*
X003341Y007320D01*
X003341Y007660D01*
X003568Y007660D02*
X003568Y007320D01*
X003710Y007320D02*
X003937Y007320D01*
X003937Y007660D01*
X003937Y007490D02*
X003823Y007490D01*
X004323Y007240D02*
X004550Y007240D01*
X004380Y007410D01*
X004380Y007070D01*
X004748Y007127D02*
X004748Y007410D01*
X004805Y007410D02*
X004691Y007410D01*
X004748Y007127D02*
X004805Y007070D01*
X004862Y007070D01*
X004918Y007127D01*
X004192Y005660D02*
X004078Y005547D01*
X004078Y005320D01*
X003937Y005320D02*
X003937Y005660D01*
X003710Y005320D01*
X003710Y005660D01*
X003568Y005547D02*
X003455Y005660D01*
X003341Y005547D01*
X003341Y005320D01*
X003341Y005490D02*
X003568Y005490D01*
X003568Y005547D02*
X003568Y005320D01*
X004078Y005490D02*
X004305Y005490D01*
X004305Y005547D02*
X004192Y005660D01*
X004305Y005547D02*
X004305Y005320D01*
X004823Y005290D02*
X004823Y005177D01*
X004880Y005120D01*
X004993Y005120D01*
X005050Y005177D01*
X005050Y005290D02*
X004937Y005347D01*
X004880Y005347D01*
X004823Y005290D01*
X004823Y005460D02*
X005050Y005460D01*
X005050Y005290D01*
X005191Y005460D02*
X005305Y005460D01*
X005248Y005460D02*
X005248Y005177D01*
X005305Y005120D01*
X005362Y005120D01*
X005418Y005177D01*
X005405Y004010D02*
X005291Y004010D01*
X005348Y004010D02*
X005348Y003727D01*
X005405Y003670D01*
X005462Y003670D01*
X005518Y003727D01*
X005150Y003670D02*
X004923Y003897D01*
X004923Y003954D01*
X004980Y004010D01*
X005093Y004010D01*
X005150Y003954D01*
X005150Y003670D02*
X004923Y003670D01*
X004305Y004320D02*
X004305Y004547D01*
X004192Y004660D01*
X004078Y004547D01*
X004078Y004320D01*
X003937Y004320D02*
X003937Y004660D01*
X003710Y004320D01*
X003710Y004660D01*
X003568Y004660D02*
X003398Y004660D01*
X003341Y004604D01*
X003341Y004547D01*
X003398Y004490D01*
X003568Y004490D01*
X003398Y004490D02*
X003341Y004433D01*
X003341Y004377D01*
X003398Y004320D01*
X003568Y004320D01*
X003568Y004660D01*
X004078Y004490D02*
X004305Y004490D01*
X005130Y002510D02*
X005073Y002454D01*
X005073Y002397D01*
X005130Y002340D01*
X005073Y002283D01*
X005073Y002227D01*
X005130Y002170D01*
X005243Y002170D01*
X005300Y002227D01*
X005187Y002340D02*
X005130Y002340D01*
X005130Y002510D02*
X005243Y002510D01*
X005300Y002454D01*
X005441Y002510D02*
X005555Y002510D01*
X005498Y002510D02*
X005498Y002227D01*
X005555Y002170D01*
X005612Y002170D01*
X005668Y002227D01*
X007750Y003089D02*
X007750Y004059D01*
X009510Y004059D01*
X009510Y003089D01*
X007750Y003089D01*
X008038Y004813D02*
X008265Y004813D01*
X008038Y005039D01*
X008038Y005096D01*
X008095Y005153D01*
X008208Y005153D01*
X008265Y005096D01*
X008406Y005096D02*
X008406Y004983D01*
X008463Y004926D01*
X008633Y004926D01*
X008520Y004926D02*
X008406Y004813D01*
X008406Y005096D02*
X008463Y005153D01*
X008633Y005153D01*
X008633Y004813D01*
X008775Y004926D02*
X008775Y005153D01*
X009002Y005153D02*
X009002Y004926D01*
X008888Y004813D01*
X008775Y004926D01*
X012059Y004590D02*
X012286Y004590D01*
X012116Y004760D01*
X012116Y004420D01*
X012428Y004477D02*
X012428Y004704D01*
X012484Y004760D01*
X012598Y004760D01*
X012654Y004704D01*
X012654Y004477D01*
X012598Y004420D01*
X012484Y004420D01*
X012428Y004477D01*
X012787Y004420D02*
X012900Y004420D01*
X012843Y004420D02*
X012843Y004760D01*
X012787Y004760D02*
X012900Y004760D01*
X013130Y004740D02*
X013130Y004240D01*
X013380Y003990D01*
X014880Y003990D01*
X015130Y004240D01*
X015130Y004740D01*
X014880Y004990D01*
X015130Y005240D01*
X015130Y005740D01*
X014880Y005990D01*
X015130Y006240D01*
X015130Y006740D01*
X014880Y006990D01*
X015130Y007240D01*
X015130Y007740D01*
X014880Y007990D01*
X015130Y008240D01*
X015130Y008740D01*
X014880Y008990D01*
X015130Y009240D01*
X015130Y009740D01*
X014880Y009990D01*
X015130Y010240D01*
X015130Y010740D01*
X014880Y010990D01*
X015130Y011240D01*
X015130Y011740D01*
X014880Y011990D01*
X015130Y012240D01*
X015130Y012740D01*
X014880Y012990D01*
X015130Y013240D01*
X015130Y013740D01*
X014880Y013990D01*
X013380Y013990D01*
X013130Y013740D01*
X013130Y013240D01*
X013380Y012990D01*
X013130Y012740D01*
X013130Y012240D01*
X013380Y011990D01*
X013130Y011740D01*
X013130Y011240D01*
X013380Y010990D01*
X013130Y010740D01*
X013130Y010240D01*
X013380Y009990D01*
X013130Y009740D01*
X013130Y009240D01*
X013380Y008990D01*
X013130Y008740D01*
X013130Y008240D01*
X013380Y007990D01*
X013130Y007740D01*
X013130Y007240D01*
X013380Y006990D01*
X013130Y006740D01*
X013130Y006240D01*
X013380Y005990D01*
X013130Y005740D01*
X013130Y005240D01*
X013380Y004990D01*
X013130Y004740D01*
X012900Y005320D02*
X012787Y005320D01*
X012843Y005320D02*
X012843Y005660D01*
X012787Y005660D02*
X012900Y005660D01*
X012654Y005604D02*
X012654Y005377D01*
X012598Y005320D01*
X012484Y005320D01*
X012428Y005377D01*
X012428Y005604D01*
X012484Y005660D01*
X012598Y005660D01*
X012654Y005604D01*
X012286Y005604D02*
X012229Y005660D01*
X012116Y005660D01*
X012059Y005604D01*
X012059Y005547D01*
X012116Y005490D01*
X012059Y005433D01*
X012059Y005377D01*
X012116Y005320D01*
X012229Y005320D01*
X012286Y005377D01*
X012173Y005490D02*
X012116Y005490D01*
X012059Y006320D02*
X012286Y006320D01*
X012059Y006547D01*
X012059Y006604D01*
X012116Y006660D01*
X012229Y006660D01*
X012286Y006604D01*
X012428Y006604D02*
X012428Y006377D01*
X012484Y006320D01*
X012598Y006320D01*
X012654Y006377D01*
X012654Y006604D01*
X012598Y006660D01*
X012484Y006660D01*
X012428Y006604D01*
X012787Y006660D02*
X012900Y006660D01*
X012843Y006660D02*
X012843Y006320D01*
X012787Y006320D02*
X012900Y006320D01*
X012900Y007420D02*
X012787Y007420D01*
X012843Y007420D02*
X012843Y007760D01*
X012787Y007760D02*
X012900Y007760D01*
X012654Y007704D02*
X012654Y007477D01*
X012598Y007420D01*
X012484Y007420D01*
X012428Y007477D01*
X012428Y007704D01*
X012484Y007760D01*
X012598Y007760D01*
X012654Y007704D01*
X012286Y007647D02*
X012173Y007760D01*
X012173Y007420D01*
X012286Y007420D02*
X012059Y007420D01*
X012163Y010320D02*
X011937Y010320D01*
X012163Y010320D02*
X012163Y010660D01*
X012305Y010604D02*
X012362Y010660D01*
X012475Y010660D01*
X012532Y010604D01*
X012532Y010377D01*
X012475Y010320D01*
X012362Y010320D01*
X012305Y010377D01*
X012673Y010377D02*
X012730Y010320D01*
X012843Y010320D01*
X012900Y010377D01*
X012843Y010490D02*
X012730Y010490D01*
X012673Y010433D01*
X012673Y010377D01*
X012843Y010490D02*
X012900Y010547D01*
X012900Y010604D01*
X012843Y010660D01*
X012730Y010660D01*
X012673Y010604D01*
X012730Y011320D02*
X012843Y011320D01*
X012900Y011377D01*
X012843Y011490D02*
X012730Y011490D01*
X012673Y011433D01*
X012673Y011377D01*
X012730Y011320D01*
X012532Y011320D02*
X012362Y011320D01*
X012305Y011377D01*
X012305Y011604D01*
X012362Y011660D01*
X012532Y011660D01*
X012532Y011320D01*
X012673Y011604D02*
X012730Y011660D01*
X012843Y011660D01*
X012900Y011604D01*
X012900Y011547D01*
X012843Y011490D01*
X012163Y011490D02*
X011937Y011490D01*
X011937Y011547D02*
X011937Y011320D01*
X011937Y011547D02*
X012050Y011660D01*
X012163Y011547D01*
X012163Y011320D01*
X012730Y012320D02*
X012673Y012377D01*
X012673Y012490D01*
X012787Y012490D01*
X012900Y012377D02*
X012900Y012604D01*
X012843Y012660D01*
X012730Y012660D01*
X012673Y012604D01*
X012730Y012320D02*
X012843Y012320D01*
X012900Y012377D01*
X012843Y013320D02*
X012730Y013320D01*
X012673Y013377D01*
X012673Y013490D01*
X012730Y013547D01*
X012787Y013547D01*
X012900Y013490D01*
X012900Y013660D01*
X012673Y013660D01*
X012900Y013377D02*
X012843Y013320D01*
X010760Y013439D02*
X010760Y014409D01*
X009000Y014409D01*
X009000Y013439D01*
X010760Y013439D01*
X010238Y015313D02*
X010125Y015426D01*
X010125Y015653D01*
X009983Y015653D02*
X009813Y015653D01*
X009756Y015596D01*
X009756Y015483D01*
X009813Y015426D01*
X009983Y015426D01*
X009870Y015426D02*
X009756Y015313D01*
X009615Y015313D02*
X009388Y015313D01*
X009502Y015313D02*
X009502Y015653D01*
X009615Y015539D01*
X009983Y015653D02*
X009983Y015313D01*
X010238Y015313D02*
X010352Y015426D01*
X010352Y015653D01*
X015260Y013964D02*
X015570Y013964D01*
X015570Y013861D02*
X015570Y014068D01*
X015467Y013727D02*
X015260Y013727D01*
X015415Y013727D02*
X015415Y013520D01*
X015467Y013520D02*
X015570Y013623D01*
X015467Y013727D01*
X015467Y013520D02*
X015260Y013520D01*
X015312Y013386D02*
X015260Y013334D01*
X015260Y013179D01*
X015570Y013179D01*
X015570Y013334D01*
X015519Y013386D01*
X015467Y013386D01*
X015415Y013334D01*
X015415Y013179D01*
X015363Y013045D02*
X015260Y012942D01*
X015363Y012839D01*
X015570Y012839D01*
X015570Y013045D02*
X015363Y013045D01*
X015415Y013334D02*
X015363Y013386D01*
X015312Y013386D01*
X015617Y012563D02*
X015560Y012506D01*
X015560Y012393D01*
X015617Y012336D01*
X015730Y012449D02*
X015730Y012506D01*
X015673Y012563D01*
X015617Y012563D01*
X015730Y012506D02*
X015787Y012563D01*
X015844Y012563D01*
X015900Y012506D01*
X015900Y012393D01*
X015844Y012336D01*
X015520Y011794D02*
X015210Y011794D01*
X015210Y011897D02*
X015210Y011690D01*
X015210Y011556D02*
X015520Y011350D01*
X015520Y011216D02*
X015520Y011009D01*
X015520Y011112D02*
X015210Y011112D01*
X015210Y011350D02*
X015520Y011556D01*
X015417Y011690D02*
X015520Y011794D01*
X015610Y010897D02*
X015610Y010690D01*
X015610Y010794D02*
X015920Y010794D01*
X015817Y010690D01*
X015920Y010556D02*
X015610Y010350D01*
X015610Y010216D02*
X015713Y010112D01*
X015713Y010164D02*
X015713Y010009D01*
X015610Y010009D02*
X015920Y010009D01*
X015920Y010164D01*
X015869Y010216D01*
X015765Y010216D01*
X015713Y010164D01*
X015920Y010350D02*
X015610Y010556D01*
X015494Y009563D02*
X015550Y009506D01*
X015550Y009393D01*
X015494Y009336D01*
X015267Y009336D01*
X015210Y009393D01*
X015210Y009506D01*
X015267Y009563D01*
X015380Y009563D01*
X015380Y009449D01*
X015610Y008997D02*
X015610Y008790D01*
X015817Y008997D01*
X015869Y008997D01*
X015920Y008945D01*
X015920Y008842D01*
X015869Y008790D01*
X015920Y008656D02*
X015610Y008450D01*
X015610Y008316D02*
X015713Y008212D01*
X015713Y008264D02*
X015713Y008109D01*
X015610Y008109D02*
X015920Y008109D01*
X015920Y008264D01*
X015869Y008316D01*
X015765Y008316D01*
X015713Y008264D01*
X015920Y008450D02*
X015610Y008656D01*
X015469Y007897D02*
X015520Y007845D01*
X015520Y007742D01*
X015469Y007690D01*
X015520Y007556D02*
X015210Y007350D01*
X015210Y007556D02*
X015520Y007350D01*
X015520Y007216D02*
X015520Y007009D01*
X015520Y007112D02*
X015210Y007112D01*
X015610Y006789D02*
X015662Y006840D01*
X015713Y006840D01*
X015765Y006789D01*
X015765Y006634D01*
X015662Y006634D01*
X015610Y006685D01*
X015610Y006789D01*
X015765Y006634D02*
X015869Y006737D01*
X015920Y006840D01*
X015869Y006500D02*
X015662Y006500D01*
X015610Y006448D01*
X015610Y006345D01*
X015662Y006293D01*
X015869Y006293D01*
X015920Y006345D01*
X015920Y006448D01*
X015869Y006500D01*
X015920Y006169D02*
X015920Y006066D01*
X015920Y006117D02*
X015610Y006117D01*
X015610Y006066D02*
X015610Y006169D01*
X015520Y005840D02*
X015520Y005634D01*
X015365Y005634D01*
X015417Y005737D01*
X015417Y005789D01*
X015365Y005840D01*
X015262Y005840D01*
X015210Y005789D01*
X015210Y005685D01*
X015262Y005634D01*
X015262Y005500D02*
X015469Y005500D01*
X015520Y005448D01*
X015520Y005345D01*
X015469Y005293D01*
X015262Y005293D01*
X015210Y005345D01*
X015210Y005448D01*
X015262Y005500D01*
X015210Y005169D02*
X015210Y005066D01*
X015210Y005117D02*
X015520Y005117D01*
X015520Y005066D02*
X015520Y005169D01*
X015617Y004563D02*
X015730Y004563D01*
X015730Y004449D01*
X015617Y004336D02*
X015560Y004393D01*
X015560Y004506D01*
X015617Y004563D01*
X015844Y004563D02*
X015900Y004506D01*
X015900Y004393D01*
X015844Y004336D01*
X015617Y004336D01*
X015210Y007690D02*
X015417Y007897D01*
X015469Y007897D01*
X015210Y007897D02*
X015210Y007690D01*
X001020Y013230D02*
X001020Y013356D01*
X000540Y013356D02*
X000540Y013230D01*
X000460Y009983D02*
X000460Y009757D01*
X000800Y009757D01*
X000744Y009615D02*
X000800Y009558D01*
X000800Y009445D01*
X000744Y009388D01*
X000517Y009388D01*
X000460Y009445D01*
X000460Y009558D01*
X000517Y009615D01*
X000460Y009247D02*
X000800Y009247D01*
X000687Y009133D01*
X000800Y009020D01*
X000460Y009020D01*
X000417Y003979D02*
X000360Y003922D01*
X000360Y003808D01*
X000417Y003752D01*
X000644Y003752D01*
X000700Y003808D01*
X000700Y003922D01*
X000644Y003979D01*
X000644Y003610D02*
X000700Y003554D01*
X000700Y003440D01*
X000644Y003383D01*
X000417Y003383D01*
X000360Y003440D01*
X000360Y003554D01*
X000417Y003610D01*
X000530Y003610D01*
X000530Y003497D01*
X000530Y003242D02*
X000473Y003185D01*
X000473Y003015D01*
X000360Y003015D02*
X000700Y003015D01*
X000700Y003185D01*
X000644Y003242D01*
X000530Y003242D01*
D12*
X000395Y012182D02*
X000395Y012272D01*
X000395Y012227D02*
X000665Y012227D01*
X000665Y012182D02*
X000665Y012272D01*
X000620Y012379D02*
X000665Y012424D01*
X000665Y012514D01*
X000620Y012559D01*
X000440Y012559D01*
X000395Y012514D01*
X000395Y012424D01*
X000440Y012379D01*
X000620Y012379D01*
X000775Y012375D02*
X000775Y012420D01*
X000820Y012465D01*
X001045Y012465D01*
X001045Y012420D02*
X001045Y012511D01*
X000910Y012625D02*
X000910Y012760D01*
X000865Y012805D01*
X000820Y012805D01*
X000775Y012760D01*
X000775Y012670D01*
X000820Y012625D01*
X000910Y012625D01*
X001000Y012715D01*
X001045Y012805D01*
X000665Y012853D02*
X000665Y012673D01*
X000665Y012853D02*
X000620Y012853D01*
X000440Y012673D01*
X000395Y012673D01*
X000775Y012375D02*
X000820Y012330D01*
X003819Y013000D02*
X003865Y012955D01*
X003955Y012955D01*
X004000Y013000D01*
X004000Y013045D01*
X003955Y013090D01*
X003865Y013090D01*
X003819Y013045D01*
X003819Y013000D01*
X003865Y013090D02*
X003819Y013135D01*
X003819Y013180D01*
X003865Y013225D01*
X003955Y013225D01*
X004000Y013180D01*
X004000Y013135D01*
X003955Y013090D01*
X004114Y013000D02*
X004114Y013180D01*
X004159Y013225D01*
X004249Y013225D01*
X004294Y013180D01*
X004294Y013000D01*
X004249Y012955D01*
X004159Y012955D01*
X004114Y013000D01*
X004401Y012955D02*
X004491Y012955D01*
X004446Y012955D02*
X004446Y013225D01*
X004491Y013225D02*
X004401Y013225D01*
X004454Y013755D02*
X004409Y013800D01*
X004409Y013890D01*
X004499Y013890D01*
X004589Y013800D02*
X004544Y013755D01*
X004454Y013755D01*
X004589Y013800D02*
X004589Y013980D01*
X004544Y014025D01*
X004454Y014025D01*
X004409Y013980D01*
X004294Y014025D02*
X004294Y013755D01*
X004114Y013755D02*
X004114Y014025D01*
X004000Y014025D02*
X004000Y013755D01*
X003865Y013755D01*
X003819Y013800D01*
X003819Y013980D01*
X003865Y014025D01*
X004000Y014025D01*
X004114Y013755D02*
X004294Y014025D01*
X010260Y007590D02*
X010260Y005690D01*
D13*
X000280Y001140D02*
X000280Y016840D01*
X015980Y016840D01*
X015980Y001140D01*
X000280Y001140D01*
D14*
X009785Y008345D02*
X010335Y008345D01*
X010335Y008620D01*
X010244Y008712D01*
X010060Y008712D01*
X009968Y008620D01*
X009968Y008345D01*
X009968Y008528D02*
X009785Y008712D01*
X009877Y008953D02*
X010060Y008953D01*
X010152Y009044D01*
X010152Y009228D01*
X010060Y009320D01*
X009968Y009320D01*
X009968Y008953D01*
X009877Y008953D02*
X009785Y009044D01*
X009785Y009228D01*
X009785Y009560D02*
X009785Y009744D01*
X009785Y009652D02*
X010335Y009652D01*
X010335Y009560D01*
X010152Y009966D02*
X010335Y010149D01*
X009785Y010149D01*
X009785Y009966D02*
X009785Y010333D01*
X009785Y010573D02*
X009785Y010665D01*
X009877Y010665D01*
X009877Y010573D01*
X009785Y010573D01*
X009877Y010877D02*
X009785Y010969D01*
X009785Y011152D01*
X009877Y011244D01*
X010244Y011244D01*
X009877Y010877D01*
X010244Y010877D01*
X010335Y010969D01*
X010335Y011152D01*
X010244Y011244D01*
X010775Y011051D02*
X011325Y011051D01*
X011050Y010776D01*
X011050Y011143D01*
X011050Y011384D02*
X011050Y011751D01*
X010775Y011659D02*
X011325Y011659D01*
X011050Y011384D01*
X011142Y010535D02*
X010775Y010352D01*
X011142Y010168D01*
X011050Y009927D02*
X010775Y009927D01*
X010775Y009652D01*
X010867Y009560D01*
X010958Y009652D01*
X010958Y009927D01*
X011050Y009927D02*
X011142Y009836D01*
X011142Y009652D01*
X011325Y009320D02*
X010775Y009320D01*
X011325Y008953D01*
X010775Y008953D01*
X010775Y008712D02*
X011142Y008712D01*
X011142Y008345D02*
X010867Y008345D01*
X010775Y008437D01*
X010775Y008712D01*
D15*
X009245Y008591D02*
X009190Y008646D01*
X009080Y008646D01*
X009025Y008591D01*
X009025Y008426D01*
X008915Y008426D02*
X009245Y008426D01*
X009245Y008591D01*
X009190Y008794D02*
X008970Y008794D01*
X008915Y008849D01*
X008915Y008959D01*
X008970Y009014D01*
X009190Y009014D01*
X009245Y008959D01*
X009245Y008849D01*
X009190Y008794D01*
X009025Y008536D02*
X008915Y008646D01*
X008915Y008278D02*
X008915Y008058D01*
X009245Y008058D01*
X009245Y008278D01*
X009080Y008168D02*
X009080Y008058D01*
X008915Y007910D02*
X009245Y007910D01*
X009245Y007689D02*
X008915Y007910D01*
X008915Y007689D02*
X009245Y007689D01*
X009245Y007554D02*
X009245Y007444D01*
X009245Y007499D02*
X008915Y007499D01*
X008915Y007444D02*
X008915Y007554D01*
X008970Y007296D02*
X008915Y007241D01*
X008915Y007131D01*
X008970Y007075D01*
X009190Y007075D01*
X009245Y007131D01*
X009245Y007241D01*
X009190Y007296D01*
X009245Y006940D02*
X009245Y006830D01*
X009245Y006885D02*
X008915Y006885D01*
X008915Y006830D02*
X008915Y006940D01*
X009080Y006572D02*
X009080Y006462D01*
X008915Y006462D02*
X009245Y006462D01*
X009245Y006682D01*
X009245Y006314D02*
X009245Y006093D01*
X008915Y006093D01*
X008970Y005945D02*
X009190Y005945D01*
X009245Y005890D01*
X009245Y005780D01*
X009190Y005725D01*
X008970Y005725D01*
X008915Y005780D01*
X008915Y005890D01*
X008970Y005945D01*
X009080Y006093D02*
X009080Y006203D01*
X008116Y007625D02*
X007896Y007625D01*
X008006Y007625D02*
X008006Y007955D01*
X008116Y007845D01*
X007379Y007900D02*
X007324Y007955D01*
X007214Y007955D01*
X007159Y007900D01*
X007159Y007845D01*
X007379Y007625D01*
X007159Y007625D01*
X007214Y007355D02*
X007379Y007190D01*
X007159Y007190D01*
X007214Y007025D02*
X007214Y007355D01*
X006643Y007680D02*
X006587Y007625D01*
X006477Y007625D01*
X006422Y007680D01*
X006422Y007735D01*
X006477Y007790D01*
X006532Y007790D01*
X006477Y007790D02*
X006422Y007845D01*
X006422Y007900D01*
X006477Y007955D01*
X006587Y007955D01*
X006643Y007900D01*
X006553Y009425D02*
X006553Y009480D01*
X006498Y009480D01*
X006498Y009425D01*
X006553Y009425D01*
X006553Y009590D02*
X006553Y009645D01*
X006498Y009645D01*
X006498Y009590D01*
X006553Y009590D01*
X006553Y010025D02*
X006553Y010080D01*
X006498Y010080D01*
X006498Y010025D01*
X006553Y010025D01*
X006553Y010190D02*
X006553Y010245D01*
X006498Y010245D01*
X006498Y010190D01*
X006553Y010190D01*
X006553Y010625D02*
X006553Y010680D01*
X006498Y010680D01*
X006498Y010625D01*
X006553Y010625D01*
X006553Y010790D02*
X006553Y010845D01*
X006498Y010845D01*
X006498Y010790D01*
X006553Y010790D01*
X006553Y011225D02*
X006553Y011280D01*
X006498Y011280D01*
X006498Y011225D01*
X006553Y011225D01*
X006553Y011390D02*
X006553Y011445D01*
X006498Y011445D01*
X006498Y011390D01*
X006553Y011390D01*
X006511Y011825D02*
X006456Y011880D01*
X006456Y011990D01*
X006566Y011990D01*
X006676Y011880D02*
X006621Y011825D01*
X006511Y011825D01*
X006676Y011880D02*
X006676Y012100D01*
X006621Y012155D01*
X006511Y012155D01*
X006456Y012100D01*
X006812Y012155D02*
X006922Y012155D01*
X006867Y012155D02*
X006867Y011825D01*
X006922Y011825D02*
X006812Y011825D01*
X007070Y011555D02*
X007070Y011225D01*
X007290Y011555D01*
X007290Y011225D01*
X007438Y011225D02*
X007658Y011225D01*
X007658Y011555D01*
X007438Y011555D01*
X007548Y011390D02*
X007658Y011390D01*
X007806Y011390D02*
X007806Y011500D01*
X007862Y011555D01*
X008027Y011555D01*
X008027Y011225D01*
X008027Y011335D02*
X007862Y011335D01*
X007806Y011390D01*
X008175Y011280D02*
X008175Y011500D01*
X008230Y011555D01*
X008340Y011555D01*
X008395Y011500D01*
X008395Y011280D01*
X008340Y011225D01*
X008230Y011225D01*
X008175Y011280D01*
X008230Y010955D02*
X008340Y010955D01*
X008395Y010900D01*
X008230Y010955D02*
X008175Y010900D01*
X008175Y010845D01*
X008395Y010625D01*
X008175Y010625D01*
X008027Y010790D02*
X007806Y010790D01*
X007658Y010845D02*
X007548Y010955D01*
X007548Y010625D01*
X007658Y010625D02*
X007438Y010625D01*
X007493Y010355D02*
X007438Y010300D01*
X007438Y010245D01*
X007493Y010190D01*
X007438Y010135D01*
X007438Y010080D01*
X007493Y010025D01*
X007603Y010025D01*
X007658Y010080D01*
X007548Y010190D02*
X007493Y010190D01*
X007493Y010355D02*
X007603Y010355D01*
X007658Y010300D01*
X007806Y010190D02*
X008027Y010190D01*
X008175Y010245D02*
X008175Y010300D01*
X008230Y010355D01*
X008340Y010355D01*
X008395Y010300D01*
X008175Y010245D02*
X008395Y010025D01*
X008175Y010025D01*
X008230Y009755D02*
X008340Y009755D01*
X008395Y009700D01*
X008230Y009755D02*
X008175Y009700D01*
X008175Y009645D01*
X008395Y009425D01*
X008175Y009425D01*
X008027Y009590D02*
X007806Y009590D01*
X007658Y009590D02*
X007438Y009590D01*
X007493Y009425D02*
X007493Y009755D01*
X007658Y009590D01*
X008915Y009586D02*
X008915Y009696D01*
X008970Y009751D01*
X009190Y009751D01*
X009245Y009696D01*
X009245Y009586D01*
X009190Y009531D01*
X008970Y009531D01*
X008915Y009586D01*
X008970Y009383D02*
X008915Y009328D01*
X008915Y009163D01*
X009245Y009163D01*
X009245Y009328D01*
X009190Y009383D01*
X009135Y009383D01*
X009080Y009328D01*
X009080Y009163D01*
X009080Y009328D02*
X009025Y009383D01*
X008970Y009383D01*
X009245Y009899D02*
X009245Y010119D01*
X009245Y010009D02*
X008915Y010009D01*
X008915Y010268D02*
X008915Y010378D01*
X008915Y010323D02*
X009245Y010323D01*
X009245Y010268D02*
X009245Y010378D01*
X009190Y010513D02*
X008970Y010513D01*
X008915Y010568D01*
X008915Y010678D01*
X008970Y010733D01*
X008915Y010881D02*
X009245Y010881D01*
X009190Y010733D02*
X009245Y010678D01*
X009245Y010568D01*
X009190Y010513D01*
X009080Y010881D02*
X009080Y011102D01*
X009080Y011250D02*
X009080Y011360D01*
X008915Y011250D02*
X008915Y011470D01*
X008915Y011618D02*
X008915Y011673D01*
X008970Y011673D01*
X008970Y011618D01*
X008915Y011618D01*
X008915Y011802D02*
X008915Y011912D01*
X008915Y011857D02*
X009245Y011857D01*
X009245Y011802D02*
X009245Y011912D01*
X009245Y012048D02*
X009245Y012268D01*
X009245Y012158D02*
X008915Y012158D01*
X009245Y011470D02*
X009245Y011250D01*
X008915Y011250D01*
X008915Y011102D02*
X009245Y011102D01*
X008395Y011880D02*
X008340Y011825D01*
X008230Y011825D01*
X008175Y011880D01*
X008027Y011880D02*
X007972Y011825D01*
X007862Y011825D01*
X007806Y011880D01*
X007806Y012100D01*
X007862Y012155D01*
X007972Y012155D01*
X008027Y012100D01*
X008027Y011880D01*
X008175Y012100D02*
X008230Y012155D01*
X008340Y012155D01*
X008395Y012100D01*
X008395Y011880D01*
X008340Y012425D02*
X008230Y012425D01*
X008175Y012480D01*
X008175Y012590D01*
X008285Y012590D01*
X008395Y012480D02*
X008340Y012425D01*
X008395Y012480D02*
X008395Y012700D01*
X008340Y012755D01*
X008230Y012755D01*
X008175Y012700D01*
X008027Y012645D02*
X007917Y012755D01*
X007806Y012645D01*
X007806Y012425D01*
X007658Y012425D02*
X007548Y012425D01*
X007603Y012425D02*
X007603Y012755D01*
X007658Y012755D02*
X007548Y012755D01*
X007413Y012755D02*
X007193Y012425D01*
X007193Y012755D01*
X007413Y012755D02*
X007413Y012425D01*
X007438Y012155D02*
X007438Y011825D01*
X007658Y012155D01*
X007658Y011825D01*
X007290Y011825D02*
X007290Y012155D01*
X007070Y012155D01*
X007180Y011990D02*
X007290Y011990D01*
X007806Y012590D02*
X008027Y012590D01*
X008027Y012645D02*
X008027Y012425D01*
X006001Y011445D02*
X005891Y011555D01*
X005891Y011225D01*
X006001Y011225D02*
X005781Y011225D01*
X005781Y010955D02*
X006001Y010955D01*
X006001Y010790D01*
X005891Y010845D01*
X005836Y010845D01*
X005781Y010790D01*
X005781Y010680D01*
X005836Y010625D01*
X005946Y010625D01*
X006001Y010680D01*
X005891Y010355D02*
X005891Y010025D01*
X006001Y010025D02*
X005781Y010025D01*
X005633Y010080D02*
X005633Y010300D01*
X005578Y010355D01*
X005468Y010355D01*
X005412Y010300D01*
X005633Y010080D01*
X005578Y010025D01*
X005468Y010025D01*
X005412Y010080D01*
X005412Y010300D01*
X005468Y010625D02*
X005578Y010625D01*
X005633Y010680D01*
X005412Y010900D01*
X005412Y010680D01*
X005468Y010625D01*
X005633Y010680D02*
X005633Y010900D01*
X005578Y010955D01*
X005468Y010955D01*
X005412Y010900D01*
X005891Y010355D02*
X006001Y010245D01*
X006001Y009755D02*
X005891Y009755D01*
X005946Y009755D02*
X005946Y009425D01*
X006001Y009425D02*
X005891Y009425D01*
X005755Y009425D02*
X005535Y009755D01*
X005387Y009700D02*
X005387Y009480D01*
X005332Y009425D01*
X005222Y009425D01*
X005167Y009480D01*
X005167Y009700D01*
X005222Y009755D01*
X005332Y009755D01*
X005387Y009700D01*
D16*
X009736Y006208D03*
X010921Y006208D03*
X011401Y006803D03*
D17*
X010613Y006604D03*
X010610Y006604D03*
X010606Y006608D03*
X010602Y006608D03*
X010598Y006612D03*
X010594Y006612D03*
X010586Y006616D03*
X010582Y006616D03*
X010574Y006620D03*
X010562Y006623D03*
X010539Y006387D03*
X010413Y006387D03*
X010413Y006013D03*
X010539Y006013D03*
X010625Y005816D03*
X010617Y005812D03*
X010610Y005809D03*
X010606Y005809D03*
X010602Y005805D03*
X010598Y005805D03*
X010594Y005801D03*
X010590Y005801D03*
X010582Y005797D03*
X010074Y005797D03*
X010066Y005801D03*
X010062Y005801D03*
X010058Y005805D03*
X010054Y005805D03*
X010047Y005809D03*
X010039Y005812D03*
X009739Y006206D03*
X010035Y006600D03*
X010039Y006600D03*
X010043Y006604D03*
X010047Y006604D03*
X010050Y006608D03*
X010054Y006608D03*
X010062Y006612D03*
X010070Y006616D03*
X010082Y006620D03*
X010421Y007415D03*
X010424Y007419D03*
X010432Y007423D03*
X010649Y007450D03*
X010653Y007450D03*
X010661Y007446D03*
X010665Y007446D03*
D18*
X010354Y007340D03*
X010751Y006497D03*
X010755Y005923D03*
X010751Y005919D03*
X009905Y005919D03*
X009743Y006206D03*
X009905Y006494D03*
D19*
X009877Y006448D03*
X009747Y006208D03*
X009877Y005964D03*
X010779Y005964D03*
D20*
X010905Y006208D03*
X010767Y007334D03*
X009751Y006208D03*
D21*
X009755Y006208D03*
D22*
X009759Y006206D03*
D23*
X009759Y006864D03*
X009763Y006864D03*
X009767Y006864D03*
X009771Y006864D03*
X009775Y006864D03*
X009779Y006864D03*
X009783Y006864D03*
X009787Y006864D03*
X009791Y006864D03*
X009795Y006864D03*
X009799Y006864D03*
X009802Y006864D03*
X009806Y006864D03*
X009810Y006864D03*
X009814Y006864D03*
X009818Y006864D03*
X009822Y006864D03*
X009826Y006864D03*
X009830Y006864D03*
X009834Y006864D03*
X009838Y006864D03*
X009842Y006864D03*
X009846Y006864D03*
X009850Y006864D03*
X009854Y006864D03*
X009858Y006864D03*
X009861Y006864D03*
X009865Y006864D03*
X009869Y006864D03*
X009873Y006864D03*
X009877Y006864D03*
X009881Y006864D03*
X009885Y006864D03*
X009889Y006864D03*
X009893Y006864D03*
X009897Y006864D03*
X009901Y006864D03*
X009905Y006864D03*
X009909Y006864D03*
X009913Y006864D03*
X009917Y006864D03*
X009921Y006864D03*
X009924Y006864D03*
X009928Y006864D03*
X009932Y006864D03*
X009936Y006864D03*
X009940Y006864D03*
X009944Y006864D03*
X009948Y006864D03*
X009952Y006864D03*
X009956Y006864D03*
X009960Y006864D03*
X009964Y006864D03*
X009968Y006864D03*
X009972Y006864D03*
X009976Y006864D03*
X009980Y006864D03*
X009984Y006864D03*
X009987Y006864D03*
X009991Y006864D03*
X009995Y006864D03*
X009999Y006864D03*
X010003Y006864D03*
X010007Y006864D03*
X010011Y006864D03*
X010015Y006864D03*
X010019Y006864D03*
X010023Y006864D03*
X010027Y006864D03*
X010031Y006864D03*
X010035Y006864D03*
X010039Y006864D03*
X010043Y006864D03*
X010047Y006864D03*
X010050Y006864D03*
X010054Y006864D03*
X010058Y006864D03*
X010062Y006864D03*
X010066Y006864D03*
X010070Y006864D03*
X010074Y006864D03*
X010078Y006864D03*
X010082Y006864D03*
X010086Y006864D03*
X010090Y006864D03*
X010094Y006864D03*
X010098Y006864D03*
X010102Y006864D03*
X010106Y006864D03*
X010110Y006864D03*
X010113Y006864D03*
X010117Y006864D03*
X010121Y006864D03*
X010125Y006864D03*
X010129Y006864D03*
X010133Y006864D03*
X010137Y006864D03*
X010141Y006864D03*
X010145Y006864D03*
X010149Y006864D03*
X010153Y006864D03*
X010157Y006864D03*
X010161Y006864D03*
X010165Y006864D03*
X010169Y006864D03*
X010173Y006864D03*
X010176Y006864D03*
X010180Y006864D03*
X010184Y006864D03*
X010188Y006864D03*
X010192Y006864D03*
X010196Y006864D03*
X010200Y006864D03*
X010204Y006864D03*
X010208Y006864D03*
X010342Y006864D03*
X010346Y006864D03*
X010350Y006864D03*
X010354Y006864D03*
X010358Y006864D03*
X010361Y006864D03*
X010365Y006864D03*
X010369Y006864D03*
X010373Y006864D03*
X010377Y006864D03*
X010381Y006864D03*
X010385Y006864D03*
X010389Y006864D03*
X010393Y006864D03*
X010397Y006864D03*
X010401Y006864D03*
X010405Y006864D03*
X010409Y006864D03*
X010413Y006864D03*
X010417Y006864D03*
X010421Y006864D03*
X010424Y006864D03*
X010428Y006864D03*
X010432Y006864D03*
X010436Y006864D03*
X010440Y006864D03*
X010444Y006864D03*
X010448Y006864D03*
X010452Y006864D03*
X010456Y006864D03*
X010460Y006864D03*
X010464Y006864D03*
X010468Y006864D03*
X010472Y006864D03*
X010476Y006864D03*
X010480Y006864D03*
X010484Y006864D03*
X010487Y006864D03*
X010491Y006864D03*
X010495Y006864D03*
X010499Y006864D03*
X010503Y006864D03*
X010507Y006864D03*
X010511Y006864D03*
X010515Y006864D03*
X010519Y006864D03*
X010523Y006864D03*
X010527Y006864D03*
X010531Y006864D03*
X010535Y006864D03*
X010539Y006864D03*
X010543Y006864D03*
X010547Y006864D03*
X010550Y006864D03*
X010554Y006864D03*
X010558Y006864D03*
X010562Y006864D03*
X010566Y006864D03*
X010570Y006864D03*
X010574Y006864D03*
X010578Y006864D03*
X010582Y006864D03*
X010586Y006864D03*
X010590Y006864D03*
X010594Y006864D03*
X010598Y006864D03*
X010602Y006864D03*
X010606Y006864D03*
X010610Y006864D03*
X010613Y006864D03*
X010617Y006864D03*
X010621Y006864D03*
X010625Y006864D03*
X010629Y006864D03*
X010633Y006864D03*
X010637Y006864D03*
X010641Y006864D03*
X010645Y006864D03*
X010649Y006864D03*
X010653Y006864D03*
X010657Y006864D03*
X010661Y006864D03*
X010665Y006864D03*
X010669Y006864D03*
X010673Y006864D03*
X010676Y006864D03*
X010680Y006864D03*
X010684Y006864D03*
X010688Y006864D03*
X010692Y006864D03*
X010696Y006864D03*
X010700Y006864D03*
X010704Y006864D03*
X010708Y006864D03*
X010712Y006864D03*
X010716Y006864D03*
X010720Y006864D03*
X010724Y006864D03*
X010728Y006864D03*
X010732Y006864D03*
X010736Y006864D03*
X010739Y006864D03*
X010743Y006864D03*
X010747Y006864D03*
X010751Y006864D03*
X010755Y006864D03*
X010759Y006864D03*
X010763Y006864D03*
X010767Y006864D03*
D24*
X010708Y006543D03*
X010712Y006539D03*
X010716Y006535D03*
X010515Y006389D03*
X010436Y006389D03*
X010436Y006011D03*
X010515Y006011D03*
X010712Y005873D03*
X011263Y006803D03*
X011267Y006803D03*
X011342Y006803D03*
X011346Y006803D03*
X010373Y007373D03*
X010082Y007358D03*
X010054Y007381D03*
X010031Y007401D03*
X010027Y007405D03*
X010023Y007409D03*
X010007Y007421D03*
X010003Y007425D03*
X009999Y007429D03*
X009995Y007433D03*
X009980Y007444D03*
X009976Y007448D03*
X009972Y007452D03*
X009968Y007456D03*
X009956Y007464D03*
X009952Y007468D03*
X009948Y007472D03*
X009944Y007476D03*
X009940Y007480D03*
X009928Y007488D03*
X009924Y007492D03*
X009921Y007496D03*
X009917Y007499D03*
X009913Y007503D03*
X009909Y007507D03*
X009905Y007507D03*
X009901Y007511D03*
X009897Y007515D03*
X009893Y007519D03*
X009889Y007523D03*
X009885Y007527D03*
X009881Y007531D03*
X009877Y007531D03*
X009873Y007535D03*
X009869Y007539D03*
X009865Y007543D03*
X009861Y007547D03*
X009858Y007551D03*
X009850Y007555D03*
X009846Y007559D03*
X009842Y007562D03*
X009838Y007566D03*
X009834Y007570D03*
X009818Y007582D03*
X009814Y007586D03*
X009810Y007590D03*
X009806Y007594D03*
X009791Y007606D03*
X009787Y007610D03*
X009783Y007614D03*
X009763Y007629D03*
X009759Y007633D03*
X009948Y006543D03*
X009944Y006539D03*
X009940Y006535D03*
X009948Y005873D03*
D25*
X009763Y006208D03*
D26*
X009767Y006206D03*
D27*
X009936Y005883D03*
X009940Y005879D03*
X009944Y005875D03*
X010440Y006013D03*
X010444Y006013D03*
X010507Y006013D03*
X010511Y006013D03*
X010511Y006387D03*
X010444Y006387D03*
X010440Y006387D03*
X010720Y005883D03*
X010716Y005879D03*
X011338Y006801D03*
X010724Y007411D03*
X010369Y007368D03*
X009854Y007553D03*
X009830Y007572D03*
X009826Y007576D03*
X009822Y007580D03*
X009802Y007596D03*
X009799Y007600D03*
X009795Y007604D03*
X009779Y007616D03*
X009775Y007620D03*
X009771Y007623D03*
X009767Y007627D03*
D28*
X009771Y006208D03*
X010885Y006208D03*
D29*
X009775Y006208D03*
D30*
X009779Y006208D03*
D31*
X009783Y006206D03*
D32*
X009787Y006206D03*
X010869Y006206D03*
D33*
X010865Y006206D03*
X009791Y006206D03*
D34*
X009795Y006206D03*
X010861Y006206D03*
D35*
X010858Y006206D03*
X010224Y007060D03*
X010220Y007060D03*
X009799Y006206D03*
D36*
X009802Y006208D03*
D37*
X009806Y006206D03*
X010850Y006206D03*
X010861Y007072D03*
D38*
X010846Y006206D03*
X009810Y006206D03*
D39*
X009814Y006208D03*
X010850Y007086D03*
D40*
X010842Y007092D03*
X010838Y006206D03*
X009818Y006206D03*
D41*
X009822Y006208D03*
X010314Y007098D03*
D42*
X010322Y007104D03*
X009826Y006206D03*
X010830Y006206D03*
D43*
X010826Y006206D03*
X010822Y007108D03*
X010330Y007108D03*
X009830Y006206D03*
D44*
X009834Y006206D03*
X010822Y006206D03*
X010810Y007116D03*
D45*
X010802Y007120D03*
X010818Y006206D03*
X009838Y006206D03*
D46*
X009842Y006206D03*
X010814Y006206D03*
X010795Y007123D03*
D47*
X010787Y007127D03*
X010810Y006206D03*
X009846Y006206D03*
D48*
X009850Y006206D03*
X010806Y006206D03*
D49*
X010802Y006206D03*
X009854Y006206D03*
D50*
X009858Y006206D03*
X010799Y006206D03*
D51*
X010795Y006206D03*
X009861Y006206D03*
D52*
X009865Y005999D03*
X009865Y006413D03*
X010791Y006413D03*
X010791Y005999D03*
D53*
X010787Y005984D03*
X010787Y006429D03*
X009869Y006429D03*
X009869Y005984D03*
D54*
X009873Y005974D03*
D55*
X009873Y006440D03*
X010783Y006440D03*
X010783Y005972D03*
X010763Y007350D03*
D56*
X010759Y007362D03*
X009881Y005956D03*
D57*
X009881Y006458D03*
X010346Y007316D03*
X010775Y006458D03*
X010775Y005954D03*
D58*
X010771Y005948D03*
X009885Y005948D03*
D59*
X009885Y006466D03*
X010771Y006466D03*
D60*
X010767Y006472D03*
X010767Y005940D03*
X009889Y005940D03*
X009889Y006472D03*
X010755Y007370D03*
D61*
X010350Y007328D03*
X009893Y006478D03*
X009893Y005934D03*
X010763Y005934D03*
D62*
X010763Y006480D03*
X010751Y007377D03*
X009897Y005929D03*
D63*
X009901Y005923D03*
X009897Y006486D03*
X010759Y006486D03*
X010759Y005927D03*
D64*
X010755Y006492D03*
X010747Y007385D03*
X009901Y006492D03*
D65*
X009909Y006499D03*
X009909Y005913D03*
X009913Y005909D03*
X010747Y005913D03*
X010913Y006208D03*
X010747Y006499D03*
X010743Y007389D03*
D66*
X010739Y007395D03*
X010358Y007348D03*
X010743Y006505D03*
X010743Y005907D03*
X010739Y005903D03*
X009917Y005903D03*
X009913Y006505D03*
X009917Y006509D03*
D67*
X009921Y006515D03*
X010468Y006389D03*
X010472Y006389D03*
X010476Y006389D03*
X010480Y006389D03*
X010484Y006389D03*
X010736Y006515D03*
X010739Y006511D03*
X010484Y006011D03*
X010480Y006011D03*
X010476Y006011D03*
X010472Y006011D03*
X010468Y006011D03*
X009921Y005897D03*
X011291Y006803D03*
X011295Y006803D03*
X011299Y006803D03*
X011302Y006803D03*
X011306Y006803D03*
X011310Y006803D03*
X011314Y006803D03*
X011318Y006803D03*
D68*
X011322Y006801D03*
X011287Y006801D03*
X010732Y006517D03*
X010495Y006387D03*
X010491Y006387D03*
X010487Y006387D03*
X010464Y006387D03*
X010460Y006387D03*
X010456Y006387D03*
X010456Y006013D03*
X010460Y006013D03*
X010464Y006013D03*
X010487Y006013D03*
X010491Y006013D03*
X010495Y006013D03*
X010732Y005895D03*
X010736Y005899D03*
X009928Y005891D03*
X009924Y005895D03*
X009924Y006517D03*
X010361Y007356D03*
X010732Y007403D03*
X010736Y007399D03*
D69*
X010728Y007409D03*
X010365Y007362D03*
X010720Y006531D03*
X010724Y006527D03*
X010728Y006523D03*
X010507Y006389D03*
X010503Y006389D03*
X010499Y006389D03*
X010452Y006389D03*
X010448Y006389D03*
X010448Y006011D03*
X010452Y006011D03*
X010499Y006011D03*
X010503Y006011D03*
X010724Y005885D03*
X010728Y005889D03*
X011271Y006803D03*
X011275Y006803D03*
X011279Y006803D03*
X011283Y006803D03*
X011326Y006803D03*
X011330Y006803D03*
X011334Y006803D03*
X009936Y006531D03*
X009932Y006527D03*
X009928Y006523D03*
X009932Y005885D03*
D70*
X009952Y005868D03*
X009956Y005864D03*
X010432Y006013D03*
X010519Y006013D03*
X010700Y005864D03*
X010704Y005868D03*
X010708Y005871D03*
X010519Y006387D03*
X010432Y006387D03*
X010696Y006553D03*
X010700Y006549D03*
X010704Y006545D03*
X010208Y007249D03*
X010204Y007253D03*
X010200Y007257D03*
X010196Y007261D03*
X010184Y007269D03*
X010180Y007273D03*
X010176Y007277D03*
X010173Y007281D03*
X010169Y007285D03*
X010157Y007293D03*
X010153Y007297D03*
X010149Y007301D03*
X010145Y007305D03*
X010141Y007309D03*
X010137Y007312D03*
X010133Y007312D03*
X010129Y007316D03*
X010125Y007320D03*
X010121Y007324D03*
X010117Y007328D03*
X010113Y007332D03*
X010110Y007336D03*
X010106Y007336D03*
X010102Y007340D03*
X010098Y007344D03*
X010094Y007348D03*
X010090Y007352D03*
X010086Y007356D03*
X010078Y007360D03*
X010074Y007364D03*
X010070Y007368D03*
X010066Y007371D03*
X010062Y007375D03*
X010058Y007379D03*
X010050Y007383D03*
X010047Y007387D03*
X010043Y007391D03*
X010039Y007395D03*
X010035Y007399D03*
X010019Y007411D03*
X010015Y007415D03*
X010011Y007419D03*
X009991Y007434D03*
X009987Y007438D03*
X009984Y007442D03*
X009964Y007458D03*
X009960Y007462D03*
X009936Y007482D03*
X009932Y007486D03*
X010716Y007419D03*
X010720Y007415D03*
X009956Y006549D03*
X009952Y006545D03*
D71*
X009960Y006551D03*
X009964Y006555D03*
X009968Y006559D03*
X010428Y006389D03*
X010523Y006389D03*
X010692Y006555D03*
X010688Y006559D03*
X010523Y006011D03*
X010428Y006011D03*
X010692Y005858D03*
X010696Y005862D03*
X011255Y006803D03*
X011259Y006803D03*
X011350Y006803D03*
X011354Y006803D03*
X010712Y007421D03*
X010708Y007425D03*
X010381Y007381D03*
X010377Y007377D03*
X010192Y007263D03*
X010188Y007267D03*
X010165Y007287D03*
X010161Y007291D03*
X009960Y005862D03*
X009964Y005858D03*
X009968Y005854D03*
X009972Y005854D03*
X009976Y005850D03*
D72*
X009980Y005848D03*
X009984Y005844D03*
X010424Y006013D03*
X010527Y006013D03*
X010676Y005848D03*
X010680Y005848D03*
X010684Y005852D03*
X010688Y005856D03*
X010673Y005844D03*
X010527Y006387D03*
X010424Y006387D03*
X010669Y006572D03*
X010673Y006568D03*
X010680Y006564D03*
X010684Y006560D03*
X010385Y007387D03*
X010389Y007391D03*
X010700Y007431D03*
X010704Y007427D03*
X009984Y006568D03*
X009976Y006564D03*
X009972Y006560D03*
D73*
X009980Y006566D03*
X009987Y006570D03*
X009991Y006574D03*
X010421Y006389D03*
X010531Y006389D03*
X010653Y006582D03*
X010661Y006578D03*
X010665Y006574D03*
X010676Y006566D03*
X010531Y006011D03*
X010421Y006011D03*
X010657Y005834D03*
X010665Y005838D03*
X010669Y005842D03*
X009999Y005834D03*
X009991Y005838D03*
X009987Y005842D03*
X010393Y007393D03*
X010397Y007397D03*
X010401Y007401D03*
X010696Y007433D03*
X011247Y006803D03*
X011251Y006803D03*
X011358Y006803D03*
D74*
X011361Y006801D03*
X010692Y007434D03*
X010688Y007434D03*
X010684Y007438D03*
X010409Y007407D03*
X010405Y007403D03*
X010641Y006588D03*
X010645Y006588D03*
X010649Y006584D03*
X010657Y006580D03*
X010535Y006387D03*
X010535Y006013D03*
X010653Y005832D03*
X010649Y005828D03*
X010641Y005824D03*
X010633Y005820D03*
X010661Y005836D03*
X010023Y005820D03*
X010015Y005824D03*
X010011Y005828D03*
X010007Y005828D03*
X010003Y005832D03*
X009995Y005836D03*
X009995Y006576D03*
X009999Y006580D03*
X010003Y006580D03*
X010007Y006584D03*
X010015Y006588D03*
D75*
X010011Y006586D03*
X010019Y006590D03*
X010023Y006594D03*
X010027Y006594D03*
X010031Y006598D03*
X010417Y006389D03*
X010621Y006598D03*
X010625Y006598D03*
X010629Y006594D03*
X010633Y006594D03*
X010637Y006590D03*
X010617Y006602D03*
X010417Y006011D03*
X010613Y005810D03*
X010621Y005814D03*
X010629Y005818D03*
X010637Y005822D03*
X010645Y005826D03*
X010050Y005807D03*
X010043Y005810D03*
X010035Y005814D03*
X010031Y005814D03*
X010027Y005818D03*
X010019Y005822D03*
X010413Y007409D03*
X010417Y007413D03*
X010669Y007444D03*
X010673Y007444D03*
X010676Y007440D03*
X010680Y007440D03*
X011243Y006803D03*
X011365Y006803D03*
D76*
X011369Y006803D03*
X011239Y006803D03*
X010917Y006208D03*
X010543Y006389D03*
X010590Y006614D03*
X010578Y006618D03*
X010570Y006621D03*
X010566Y006621D03*
X010558Y006625D03*
X010554Y006625D03*
X010547Y006629D03*
X010543Y006629D03*
X010535Y006633D03*
X010531Y006633D03*
X010515Y006637D03*
X010499Y006641D03*
X010157Y006641D03*
X010141Y006637D03*
X010125Y006633D03*
X010113Y006629D03*
X010110Y006629D03*
X010102Y006625D03*
X010098Y006625D03*
X010090Y006621D03*
X010086Y006621D03*
X010078Y006618D03*
X010074Y006618D03*
X010066Y006614D03*
X010058Y006610D03*
X010543Y006011D03*
X010586Y005799D03*
X010578Y005795D03*
X010574Y005795D03*
X010570Y005791D03*
X010566Y005791D03*
X010562Y005791D03*
X010558Y005787D03*
X010554Y005787D03*
X010550Y005787D03*
X010543Y005783D03*
X010539Y005783D03*
X010527Y005779D03*
X010511Y005775D03*
X010161Y005771D03*
X010145Y005775D03*
X010141Y005775D03*
X010129Y005779D03*
X010125Y005779D03*
X010117Y005783D03*
X010113Y005783D03*
X010110Y005783D03*
X010106Y005787D03*
X010102Y005787D03*
X010098Y005787D03*
X010094Y005791D03*
X010090Y005791D03*
X010086Y005791D03*
X010082Y005795D03*
X010078Y005795D03*
X010070Y005799D03*
X010428Y007421D03*
X010436Y007425D03*
X010440Y007429D03*
X010444Y007429D03*
X010448Y007433D03*
X010452Y007433D03*
X010460Y007436D03*
X010613Y007456D03*
X010617Y007456D03*
X010621Y007456D03*
X010633Y007452D03*
X010637Y007452D03*
X010641Y007452D03*
X010645Y007452D03*
X010657Y007448D03*
D77*
X010629Y007454D03*
X010625Y007454D03*
X010610Y007458D03*
X010606Y007458D03*
X010602Y007458D03*
X010598Y007458D03*
X010594Y007458D03*
X010590Y007458D03*
X010586Y007458D03*
X010582Y007458D03*
X010578Y007458D03*
X010574Y007458D03*
X010570Y007458D03*
X010566Y007458D03*
X010562Y007458D03*
X010558Y007458D03*
X010554Y007458D03*
X010535Y007454D03*
X010531Y007454D03*
X010527Y007454D03*
X010523Y007454D03*
X010519Y007454D03*
X010507Y007450D03*
X010503Y007450D03*
X010499Y007450D03*
X010491Y007446D03*
X010487Y007446D03*
X010484Y007446D03*
X010480Y007442D03*
X010476Y007442D03*
X010472Y007442D03*
X010468Y007438D03*
X010464Y007438D03*
X010456Y007434D03*
X010417Y006655D03*
X010413Y006655D03*
X010409Y006655D03*
X010405Y006655D03*
X010401Y006655D03*
X010397Y006655D03*
X010393Y006655D03*
X010389Y006655D03*
X010354Y006659D03*
X010350Y006659D03*
X010346Y006659D03*
X010342Y006659D03*
X010338Y006659D03*
X010334Y006659D03*
X010330Y006659D03*
X010326Y006659D03*
X010322Y006659D03*
X010318Y006659D03*
X010314Y006659D03*
X010310Y006659D03*
X010306Y006659D03*
X010302Y006659D03*
X010224Y006651D03*
X010220Y006651D03*
X010216Y006651D03*
X010212Y006651D03*
X010208Y006651D03*
X010204Y006651D03*
X010196Y006647D03*
X010192Y006647D03*
X010188Y006647D03*
X010184Y006647D03*
X010180Y006647D03*
X010173Y006643D03*
X010169Y006643D03*
X010165Y006643D03*
X010161Y006643D03*
X010153Y006639D03*
X010149Y006639D03*
X010145Y006639D03*
X010137Y006635D03*
X010133Y006635D03*
X010129Y006635D03*
X010121Y006631D03*
X010117Y006631D03*
X010106Y006627D03*
X010094Y006623D03*
X010432Y006651D03*
X010436Y006651D03*
X010440Y006651D03*
X010444Y006651D03*
X010448Y006651D03*
X010452Y006651D03*
X010460Y006647D03*
X010464Y006647D03*
X010468Y006647D03*
X010472Y006647D03*
X010476Y006647D03*
X010480Y006643D03*
X010484Y006643D03*
X010487Y006643D03*
X010491Y006643D03*
X010495Y006643D03*
X010503Y006639D03*
X010507Y006639D03*
X010511Y006639D03*
X010519Y006635D03*
X010523Y006635D03*
X010527Y006635D03*
X010539Y006631D03*
X010550Y006627D03*
X010409Y006387D03*
X010409Y006013D03*
X010452Y005765D03*
X010456Y005765D03*
X010460Y005765D03*
X010464Y005765D03*
X010468Y005765D03*
X010472Y005765D03*
X010476Y005769D03*
X010480Y005769D03*
X010484Y005769D03*
X010487Y005769D03*
X010491Y005769D03*
X010495Y005773D03*
X010499Y005773D03*
X010503Y005773D03*
X010507Y005773D03*
X010515Y005777D03*
X010519Y005777D03*
X010523Y005777D03*
X010531Y005781D03*
X010535Y005781D03*
X010547Y005785D03*
X010444Y005761D03*
X010440Y005761D03*
X010436Y005761D03*
X010432Y005761D03*
X010428Y005761D03*
X010424Y005761D03*
X010409Y005757D03*
X010405Y005757D03*
X010401Y005757D03*
X010397Y005757D03*
X010393Y005757D03*
X010389Y005757D03*
X010385Y005757D03*
X010381Y005757D03*
X010377Y005757D03*
X010373Y005757D03*
X010283Y005757D03*
X010232Y005761D03*
X010228Y005761D03*
X010224Y005761D03*
X010220Y005761D03*
X010216Y005761D03*
X010212Y005761D03*
X010204Y005765D03*
X010200Y005765D03*
X010196Y005765D03*
X010192Y005765D03*
X010188Y005765D03*
X010184Y005765D03*
X010180Y005769D03*
X010176Y005769D03*
X010173Y005769D03*
X010169Y005769D03*
X010165Y005769D03*
X010157Y005773D03*
X010153Y005773D03*
X010149Y005773D03*
X010137Y005777D03*
X010133Y005777D03*
X010121Y005781D03*
X011236Y006801D03*
D78*
X011232Y006803D03*
X011373Y006803D03*
X010547Y006389D03*
X010405Y006389D03*
X010421Y006653D03*
X010424Y006653D03*
X010428Y006653D03*
X010456Y006649D03*
X010385Y006657D03*
X010381Y006657D03*
X010377Y006657D03*
X010373Y006657D03*
X010369Y006657D03*
X010365Y006657D03*
X010361Y006657D03*
X010358Y006657D03*
X010299Y006657D03*
X010295Y006657D03*
X010291Y006657D03*
X010287Y006657D03*
X010283Y006657D03*
X010232Y006653D03*
X010228Y006653D03*
X010200Y006649D03*
X010176Y006645D03*
X010405Y006011D03*
X010547Y006011D03*
X010448Y005763D03*
X010421Y005759D03*
X010417Y005759D03*
X010413Y005759D03*
X010369Y005755D03*
X010365Y005755D03*
X010361Y005755D03*
X010358Y005755D03*
X010354Y005755D03*
X010350Y005755D03*
X010346Y005755D03*
X010342Y005755D03*
X010338Y005755D03*
X010334Y005755D03*
X010330Y005755D03*
X010326Y005755D03*
X010322Y005755D03*
X010318Y005755D03*
X010314Y005755D03*
X010310Y005755D03*
X010306Y005755D03*
X010302Y005755D03*
X010299Y005755D03*
X010295Y005755D03*
X010291Y005755D03*
X010287Y005755D03*
X010208Y005763D03*
X010495Y007448D03*
X010511Y007452D03*
X010515Y007452D03*
X010539Y007456D03*
X010543Y007456D03*
X010547Y007456D03*
X010550Y007456D03*
D79*
X010212Y007064D03*
X010854Y006206D03*
D80*
X010869Y007062D03*
X010216Y007062D03*
D81*
X010228Y007059D03*
D82*
X010232Y007057D03*
X010873Y007057D03*
D83*
X010283Y007074D03*
D84*
X010287Y007078D03*
X010858Y007078D03*
D85*
X010854Y007082D03*
X010291Y007082D03*
D86*
X010295Y007084D03*
X010842Y006206D03*
D87*
X010299Y007088D03*
D88*
X010302Y007090D03*
X010846Y007090D03*
D89*
X010306Y007094D03*
D90*
X010310Y007096D03*
X010838Y007096D03*
X010834Y006206D03*
D91*
X010830Y007102D03*
X010318Y007102D03*
D92*
X010326Y007106D03*
X010826Y007106D03*
D93*
X010818Y007110D03*
X010334Y007110D03*
D94*
X010338Y007112D03*
X010814Y007112D03*
D95*
X010342Y007299D03*
D96*
X010901Y006809D03*
X010905Y006809D03*
X010909Y006809D03*
X010913Y006809D03*
X010917Y006809D03*
X010921Y006809D03*
X010924Y006809D03*
X010928Y006809D03*
X010932Y006809D03*
X010936Y006809D03*
X010940Y006809D03*
X010944Y006809D03*
X010948Y006809D03*
X010952Y006809D03*
X010956Y006809D03*
X010960Y006809D03*
X010964Y006809D03*
X010968Y006809D03*
X010972Y006809D03*
X010976Y006809D03*
X010980Y006809D03*
X010984Y006809D03*
X010987Y006809D03*
X010991Y006809D03*
X010995Y006809D03*
X010999Y006809D03*
X011003Y006809D03*
X011007Y006809D03*
X011011Y006809D03*
X011015Y006809D03*
X011019Y006809D03*
X011023Y006809D03*
X011027Y006809D03*
X011031Y006809D03*
X011035Y006809D03*
X011039Y006809D03*
X011043Y006809D03*
X011047Y006809D03*
X011050Y006809D03*
X011054Y006809D03*
X011058Y006809D03*
X011062Y006809D03*
X011066Y006809D03*
X011070Y006809D03*
X011074Y006809D03*
X011078Y006809D03*
X011082Y006809D03*
X011086Y006809D03*
X011090Y006809D03*
X011094Y006809D03*
X011098Y006809D03*
X011102Y006809D03*
X011106Y006809D03*
X011110Y006809D03*
X011113Y006809D03*
X011117Y006809D03*
X011121Y006809D03*
X011125Y006809D03*
X011129Y006809D03*
X011133Y006809D03*
X011137Y006809D03*
X011141Y006809D03*
X011145Y006809D03*
X011149Y006809D03*
X011153Y006809D03*
X011157Y006809D03*
X011161Y006809D03*
X011165Y006809D03*
X011169Y006809D03*
X011173Y006809D03*
X011176Y006809D03*
X011180Y006809D03*
X011184Y006809D03*
X011188Y006809D03*
X011192Y006809D03*
X011196Y006809D03*
X011200Y006809D03*
X010373Y006387D03*
X010373Y006013D03*
D97*
X010377Y006011D03*
X010377Y006389D03*
D98*
X010381Y006387D03*
X010381Y006013D03*
D99*
X010385Y006013D03*
X010566Y006013D03*
X010566Y006387D03*
X010385Y006387D03*
D100*
X010389Y006389D03*
X010389Y006011D03*
X011216Y006803D03*
D101*
X010558Y006387D03*
X010393Y006387D03*
X010393Y006013D03*
X010558Y006013D03*
D102*
X010397Y006013D03*
X010397Y006387D03*
D103*
X010401Y006389D03*
X010550Y006389D03*
X010550Y006011D03*
X010401Y006011D03*
X011377Y006803D03*
D104*
X011381Y006803D03*
X010554Y006389D03*
X010554Y006011D03*
D105*
X010562Y006013D03*
X010562Y006387D03*
D106*
X010570Y006389D03*
X010570Y006011D03*
X011397Y006803D03*
D107*
X010574Y006387D03*
X010574Y006013D03*
D108*
X010578Y006013D03*
X010578Y006387D03*
D109*
X010771Y007133D03*
X010775Y007133D03*
D110*
X010779Y006450D03*
X010909Y006206D03*
D111*
X010779Y007131D03*
D112*
X010783Y007129D03*
D113*
X010791Y007125D03*
D114*
X010799Y007121D03*
D115*
X010806Y007118D03*
D116*
X010834Y007100D03*
D117*
X010865Y007068D03*
D118*
X010873Y006208D03*
D119*
X010877Y006206D03*
D120*
X010877Y007051D03*
D121*
X010881Y006206D03*
D122*
X010881Y007043D03*
D123*
X010885Y007033D03*
D124*
X010889Y006208D03*
D125*
X010889Y007021D03*
D126*
X010897Y006976D03*
X010893Y006208D03*
D127*
X010893Y007005D03*
D128*
X010897Y006208D03*
D129*
X010901Y006206D03*
D130*
X011204Y006803D03*
D131*
X011208Y006803D03*
D132*
X011212Y006803D03*
D133*
X011220Y006803D03*
X011389Y006803D03*
D134*
X011385Y006803D03*
X011224Y006803D03*
D135*
X011228Y006801D03*
D136*
X011393Y006803D03*
D137*
X011405Y006803D03*
D138*
X003530Y014490D02*
X002530Y014490D01*
X002230Y014190D01*
X002430Y014190D01*
X002230Y014390D01*
X002230Y014190D01*
X003530Y014490D02*
X003530Y014690D01*
D139*
X011830Y003035D02*
X011830Y002575D01*
X012700Y002805D02*
X013160Y002805D01*
X012930Y002575D02*
X012930Y003035D01*
D140*
X013630Y004490D03*
X013630Y005490D03*
X013630Y006490D03*
X013630Y007490D03*
X013630Y008490D03*
X013630Y009490D03*
X013630Y010490D03*
X013630Y011490D03*
X013630Y012490D03*
X013630Y013490D03*
X014630Y013490D03*
X014630Y012490D03*
X014630Y011490D03*
X014630Y010490D03*
X014630Y009490D03*
X014630Y008490D03*
X014630Y007490D03*
X014630Y006490D03*
X014630Y005490D03*
X014630Y004490D03*
X002630Y004490D03*
X002630Y005490D03*
X002630Y006490D03*
X002630Y007490D03*
X002630Y008490D03*
X002630Y009490D03*
X002630Y010490D03*
X002630Y011490D03*
X002630Y012490D03*
X002630Y013490D03*
X001630Y013490D03*
X001630Y012490D03*
X001630Y011490D03*
X001630Y010490D03*
X001630Y009490D03*
X001630Y008490D03*
X001630Y007490D03*
X001630Y006490D03*
X001630Y005490D03*
X001630Y004490D03*
D141*
X008320Y004199D02*
X008320Y004089D01*
X008940Y004089D01*
X008940Y004199D01*
X008770Y004369D01*
X008490Y004369D01*
X008320Y004199D01*
X009570Y014439D02*
X010190Y014439D01*
X010190Y014549D01*
X010020Y014719D01*
X009740Y014719D01*
X009570Y014549D01*
X009570Y014439D01*
D142*
X009290Y013264D03*
X010470Y013264D03*
X009220Y002914D03*
X008040Y002914D03*
D143*
X008630Y002914D03*
X009880Y013264D03*
D144*
X009570Y014439D02*
X010190Y014439D01*
X010190Y014549D01*
X010020Y014719D01*
X009740Y014719D01*
X009570Y014549D01*
X009570Y014439D01*
X009570Y014450D02*
X010190Y014450D01*
X010190Y014527D02*
X009570Y014527D01*
X009625Y014604D02*
X010135Y014604D01*
X010058Y014682D02*
X009702Y014682D01*
X008770Y004369D02*
X008490Y004369D01*
X008320Y004199D01*
X008320Y004089D01*
X008940Y004089D01*
X008940Y004199D01*
X008770Y004369D01*
X008797Y004342D02*
X008463Y004342D01*
X008385Y004265D02*
X008875Y004265D01*
X008940Y004188D02*
X008320Y004188D01*
X008320Y004110D02*
X008940Y004110D01*
D145*
X003381Y013122D03*
X003381Y013483D03*
X000781Y013483D03*
X000781Y013122D03*
M02*
